<?xml version="1.0" encoding="UTF-8"?>
<svg version="1.1" xmlns="http://www.w3.org/2000/svg" width="208" height="213">
<path d="M0 0 C68.64 0 137.28 0 208 0 C208 70.29 208 140.58 208 213 C139.36 213 70.72 213 0 213 C0 142.71 0 72.42 0 0 Z " fill="#210D67" transform="translate(0,0)"/>
<path d="M0 0 C2.41733843 4.83467686 1.56997238 12.13081698 0.5390625 17.3203125 C-4.90043593 33.12685499 -18.63390498 43.38261029 -33.04296875 50.50390625 C-44.02849798 55.36540201 -54.48288517 57.26772916 -66.4375 57.4375 C-67.38544434 57.45981689 -68.33338867 57.48213379 -69.31005859 57.50512695 C-75.1876302 57.48581001 -78.47238267 56.81710643 -83 53 C-83 44.97143644 -79.27898058 40.78222971 -74 35 C-73.46117188 34.40832031 -72.92234375 33.81664062 -72.3671875 33.20703125 C-71 32 -71 32 -69 32 C-69 36.29 -69 40.58 -69 45 C-68.8040625 43.84242188 -68.608125 42.68484375 -68.40625 41.4921875 C-68.10587971 39.95278976 -67.80369955 38.41374439 -67.5 36.875 C-67.37625 36.11445313 -67.2525 35.35390625 -67.125 34.5703125 C-65.96906416 28.98328928 -63.99394277 26.46811094 -59.24853516 23.34130859 C-58.50651855 22.89867676 -57.76450195 22.45604492 -57 22 C-56.30052246 21.57154785 -55.60104492 21.1430957 -54.88037109 20.70166016 C-43.60848369 14.08085594 -31.6414792 9.0144833 -19.5 4.25 C-18.81638397 3.97766541 -18.13276794 3.70533081 -17.42843628 3.42474365 C-15.46814838 2.64831324 -13.50154486 1.89124529 -11.53125 1.140625 C-10.39236328 0.70266602 -9.25347656 0.26470703 -8.08007812 -0.18652344 C-4.8617018 -1.03652581 -3.12121133 -1.09935685 0 0 Z " fill="#220E64" transform="translate(139,108)"/>
<path d="M0 0 C2.9375 1.9375 2.9375 1.9375 5 5 C5.84878128 10.16258732 4.23475911 14.21126104 1.25 18.375 C-4.44032881 25.08817717 -11.56325998 30.43178984 -18.39453125 35.92578125 C-19.97885851 37.22615577 -21.49927316 38.60397503 -23 40 C-23 40.99 -23 41.98 -23 43 C-19.18467013 43.99198577 -15.40197378 44.92358429 -11.52734375 45.66015625 C-10.30144531 45.89605469 -9.07554688 46.13195312 -7.8125 46.375 C-6.64332031 46.58898437 -5.47414062 46.80296875 -4.26953125 47.0234375 C-0.69091048 48.09232065 1.33875604 49.4039089 4 52 C4 52.66 4 53.32 4 54 C3.46858398 54.16491943 2.93716797 54.32983887 2.38964844 54.49975586 C-15.37352686 60.07024199 -32.226367 66.83780248 -48.25 76.37109375 C-50.46822914 77.68501641 -52.6762259 78.88838691 -55 80 C-51.92068397 53.05598475 -32.05902347 20.73668133 -11.859375 3.375 C-7.94018343 0.4767743 -4.9269395 -0.7038485 0 0 Z " fill="#230E65" transform="translate(131,51)"/>
<path d="M0 0 C0.66 0 1.32 0 2 0 C0.5981038 7.69971471 -1.29469742 15.24089731 -3.28540039 22.80728149 C-4.18346275 26.22373493 -5.07083127 29.64295311 -5.95703125 33.0625 C-6.13251495 33.73960526 -6.30799866 34.41671051 -6.48880005 35.11433411 C-8.0522669 41.16630593 -9.55048027 47.23231434 -11 53.3125 C-11.20729736 54.17657471 -11.41459473 55.04064941 -11.62817383 55.9309082 C-12.63303318 59.92165692 -12.63303318 59.92165692 -13 64 C-12.68885254 63.38705078 -12.37770508 62.77410156 -12.05712891 62.14257812 C13.17981443 12.61334033 13.17981443 12.61334033 29.546875 4.78125 C33.08831024 3.65340438 35.42815898 4.04325687 39 5 C42.74433719 8.17454675 44.82075167 10.20751668 45.3125 15.125 C44.56547549 24.38810395 38.83080964 30.15835132 32 36 C28.68319809 38.53668184 25.30544704 40.98591991 21.87768555 43.37036133 C20.21962244 44.53576701 18.60519792 45.76279212 17 47 C17 47.66 17 48.32 17 49 C20.43375299 50.14458433 23.5852187 50.38868793 27.1875 50.75 C33.92407406 51.52555516 39.07192924 53.07192924 44 58 C46.53541298 57.90913549 49.03554784 57.7629055 51.5625 57.5625 C52.27341797 57.51029297 52.98433594 57.45808594 53.71679688 57.40429688 C55.47821999 57.27425893 57.23916173 57.13773103 59 57 C59 57.66 59 58.32 59 59 C53.06 59.99 53.06 59.99 47 61 C47.32097656 61.86367187 47.64195312 62.72734375 47.97265625 63.6171875 C50.67676974 72.5212266 49.44996383 80.90133751 45.54296875 89.21875 C35.93979402 106.52877634 18.41959261 116.87091503 -0.18359375 122.265625 C-12.51857278 125.56503583 -26.31129698 127.7063808 -38 121.375 C-40.28835182 118.65758221 -40.79371792 116.81159734 -40.53125 113.26171875 C-38.80205041 105.89990578 -34.03793164 100.94522566 -28.515625 96.08984375 C-22.76784387 90.61285251 -20.8588322 85.28465298 -19.43637085 77.43569946 C-19.04872827 75.29909304 -18.61179066 73.17768853 -18.16137695 71.0534668 C-17.66190646 68.69699668 -17.16540135 66.34030635 -16.682724 63.98033142 C-14.55746921 53.63039365 -12.01944471 43.37932401 -9.49777222 33.12017822 C-8.69769271 29.8541085 -7.90953781 26.58534175 -7.12329102 23.31591797 C-6.62819321 21.27951871 -6.13268764 19.24321853 -5.63671875 17.20703125 C-5.41513092 16.2791832 -5.19354309 15.35133514 -4.96524048 14.39537048 C-3.7202539 9.33502985 -2.20431166 4.72502205 0 0 Z M6.95043945 31.69482422 C-10.88067757 56.89735851 -10.88067757 56.89735851 -17.56640625 85.2734375 C-17.28603516 86.12808594 -17.28603516 86.12808594 -17 87 C-16.175 86.5153125 -15.35 86.030625 -14.5 85.53125 C3.07384717 75.28994796 21.26792915 66.30115336 41 61 C40.4818964 59.0351761 40.4818964 59.0351761 39 57 C33.97499116 54.48749558 29.2057656 53.27510634 23.6875 52.375 C16.21725784 51.10862892 16.21725784 51.10862892 14 50 C14.56556578 46.47667806 15.64813819 45.06633476 18.375 42.8125 C19.09300781 42.20792969 19.81101563 41.60335937 20.55078125 40.98046875 C22.26580442 39.59367968 23.99352795 38.22251819 25.73046875 36.86328125 C36.6652544 28.43747983 36.6652544 28.43747983 42.25 16.25 C42.37942664 12.73082811 42.0191118 12.02837813 39.9375 8.9375 C37.17459665 6.88212146 37.17459665 6.88212146 34.25 6.3125 C21.76431808 8.95370195 13.54272003 21.66394139 6.95043945 31.69482422 Z M34.73046875 64.80078125 C33.68761719 65.19547607 32.64476563 65.5901709 31.5703125 65.99682617 C30.45398438 66.43099854 29.33765625 66.8651709 28.1875 67.3125 C27.03636719 67.75891846 25.88523438 68.20533691 24.69921875 68.6652832 C16.84796279 71.76177293 9.12929293 75.07888812 1.5 78.6875 C0.58887451 79.11393799 -0.32225098 79.54037598 -1.26098633 79.97973633 C-13.31108053 85.42807683 -13.31108053 85.42807683 -21 95.375 C-21.37198735 96.90779895 -21.70451553 98.45063363 -22 100 C-22.19980469 100.84949219 -22.39960937 101.69898438 -22.60546875 102.57421875 C-23.10467269 104.70839934 -23.55705836 106.85343669 -24 109 C-24 104.71 -24 100.42 -24 96 C-30.55106864 99.27553432 -35.39842511 105.11347824 -38 112 C-38.75085106 114.58736705 -38.75085106 114.58736705 -38 117 C-32.85996358 121.55957404 -28.31225153 121.63344593 -21.625 121.5 C-20.64837402 121.48646484 -19.67174805 121.47292969 -18.66552734 121.45898438 C-0.35612503 120.94263461 17.33715833 114.43318592 31 102 C31.70640625 101.36191406 32.4128125 100.72382813 33.140625 100.06640625 C40.36901569 93.19943509 45.59985793 86.02377046 46.18359375 75.77734375 C46.55430726 69.01223697 46.55430726 69.01223697 44 63 C40.15818082 63 38.24333331 63.47121589 34.73046875 64.80078125 Z " fill="#DBC9A7" transform="translate(94,44)"/>
<path d="M0 0 C3.74433719 3.17454675 5.82075167 5.20751668 6.3125 10.125 C5.56547549 19.38810395 -0.16919036 25.15835132 -7 31 C-10.31680191 33.53668184 -13.69455296 35.98591991 -17.12231445 38.37036133 C-18.78037756 39.53576701 -20.39480208 40.76279212 -22 42 C-22 42.66 -22 43.32 -22 44 C-15.565 45.485 -15.565 45.485 -9 47 C-9 47.33 -9 47.66 -9 48 C-14.78898419 48.20674944 -19.42932723 47.59162079 -25 46 C-25.33 44.68 -25.66 43.36 -26 42 C-20.87737338 37.29962894 -15.71375605 32.73955209 -10.25 28.4375 C-4.29709327 23.57230569 0.79066288 19.10206076 2.125 11.25 C2.27129113 8.11286799 2.12208072 7.20021237 0.4375 4.4375 C-2.8619068 2.49169599 -4.19799871 2.28264127 -8 3 C-28.66558751 13.16026102 -41.3785947 42.32399816 -51 62 C-52 59 -52 59 -51.1706543 56.80200195 C-50.72633057 55.95597412 -50.28200684 55.10994629 -49.82421875 54.23828125 C-49.08425659 52.81854004 -49.08425659 52.81854004 -48.3293457 51.37011719 C-47.78753662 50.36110352 -47.24572754 49.35208984 -46.6875 48.3125 C-46.13860107 47.27899414 -45.58970215 46.24548828 -45.02416992 45.18066406 C-18.16387735 -4.86532429 -18.16387735 -4.86532429 0 0 Z " fill="#E3D2B1" transform="translate(133,49)"/>
<path d="M0 0 C-1.35646553 3.15158907 -2.71685331 4.75928846 -5.4375 6.8125 C-21.02539593 20.18954534 -31.19982397 41.83809388 -40 60 C-41 57 -41 57 -40.1706543 54.80200195 C-39.72633057 53.95597412 -39.28200684 53.10994629 -38.82421875 52.23828125 C-38.08425659 50.81854004 -38.08425659 50.81854004 -37.3293457 49.37011719 C-36.78753662 48.36110352 -36.24572754 47.35208984 -35.6875 46.3125 C-35.13860107 45.27899414 -34.58970215 44.24548828 -34.02416992 43.18066406 C-10.84858066 0 -10.84858066 0 0 0 Z " fill="#DDCEC4" transform="translate(122,51)"/>
<path d="M0 0 C3.74433719 3.17454675 5.82075167 5.20751668 6.3125 10.125 C5.94349921 14.70060984 4.75654534 18.29908265 2 22 C-0.140625 23.23046875 -0.140625 23.23046875 -2 24 C-1.55138351 20.94940789 -0.89882897 18.80979847 0.5625 16.0625 C2.1657521 12.64687596 2.56631533 10.72150074 2 7 C0.5 4.5 0.5 4.5 -2 3 C-5.47482175 2.64542635 -7.68377419 2.8945914 -11 4 C-11.33 3.01 -11.66 2.02 -12 1 C-7.66643232 -1.23244396 -4.69671265 -1.25804803 0 0 Z " fill="#DBC9A7" transform="translate(133,49)"/>
<path d="M0 0 C0.97066406 0.64453125 1.94132812 1.2890625 2.94140625 1.953125 C7.23462372 4.40639213 11.07119541 4.65826161 15.9375 4.75 C17.10635742 4.79447266 17.10635742 4.79447266 18.29882812 4.83984375 C20.19868177 4.90977701 22.0993406 4.95724051 24 5 C23.67 5.99 23.34 6.98 23 8 C23.99 8.33 24.98 8.66 26 9 C5.94091904 9.5071116 5.94091904 9.5071116 -1 3 C-0.67 2.01 -0.34 1.02 0 0 Z " fill="#D9C8A4" transform="translate(55,160)"/>
<path d="M0 0 C0.33 0 0.66 0 1 0 C0.12878049 9.3795122 0.12878049 9.3795122 -0.6875 13.3125 C-1.27062114 16.01732397 -1.27062114 16.01732397 0.22265625 18.1484375 C1.43737412 22.60443773 -0.72390035 25.41754772 -2.875 29.3125 C-3.26558594 30.05306641 -3.65617187 30.79363281 -4.05859375 31.55664062 C-5.02303236 33.37966484 -6.00943045 35.19104144 -7 37 C-8.23043349 33.44483037 -7.75842819 31.03371277 -6.85546875 27.421875 C-6.59056641 26.34292969 -6.32566406 25.26398438 -6.05273438 24.15234375 C-5.76720703 23.02957031 -5.48167969 21.90679687 -5.1875 20.75 C-4.91357422 19.64269531 -4.63964844 18.53539062 -4.35742188 17.39453125 C-3.58048894 14.26071542 -2.79187599 11.13006793 -2 8 C-1.59969089 6.40118416 -1.19985778 4.80224895 -0.80078125 3.203125 C-0.40439453 1.61757812 -0.40439453 1.61757812 0 0 Z " fill="#2F1C51" transform="translate(88,73)"/>
<path d="M0 0 C6.28372312 1.06125102 11.3614472 2.3614472 16 7 C18.53541298 6.90913549 21.03554784 6.7629055 23.5625 6.5625 C24.27341797 6.51029297 24.98433594 6.45808594 25.71679688 6.40429688 C27.47821999 6.27425893 29.23916173 6.13773103 31 6 C31 6.66 31 7.32 31 8 C29.71802734 8.18175781 29.71802734 8.18175781 28.41015625 8.3671875 C26.75306641 8.61855469 26.75306641 8.61855469 25.0625 8.875 C23.96035156 9.03742188 22.85820312 9.19984375 21.72265625 9.3671875 C20.82417969 9.57601562 19.92570312 9.78484375 19 10 C18.67 10.66 18.34 11.32 18 12 C17.01 12 16.02 12 15 12 C14.67 11.67 14.34 11.34 14 11 C12.33382885 10.95936168 10.66611905 10.957279 9 11 C10.32 10.67 11.64 10.34 13 10 C8.94612259 5.18602057 5.9782058 4.11458074 0 3 C0 2.01 0 1.02 0 0 Z " fill="#C9B6A8" transform="translate(122,95)"/>
<path d="M0 0 C2.442877 3.6643155 2.07844476 5.68553809 2 10 C2.33 10.66 2.66 11.32 3 12 C2.43100339 14.06439975 1.77181998 16.10451277 1.0625 18.125 C0.68222656 19.22070312 0.30195312 20.31640625 -0.08984375 21.4453125 C-0.39019531 22.28835937 -0.69054687 23.13140625 -1 24 C-1.66 24 -2.32 24 -3 24 C-3.33 24.66 -3.66 25.32 -4 26 C-5.63713101 20.09848584 -4.12677184 15.35113347 -2.5625 9.625 C-2.31951172 8.69816406 -2.07652344 7.77132812 -1.82617188 6.81640625 C-1.22805687 4.54122367 -0.61911067 2.26954196 0 0 Z " fill="#D3C094" transform="translate(79,100)"/>
<path d="M0 0 C8.71061609 -0.39794693 15.99314723 -0.05295901 23.5625 4.5625 C24.036875 5.036875 24.51125 5.51125 25 6 C25 6.66 25 7.32 25 8 C22.06746654 9.03551045 19.12833062 10.05081838 16.1875 11.0625 C15.35412109 11.35705078 14.52074219 11.65160156 13.66210938 11.95507812 C12.45844727 12.3659668 12.45844727 12.3659668 11.23046875 12.78515625 C10.49207764 13.04176025 9.75368652 13.29836426 8.99291992 13.56274414 C7 14 7 14 4 13 C5.87144695 12.17934931 7.74734336 11.3688416 9.625 10.5625 C10.66914062 10.11003906 11.71328125 9.65757813 12.7890625 9.19140625 C15.88685251 8.04198295 18.73210054 7.42688777 22 7 C22 6.34 22 5.68 22 5 C16.42906504 3.42332029 11.20049186 2.66998544 5.41796875 2.34375 C3 2 3 2 0 0 Z " fill="#230F42" transform="translate(110,97)"/>
<path d="M0 0 C3.46868763 2.06645221 5.80891972 4.10191909 7 8 C7.15007306 10.69096527 7.08999955 13.30001363 7 16 C6.67 16 6.34 16 6 16 C5.85304687 15.09507813 5.85304687 15.09507813 5.703125 14.171875 C5.01526016 10.49535605 4.42349797 7.62740439 2.3125 4.5 C-0.95099153 2.38314063 -3.09919092 2 -7 2 C-13.81719258 3.95362433 -18.34558558 8.89995016 -23 14 C-23.33 13.01 -23.66 12.02 -24 11 C-23.34 11 -22.68 11 -22 11 C-22 10.01 -22 9.02 -22 8 C-18.99320279 4.15129957 -15.48062803 2.74246645 -11 1 C-7.53749757 -0.73125121 -3.78591771 -0.47815224 0 0 Z " fill="#251046" transform="translate(133,47)"/>
<path d="M0 0 C-1.47643047 3.38125527 -3.41612432 5.69867944 -5.9375 8.375 C-8.9921104 11.74446174 -11.26193504 14.75139678 -13 19 C-13.391875 19.94875 -13.78375 20.8975 -14.1875 21.875 C-14.455625 22.57625 -14.72375 23.2775 -15 24 C-15.33 24 -15.66 24 -16 24 C-16.87362897 18.4670165 -14.72982009 15.05757443 -11.859375 10.546875 C-4.1595092 0 -4.1595092 0 0 0 Z " fill="#E6D7B7" transform="translate(70,137)"/>
<path d="M0 0 C0.66 0.66 1.32 1.32 2 2 C-4.7674561 8.33232356 -11.53812332 14.47896498 -19 20 C-19.33 18.68 -19.66 17.36 -20 16 C-19.05125 15.566875 -18.1025 15.13375 -17.125 14.6875 C-13.79958063 13.20697799 -13.79958063 13.20697799 -12 10 C-11.01 10 -10.02 10 -9 10 C-8.67 9.01 -8.34 8.02 -8 7 C-7.34 7 -6.68 7 -6 7 C-6 6.34 -6 5.68 -6 5 C-2.53846154 2 -2.53846154 2 0 2 C0 1.34 0 0.68 0 0 Z " fill="#241147" transform="translate(129,69)"/>
<path d="M0 0 C0.66 0.99 1.32 1.98 2 3 C1.34 3.45375 0.68 3.9075 0 4.375 C-0.99 5.179375 -0.99 5.179375 -2 6 C-2 6.66 -2 7.32 -2 8 C2.29 8.99 6.58 9.98 11 11 C11 11.33 11 11.66 11 12 C5.21101581 12.20674944 0.57067277 11.59162079 -5 10 C-5.68359375 8.203125 -5.68359375 8.203125 -6 6 C-4.78515625 4.296875 -4.78515625 4.296875 -3.0625 2.75 C-2.21365234 1.96882813 -2.21365234 1.96882813 -1.34765625 1.171875 C-0.90292969 0.78515625 -0.45820312 0.3984375 0 0 Z " fill="#DACAB6" transform="translate(113,85)"/>
<path d="M0 0 C0.33 0.66 0.66 1.32 1 2 C0.236875 2.70125 -0.52625 3.4025 -1.3125 4.125 C-5.52201409 9.0520449 -5.95655534 15.80719833 -7 22 C-7.99 22 -8.98 22 -10 22 C-9.48692658 19.26260238 -8.9412466 16.5389551 -8.375 13.8125 C-8.23449219 13.04357422 -8.09398438 12.27464844 -7.94921875 11.48242188 C-6.70609099 5.6894465 -4.89390651 3.34528678 0 0 Z " fill="#2A184B" transform="translate(80,131)"/>
<path d="M0 0 C2.4375 0.375 2.4375 0.375 5 1 C7.42667328 5.85334656 6.62436919 13.28722352 5.43359375 18.4609375 C4.05889858 22.2179578 2.19113497 25.66112767 0 29 C-1 27 -1 27 -0.0625 23.875 C0.288125 22.92625 0.63875 21.9775 1 21 C1.66 21 2.32 21 3 21 C3.84023188 16.64667264 4.10770995 12.55557481 4.0625 8.125 C4.05347656 6.97257812 4.04445312 5.82015625 4.03515625 4.6328125 C4.02355469 3.76398438 4.01195312 2.89515625 4 2 C2.68 1.67 1.36 1.34 0 1 C0 0.67 0 0.34 0 0 Z " fill="#2A1743" transform="translate(134,107)"/>
<path d="M0 0 C0 2 0 2 -2.125 4.375 C-5 7 -5 7 -8 8.875 C-11.71724714 11.50805006 -13.51793956 14.20390756 -16 18 C-16.66 17.67 -17.32 17.34 -18 17 C-5.138833 0 -5.138833 0 0 0 Z " fill="#271349" transform="translate(123,53)"/>
<path d="M0 0 C3.91436658 -0.4551589 5.60138447 -0.26291663 8.9375 1.9375 C11.47993966 5.71263768 11.28312279 7.55112553 10.6875 11.9140625 C9.90104694 14.30023257 8.89194073 15.38568101 7 17 C7.08378906 16.15695313 7.16757813 15.31390625 7.25390625 14.4453125 C7.40666016 12.80175781 7.40666016 12.80175781 7.5625 11.125 C7.66691406 10.03445312 7.77132812 8.94390625 7.87890625 7.8203125 C8.22639404 5.04847977 8.22639404 5.04847977 7 3 C4.36 3 1.72 3 -1 3 C-0.67 2.01 -0.34 1.02 0 0 Z " fill="#38244C" transform="translate(125,51)"/>
<path d="M0 0 C0 0.66 0 1.32 0 2 C-2.08293277 3.1257469 -4.16632908 4.25062083 -6.25 5.375 C-7.41015625 6.00148438 -8.5703125 6.62796875 -9.765625 7.2734375 C-12.16236626 8.55285735 -14.56088291 9.80459113 -17 11 C-16.25 4.25 -16.25 4.25 -14 2 C-14 3.65 -14 5.3 -14 7 C-12.35 6.34 -10.7 5.68 -9 5 C-9 4.34 -9 3.68 -9 3 C-7.68 3 -6.36 3 -5 3 C-5 2.34 -5 1.68 -5 1 C-3 0 -3 0 0 0 Z " fill="#281744" transform="translate(93,120)"/>
<path d="M0 0 C-0.33 4.62 -0.66 9.24 -1 14 C-1.33 14 -1.66 14 -2 14 C-2.33 11.69 -2.66 9.38 -3 7 C-4.98 7.99 -4.98 7.99 -7 9 C-7.33 8.01 -7.66 7.02 -8 6 C-7.0479279 4.99403703 -6.08812654 3.99538437 -5.125 3 C-4.59132813 2.443125 -4.05765625 1.88625 -3.5078125 1.3125 C-2 0 -2 0 0 0 Z " fill="#372450" transform="translate(70,140)"/>
<path d="M0 0 C0.92927243 2.98792978 1.01601433 4.96798815 0.29296875 8.00390625 C0.11830078 8.74447266 -0.05636719 9.48503906 -0.23632812 10.24804688 C-0.42646484 11.01181641 -0.61660156 11.77558594 -0.8125 12.5625 C-0.99103516 13.33013672 -1.16957031 14.09777344 -1.35351562 14.88867188 C-2.22531091 18.49859676 -2.90094724 20.85142086 -5 24 C-5.17233734 18.91604844 -5.00979202 15.68951472 -3 11 C-2.42883009 8.3783712 -1.93757511 5.75041965 -1.46484375 3.109375 C-1 1 -1 1 0 0 Z " fill="#281446" transform="translate(82,83)"/>
<path d="M0 0 C4.29 0 8.58 0 13 0 C12.67 0.99 12.34 1.98 12 3 C12.99 3.33 13.98 3.66 15 4 C10.38 4 5.76 4 1 4 C1 3.67 1 3.34 1 3 C3.64 2.67 6.28 2.34 9 2 C6.03 1.67 3.06 1.34 0 1 C0 0.67 0 0.34 0 0 Z " fill="#B9A9A0" transform="translate(66,165)"/>
<path d="M0 0 C-2.64280641 2.64280641 -5.72876827 3.71943083 -9.125 5.125 C-9.78371094 5.40214844 -10.44242187 5.67929688 -11.12109375 5.96484375 C-12.74556827 6.64759391 -14.37254948 7.32437433 -16 8 C-16.33 7.34 -16.66 6.68 -17 6 C-14.35261084 4.5393715 -13.10551666 4 -10 4 C-10 3.34 -10 2.68 -10 2 C-6.3558226 -0.4294516 -4.28758728 -0.16179575 0 0 Z " fill="#291648" transform="translate(114,111)"/>
<path d="M0 0 C0.66 0 1.32 0 2 0 C1.69106068 1.6256807 1.3777305 3.25052748 1.0625 4.875 C0.88847656 5.77992187 0.71445313 6.68484375 0.53515625 7.6171875 C0 10 0 10 -1 12 C-1.66 12 -2.32 12 -3 12 C-2.88541307 10.56163249 -2.75790884 9.12429034 -2.625 7.6875 C-2.55539063 6.88699219 -2.48578125 6.08648437 -2.4140625 5.26171875 C-2 3 -2 3 0 0 Z " fill="#DCCBAD" transform="translate(94,44)"/>
<path d="M0 0 C1.03719328 3.21456356 0.94068337 5.40925583 0.1875 8.6875 C0.01605469 9.47511719 -0.15539062 10.26273438 -0.33203125 11.07421875 C-1 13 -1 13 -3 14 C-3.0270043 12.54176788 -3.04639787 11.08339325 -3.0625 9.625 C-3.07410156 8.81289062 -3.08570312 8.00078125 -3.09765625 7.1640625 C-3 5 -3 5 -2 3 C-1.34 3 -0.68 3 0 3 C0 2.01 0 1.02 0 0 Z " fill="#DFD0B1" transform="translate(72,140)"/>
<path d="M0 0 C-1.4258086 3.45195767 -3.09746334 5.1014256 -6.125 7.25 C-7.21167969 8.03117187 -7.21167969 8.03117187 -8.3203125 8.828125 C-8.87460938 9.21484375 -9.42890625 9.6015625 -10 10 C-10 7 -10 7 -8.3203125 5.17578125 C-7.59585938 4.56089844 -6.87140625 3.94601563 -6.125 3.3125 C-5.40570313 2.68988281 -4.68640625 2.06726562 -3.9453125 1.42578125 C-2 0 -2 0 0 0 Z " fill="#E6D7BE" transform="translate(122,51)"/>
<path d="M0 0 C0.33 0.66 0.66 1.32 1 2 C1.99 2.33 2.98 2.66 4 3 C2.35 6.3 0.7 9.6 -1 13 C-1.96697501 9.13209997 -1.979595 7.91837998 -1.0625 4.25 C-0.86785156 3.45078125 -0.67320313 2.6515625 -0.47265625 1.828125 C-0.31667969 1.22484375 -0.16070312 0.6215625 0 0 Z " fill="#423046" transform="translate(82,97)"/>
<path d="M0 0 C1.125 1.625 1.125 1.625 2 4 C1.125 7.25 1.125 7.25 0 10 C-0.66 10 -1.32 10 -2 10 C-2.93423645 6.98968256 -3.04449911 6.13349732 -2 3 C-1.34 3 -0.68 3 0 3 C0 2.01 0 1.02 0 0 Z " fill="#D8C69F" transform="translate(141,120)"/>
<path d="M0 0 C-7.28571429 3.42857143 -7.28571429 3.42857143 -12 3 C-12 2.34 -12 1.68 -12 1 C-10.37681021 0.63762737 -8.7513642 0.28534843 -7.125 -0.0625 C-6.22007812 -0.25972656 -5.31515625 -0.45695312 -4.3828125 -0.66015625 C-2 -1 -2 -1 0 0 Z " fill="#E6D3AD" transform="translate(138,106)"/>
<path d="M0 0 C-1.5830577 4.2742558 -4.50568404 6.26531794 -8 9 C-7.53918323 4.85264908 -4.48412936 0 0 0 Z " fill="#E9D8BD" transform="translate(70,137)"/>
<path d="M0 0 C1.1875 1.6875 1.1875 1.6875 2 4 C0.625 6.75 0.625 6.75 -1 9 C-2.1875 7.3125 -2.1875 7.3125 -3 5 C-1.625 2.25 -1.625 2.25 0 0 Z " fill="#E6D5AB" transform="translate(138,128)"/>
<path d="M0 0 C0.53625 0.391875 1.0725 0.78375 1.625 1.1875 C-1.6875 2.8125 -1.6875 2.8125 -5.375 4.1875 C-6.365 3.5275 -7.355 2.8675 -8.375 2.1875 C-2.95961538 -1.0125 -2.95961538 -1.0125 0 0 Z " fill="#E0D0AA" transform="translate(105.375,116.8125)"/>
<path d="M0 0 C0.66 0.66 1.32 1.32 2 2 C-1.465 4.97 -1.465 4.97 -5 8 C-5.33 7.01 -5.66 6.02 -6 5 C-2.25 2 -2.25 2 0 2 C0 1.34 0 0.68 0 0 Z " fill="#2E1A4D" transform="translate(129,69)"/>
<path d="M0 0 C-2.85306797 2.32472205 -5.54074837 3.7508258 -9 5 C-9.33 4.01 -9.66 3.02 -10 2 C-6.49223216 0.39644899 -3.85645121 -0.22036864 0 0 Z " fill="#CEBDA6" transform="translate(131,48)"/>
<path d="M0 0 C1.65 0 3.3 0 5 0 C5.33 0.99 5.66 1.98 6 3 C3.69 3 1.38 3 -1 3 C-0.67 2.01 -0.34 1.02 0 0 Z " fill="#E4D2A6" transform="translate(79,165)"/>
<path d="M0 0 C-2.97 1.32 -5.94 2.64 -9 4 C-9.33 3.34 -9.66 2.68 -10 2 C-9.34 2 -8.68 2 -8 2 C-8 1.34 -8 0.68 -8 0 C-4.63458162 -1.08174162 -3.70152678 -0.92538169 0 0 Z " fill="#32204A" transform="translate(113,155)"/>
<path d="M0 0 C0.6875 1.75 0.6875 1.75 1 4 C-0.3125 6.25 -0.3125 6.25 -2 8 C-2.66 8 -3.32 8 -4 8 C-3.40072174 4.64404172 -2.15377564 2.62198774 0 0 Z " fill="#DACBB8" transform="translate(61,144)"/>
<path d="M0 0 C0.66 0 1.32 0 2 0 C1.45276317 3.37462715 0.9451 5.08235 -1 8 C-1.625 5.125 -1.625 5.125 -2 2 C-1.34 1.34 -0.68 0.68 0 0 Z " fill="#C8B489" transform="translate(71,134)"/>
<path d="M0 0 C2 3 2 3 1.75 6.125 C1.5025 7.07375 1.255 8.0225 1 9 C0.01 9.495 0.01 9.495 -1 10 C-0.67 6.7 -0.34 3.4 0 0 Z " fill="#D3C4AC" transform="translate(79,100)"/>
<path d="M0 0 C2.31 0.33 4.62 0.66 7 1 C7 1.66 7 2.32 7 3 C5.02 3.33 3.04 3.66 1 4 C0.67 2.68 0.34 1.36 0 0 Z " fill="#D1BE98" transform="translate(84,164)"/>
<path d="M0 0 C0.66 1.32 1.32 2.64 2 4 C0.68 4.99 -0.64 5.98 -2 7 C-2.6875 5.1875 -2.6875 5.1875 -3 3 C-1.5625 1.25 -1.5625 1.25 0 0 Z " fill="#D4C2A5" transform="translate(128,142)"/>
<path d="M0 0 C0.99 0 1.98 0 3 0 C1.60667426 3.36720387 0.0210714 4.9859524 -3 7 C-3.33 6.01 -3.66 5.02 -4 4 C-3.01 3.67 -2.02 3.34 -1 3 C-0.67 2.01 -0.34 1.02 0 0 Z " fill="#261148" transform="translate(130,136)"/>
<path d="M0 0 C0.33 0 0.66 0 1 0 C0.67 2.97 0.34 5.94 0 9 C-0.66 8.34 -1.32 7.68 -2 7 C-1.43181818 1.43181818 -1.43181818 1.43181818 0 0 Z " fill="#DBCDAF" transform="translate(88,68)"/>
</svg>
