<?xml version="1.0" encoding="UTF-8"?>
<svg version="1.1" xmlns="http://www.w3.org/2000/svg" width="764" height="501">
<path d="M0 0 C252.12 0 504.24 0 764 0 C764 165.33 764 330.66 764 501 C511.88 501 259.76 501 0 501 C0 335.67 0 170.34 0 0 Z " fill="#3B297A" transform="translate(0,0)"/>
<path d="M0 0 C163.35 0 326.7 0 495 0 C495 106.26 495 212.52 495 322 C331.65 322 168.3 322 0 322 C0 215.74 0 109.48 0 0 Z " fill="#3D2A79" transform="translate(135,96)"/>
<path d="M0 0 C163.35 0 326.7 0 495 0 C495 106.26 495 212.52 495 322 C331.65 322 168.3 322 0 322 C0 215.74 0 109.48 0 0 Z M9 9 C9 109.32 9 209.64 9 313 C166.41 313 323.82 313 486 313 C486 212.68 486 112.36 486 9 C328.59 9 171.18 9 9 9 Z " fill="#4A3869" transform="translate(135,96)"/>
<path d="M0 0 C94.05 0.33 188.1 0.66 285 1 C285 1.33 285 1.66 285 2 C323.115 2.495 323.115 2.495 362 3 C362 3.33 362 3.66 362 4 C244.19 4 126.38 4 5 4 C5 106.3 5 208.6 5 314 C148.22 314 291.44 314 439 314 C439 314.33 439 314.66 439 315 C400.72 315.33 362.44 315.66 323 316 C378.11 316.33 433.22 316.66 490 317 C490 317.33 490 317.66 490 318 C328.3 318 166.6 318 0 318 C0 213.06 0 108.12 0 0 Z " fill="#2D1A4E" transform="translate(137,98)"/>
<path d="M0 0 C97.41365178 -0.04033135 97.41365178 -0.04033135 138.234375 -0.04882812 C147.57617189 -0.05078568 156.91796877 -0.05280607 166.25976562 -0.05493164 C167.43043461 -0.05519539 168.6011036 -0.05545914 169.8072474 -0.05573088 C188.64981372 -0.06006749 207.49237696 -0.06794423 226.33494146 -0.0771528 C245.70575871 -0.08653982 265.07657435 -0.09206625 284.44739377 -0.09408849 C296.37793774 -0.09545328 308.30847298 -0.0997468 320.23901425 -0.10791647 C328.44590599 -0.11324635 336.65279329 -0.11479027 344.85968663 -0.11350138 C349.57822999 -0.11286764 354.29675824 -0.11376392 359.01529884 -0.11920547 C380.36698987 -0.14265701 401.66506183 0.09745272 423 1 C423 1.33 423 1.66 423 2 C412.23926566 2.86265034 401.57347299 3.14132671 390.78285217 3.12025452 C389.09523723 3.12069162 387.40762235 3.12156909 385.72000784 3.12284368 C381.12485028 3.12506125 376.52971639 3.12110524 371.93456185 3.11606562 C366.96340893 3.11172163 361.99225719 3.11321033 357.02110291 3.1139679 C348.42223358 3.11449064 339.82337188 3.11136997 331.22450447 3.10573006 C318.79219352 3.09758115 306.35988623 3.09499637 293.9275729 3.09374207 C273.75387789 3.09155687 253.58018694 3.08491122 233.40649414 3.07543945 C213.81697611 3.06625156 194.2274592 3.05918894 174.63793945 3.05493164 C173.41685319 3.05466364 172.19576692 3.05439565 170.93767804 3.05411953 C161.38708419 3.05203994 151.83649031 3.05008307 142.28589642 3.04816496 C95.52392722 3.03874206 48.76196819 3.0186212 2 3 C2 103.32 2 203.64 2 307 C159.74 307 317.48 307 480 307 C480 245.62 480 184.24 480 121 C480.33 121 480.66 121 481 121 C481 183.37 481 245.74 481 310 C322.27 310 163.54 310 0 310 C0 207.7 0 105.4 0 0 Z " fill="#A27F7C" transform="translate(142,102)"/>
<path d="M0 0 C0.99 0 1.98 0 3 0 C2.28853578 6.5716827 0.51902639 12.7682457 -1.25 19.125 C-3.53938608 27.47031404 -5.7303217 35.82039873 -7.6875 44.25 C-8.99578507 49.87898576 -10.36617065 55.45409322 -12 61 C-13.74665592 66.93863013 -15.24621592 72.91899674 -16.6875 78.9375 C-16.90212891 79.82630859 -17.11675781 80.71511719 -17.33789062 81.63085938 C-18.46851752 86.40983504 -19.39652555 91.1257833 -20 96 C-19.70456299 95.38817871 -19.40912598 94.77635742 -19.10473633 94.14599609 C-8.90503938 73.12832017 2.27789542 52.9357802 16 34 C16.41846191 33.41395996 16.83692383 32.82791992 17.26806641 32.22412109 C33.12193137 10.13510362 33.12193137 10.13510362 45 7 C50.42009783 6.27007278 54.56251142 6.28125571 59.5 8.75 C63.36434844 12.22791359 65.59445999 15.00721742 66.30859375 20.27734375 C66.7596114 29.58470789 63.70330213 36.52189353 57.796875 43.6640625 C50.81803764 50.93556078 42.74281509 56.88855122 34.34765625 62.421875 C33.74735596 62.82204834 33.14705566 63.22222168 32.52856445 63.63452148 C30.83544738 64.75590651 29.12896772 65.85703841 27.421875 66.95703125 C26.62265625 67.63121094 25.8234375 68.30539063 25 69 C25 70.32 25 71.64 25 73 C27.58329382 73.86109794 29.4299931 74.19689325 32.09765625 74.39453125 C44.42113005 75.41733473 54.14397516 77.03129907 64 85 C64.33 85.66 64.66 86.32 65 87 C69.95214612 86.30790578 69.95214612 86.30790578 74.875 85.4375 C78.93279525 84.86940866 82.91026011 84.9182052 87 85 C86.67 85.66 86.34 86.32 86 87 C83.14258915 87.8013619 80.33288557 88.49708506 77.4375 89.125 C76.63119141 89.30675781 75.82488281 89.48851562 74.99414062 89.67578125 C72.99776175 90.12467118 70.9990802 90.56329743 69 91 C69.433125 92.09054688 69.433125 92.09054688 69.875 93.203125 C74.95064321 106.9496587 73.66929561 118.82398076 67.5625 132.1328125 C57.79696854 150.1145363 41.62966938 161.57066962 24 171 C23.195625 171.46019531 22.39125 171.92039062 21.5625 172.39453125 C13.92136903 176.57327475 5.54741856 178.92433753 -2.77734375 181.34960938 C-4.63907939 181.89438791 -6.49255312 182.46729467 -8.34375 183.046875 C-21.21060774 186.63605111 -39.59298324 187.56672441 -52 182 C-55.33570225 179.81313227 -58.19743484 177.60513032 -60 174 C-61.26112506 165.47839778 -58.04401638 160.14572106 -53.1328125 153.45703125 C-48.39360812 147.3624513 -43.44296864 141.27174054 -36.95703125 136.9921875 C-32.58718838 133.33190193 -32.27724263 128.30450922 -31.3125 122.9375 C-30.82699329 120.51557824 -30.33425288 118.09510007 -29.8359375 115.67578125 C-29.70092331 115.01286072 -29.56590912 114.34994019 -29.42680359 113.66693115 C-27.40936425 103.91351266 -24.88531103 94.27722806 -22.4375 84.625 C-18.15761787 67.71441413 -13.98177977 50.78531784 -10.12109375 33.7734375 C-9.69860352 31.91912109 -9.69860352 31.91912109 -9.26757812 30.02734375 C-8.70555802 27.55445531 -8.14840752 25.08045596 -7.59570312 22.60546875 C-3.1327858 3.1327858 -3.1327858 3.1327858 0 0 Z M17.0168457 37.71557617 C3.41408896 57.13252622 -8.22975613 77.41065788 -18 99 C-18.42152344 99.92167969 -18.84304688 100.84335938 -19.27734375 101.79296875 C-21.59868461 107.20943075 -23.1957589 112.84195907 -24.8125 118.5 C-25.04420898 119.3031665 -25.27591797 120.10633301 -25.51464844 120.93383789 C-26.90718655 125.01425263 -26.90718655 125.01425263 -26 129 C-24.81083984 128.25169922 -24.81083984 128.25169922 -23.59765625 127.48828125 C-15.37250216 122.39502206 -6.94184953 117.74331802 1.625 113.25 C2.64843506 112.70770752 3.67187012 112.16541504 4.72631836 111.60668945 C11.03256347 108.33065921 17.38600343 105.56419642 24.05419922 103.10595703 C26.91411627 102.03224377 29.70443512 100.85531606 32.5 99.625 C41.44803103 95.84022471 50.76476085 92.99405519 60 90 C60.34157856 86.92294851 60.34157856 86.92294851 58.1875 85.0625 C49.54385734 79.46955475 40.22351959 78.23186251 30.17382812 77.12670898 C29.29146484 77.02173096 28.40910156 76.91675293 27.5 76.80859375 C26.7059375 76.72407959 25.911875 76.63956543 25.09375 76.55249023 C22.62231006 75.90033671 21.62442214 74.93192994 20 73 C21.31882321 69.02292375 22.81534198 66.88877243 26 64.1875 C26.80566406 63.49914062 27.61132812 62.81078125 28.44140625 62.1015625 C30.92177093 60.06425533 33.4225863 58.05694973 35.9375 56.0625 C52.76456948 43.48736968 52.76456948 43.48736968 61.3125 25.29296875 C61.50896061 20.70684147 61.52208993 17.87014989 59.125 13.875 C55.79458973 10.9364027 53.1656021 10.4704736 48.6953125 10.53515625 C34.4180345 12.99746941 24.84408258 26.74966649 17.0168457 37.71557617 Z M58.03515625 94.25 C57.24544434 94.52448975 56.45573242 94.79897949 55.64208984 95.08178711 C54.7908252 95.38479736 53.93956055 95.68780762 53.0625 96 C52.1751416 96.31396729 51.2877832 96.62793457 50.37353516 96.95141602 C34.62400651 102.58418534 19.17178854 108.96029012 4 116 C3.30922363 116.31936523 2.61844727 116.63873047 1.90673828 116.96777344 C-5.80793164 120.57173354 -13.17644653 124.53306182 -20.3125 129.1875 C-20.94115967 129.59145996 -21.56981934 129.99541992 -22.2175293 130.41162109 C-29.83769907 135.54916834 -30.86229087 141.64596243 -32.6875 150.1875 C-32.91244141 151.19748047 -33.13738281 152.20746094 -33.36914062 153.24804688 C-34.54133931 158.08019931 -34.54133931 158.08019931 -35 163 C-35.99 163 -36.98 163 -38 163 C-37.01 155.74 -36.02 148.48 -35 141 C-44.55182911 148.16387184 -54.14235957 156.14841512 -56.4765625 168.52734375 C-56.62031543 170.86143745 -56.5801861 172.73679473 -56 175 C-51.07787076 179.92212924 -41.66951694 180.24853772 -35.01293945 180.32958984 C-34.20429443 180.3239502 -33.39564941 180.31831055 -32.5625 180.3125 C-31.69778076 180.30686035 -30.83306152 180.3012207 -29.94213867 180.29541016 C-2.48763221 179.78954403 25.34262899 169.13485376 46 151 C46.76054687 150.33484375 47.52109375 149.6696875 48.3046875 148.984375 C59.01902937 138.97443623 66.97162087 126.15671772 68.3359375 111.35546875 C68.52483499 104.53336333 67.95821446 99.1629468 65 93 C62.1735215 93 60.64856712 93.33856349 58.03515625 94.25 Z " fill="#B39671" transform="translate(358,131)"/>
<path d="M0 0 C92.95927834 -0.04033135 92.95927834 -0.04033135 131.80859375 -0.04882812 C140.70035809 -0.05078589 149.59212242 -0.05280634 158.48388672 -0.05493164 C159.59826949 -0.05519539 160.71265226 -0.05545914 161.8608042 -0.05573088 C179.83352865 -0.06007594 197.8062499 -0.06795742 215.77897245 -0.0771528 C234.23441203 -0.08651614 252.68984994 -0.09206129 271.14529181 -0.09408849 C282.52617715 -0.09545815 293.90705342 -0.09977855 305.28793597 -0.10791647 C313.10039501 -0.113217 320.91284938 -0.11479678 328.72531009 -0.11350138 C333.22744085 -0.11286316 337.7295558 -0.11381677 342.23168373 -0.11920547 C346.36390691 -0.12411498 350.49610381 -0.12428974 354.62832826 -0.12089889 C356.11312584 -0.12048056 357.59792514 -0.12171215 359.08271939 -0.12488318 C369.09255623 -0.14499537 379.02021962 0.2704493 389 1 C389 1.33 389 1.66 389 2 C261.29 2 133.58 2 2 2 C2 106.94 2 211.88 2 320 C29.46863281 319.97679687 56.93726563 319.95359375 85.23828125 319.9296875 C102.58789087 319.91947454 119.93749866 319.90975234 137.28710938 319.90234375 C146.39672859 319.89842778 155.50634773 319.89438675 164.6159668 319.89013672 C165.75776978 319.88960922 166.89957276 319.88908172 168.07597584 319.88853824 C186.52945784 319.87983051 204.98292743 319.86405787 223.43640206 319.84569441 C242.36299346 319.82701668 261.28957835 319.81588779 280.2161786 319.81182301 C291.90267221 319.80907353 303.58913075 319.8003776 315.27561357 319.78416707 C323.28047508 319.77362642 331.28531837 319.77039272 339.29018632 319.77299725 C343.91426551 319.7742831 348.53828324 319.77225911 353.16235161 319.76158905 C357.39075775 319.75190279 361.61906074 319.75133477 365.8474715 319.75820221 C367.38183711 319.75905179 368.916209 319.75647562 370.45056216 319.75023364 C372.52738246 319.74227216 374.60382451 319.74649379 376.68063831 319.75390434 C377.83688672 319.7531449 378.99313512 319.75238546 380.18442136 319.75160301 C383 320 383 320 386 322 C258.62 322 131.24 322 0 322 C0 215.74 0 109.48 0 0 Z " fill="#D3B8A4" transform="translate(135,96)"/>
<path d="M0 0 C1.71272855 0.00056958 1.71272855 0.00056958 3.46005768 0.00115067 C4.77180546 -0.00084038 6.08355325 -0.00283143 7.43505096 -0.00488281 C8.90988318 -0.00202921 10.38471521 0.0009164 11.85954708 0.00394398 C13.41133525 0.00350841 14.96312335 0.00263378 16.51491106 0.00135481 C20.79965276 -0.00089303 25.08436971 0.00313507 29.36910826 0.00813287 C33.98194905 0.01243307 38.59478834 0.01099126 43.20763057 0.0102306 C51.20651562 0.00970509 59.20539254 0.01285471 67.20427555 0.01846844 C78.76945781 0.02657979 90.33463612 0.02919828 101.89982092 0.03045643 C120.66149924 0.03264753 139.42317323 0.03930917 158.1848492 0.04875904 C176.41499221 0.05793168 194.64513404 0.06501324 212.87527889 0.06926686 C213.9981265 0.06952958 215.12097412 0.0697923 216.27784742 0.07006299 C221.91058757 0.07136798 227.54332772 0.0726317 233.17606789 0.07387489 C279.93900776 0.08424929 326.70194291 0.10186917 373.4648785 0.1241985 C373.4648785 0.4541985 373.4648785 0.7841985 373.4648785 1.1241985 C249.7148785 1.1241985 125.9648785 1.1241985 -1.5351215 1.1241985 C-1.5351215 107.3841985 -1.5351215 213.6441985 -1.5351215 323.1241985 C161.8148785 323.1241985 325.1648785 323.1241985 493.4648785 323.1241985 C493.4648785 323.4541985 493.4648785 323.7841985 493.4648785 324.1241985 C438.54026392 324.93795422 383.62179278 325.32388219 328.6915541 325.45304129 C321.18377056 325.47072846 313.67599236 325.48998064 306.16821522 325.51019627 C304.53494578 325.51458916 304.53494578 325.51458916 302.86868099 325.5190708 C300.65409515 325.52503017 298.43950932 325.53099138 296.22492348 325.53695439 C275.77107657 325.59183216 255.31722001 325.64176557 234.8633564 325.68995939 C216.20458345 325.73407223 197.54583259 325.78429487 178.88708294 325.83729221 C159.55335535 325.89215792 140.2196212 325.94316537 120.88587224 325.98992437 C110.09892233 326.01607375 99.31198119 326.04367013 88.52504581 326.07529789 C79.39596069 326.10201744 70.26687519 326.12504744 61.13776923 326.14338286 C56.49520917 326.15280364 51.85266901 326.16384716 47.21012539 326.17948681 C42.95213852 326.19378564 38.6941686 326.20315812 34.43616175 326.20881687 C32.90797355 326.21167218 31.37978722 326.21623231 29.85161049 326.22280563 C21.9083065 326.25594493 13.98543652 326.13619221 6.05140251 325.74363476 C5.32130729 325.71312623 4.59121207 325.68261769 3.83899275 325.65118466 C-1.29988006 325.35943994 -1.29988006 325.35943994 -3.5351215 323.1241985 C-3.78466916 320.81227875 -3.78466916 320.81227875 -3.78401047 317.85210282 C-3.78860927 316.72708404 -3.79320806 315.60206527 -3.79794621 314.44295502 C-3.79280265 313.19657747 -3.78765909 311.95019992 -3.78235966 310.66605335 C-3.78598128 308.69219264 -3.78598128 308.69219264 -3.78967607 306.67845595 C-3.79611358 303.01355951 -3.79000299 299.34877287 -3.78191179 295.68388361 C-3.77535301 291.73634713 -3.78027926 287.78882331 -3.78379399 283.84128529 C-3.78884434 276.10346607 -3.78318401 268.36568948 -3.77394368 260.62787556 C-3.76357869 251.62598123 -3.76362936 242.62409621 -3.76411626 233.62219704 C-3.76461729 217.56645868 -3.75544416 201.51074022 -3.74093205 185.45500904 C-3.72684146 169.85767463 -3.71976134 154.26035772 -3.72042423 138.66301686 C-3.72046419 137.70229513 -3.72050415 136.7415734 -3.72054531 135.7517389 C-3.72058567 134.79271546 -3.72062602 133.83369203 -3.7206676 132.84560728 C-3.72135663 115.11337408 -3.71547236 97.38114835 -3.70651438 79.64891757 C-3.70349216 73.3665732 -3.70243413 67.0842302 -3.70198208 60.80188519 C-3.70130145 53.15191771 -3.69685775 45.50196283 -3.68764927 37.85200071 C-3.68301772 33.94511944 -3.67999075 30.03825433 -3.68124348 26.13137013 C-3.68253268 21.90601529 -3.67611755 17.68070873 -3.66883427 13.45536 C-3.67038287 12.20675173 -3.67193147 10.95814345 -3.673527 9.67169857 C-3.67030256 8.54928754 -3.66707811 7.42687652 -3.66375595 6.27045304 C-3.66305153 5.29375733 -3.6623471 4.31706163 -3.66162133 3.31076908 C-3.47840635 0.14386776 -3.1879066 0.15617918 0 0 Z " fill="#311852" transform="translate(136.5351215004921,94.8758015036583)"/>
<path d="M0 0 C93.39 0 186.78 0 283 0 C283 0.33 283 0.66 283 1 C321.115 1.495 321.115 1.495 360 2 C360 2.33 360 2.66 360 3 C242.19 3 124.38 3 3 3 C3 105.63 3 208.26 3 314 C3.99 314.33 4.98 314.66 6 315 C4.02 315 2.04 315 0 315 C0 211.05 0 107.1 0 0 Z " fill="#36235E" transform="translate(139,99)"/>
<path d="M0 0 C49.5552245 -0.02208979 99.11044432 -0.04053684 148.66567234 -0.05106533 C154.53037011 -0.05231588 160.39506787 -0.05361021 166.25976562 -0.05493164 C168.01092906 -0.05532511 168.01092906 -0.05532511 169.79746954 -0.05572652 C188.64329515 -0.06006512 207.48911768 -0.06794263 226.33494146 -0.0771528 C245.70575871 -0.08653982 265.07657435 -0.09206625 284.44739377 -0.09408849 C296.37793774 -0.09545328 308.30847298 -0.0997468 320.23901425 -0.10791647 C328.44590599 -0.11324635 336.65279329 -0.11479027 344.85968663 -0.11350138 C349.57822999 -0.11286764 354.29675824 -0.11376392 359.01529884 -0.11920547 C380.36698987 -0.14265701 401.66506183 0.09745272 423 1 C423 1.33 423 1.66 423 2 C412.22665889 2.86409196 401.54817941 3.1412981 390.74488831 3.12025452 C389.05314856 3.12069162 387.36140889 3.12156908 385.66966957 3.12284368 C381.06311046 3.12506133 376.45657496 3.12110512 371.85001886 3.11606562 C366.86659588 3.11172175 361.88317409 3.11321033 356.89974976 3.1139679 C348.27959951 3.11449065 339.65945688 3.1113699 331.03930855 3.10573006 C318.57622851 3.09758126 306.11315212 3.09499638 293.65006971 3.09374207 C273.42646041 3.09155685 253.20285515 3.08491116 232.97924805 3.07543945 C213.34122742 3.06625161 193.70320789 3.05917749 174.06518555 3.05493164 C172.8534192 3.05466892 171.64165285 3.05440619 170.39316631 3.05413551 C164.31370883 3.05283041 158.23425135 3.05156672 152.15479386 3.05032361 C101.76985898 3.03996751 51.38493159 3.02153811 1 3 C1 43.59 1 84.18 1 126 C0.67 126 0.34 126 0 126 C0 84.42 0 42.84 0 0 Z " fill="#B29792" transform="translate(142,102)"/>
<path d="M0 0 C40.26 0 80.52 0 122 0 C122 106.26 122 212.52 122 322 C13 322 13 322 10 320 C46.3 320 82.6 320 120 320 C120 215.06 120 110.12 120 2 C85.68 2 51.36 2 16 2 C10.72 1.67 5.44 1.34 0 1 C0 0.67 0 0.34 0 0 Z " fill="#9C7066" transform="translate(508,96)"/>
<path d="M0 0 C11.45650016 -0.02312241 22.91299481 -0.04091457 34.36951351 -0.05181217 C39.68865213 -0.05704122 45.00777484 -0.06413927 50.3269043 -0.07543945 C55.45563985 -0.08626755 60.58436006 -0.09227667 65.71310616 -0.09487724 C67.67441614 -0.09673163 69.63572524 -0.10035251 71.59702873 -0.10573006 C74.33415447 -0.11293946 77.07121597 -0.11399099 79.80834961 -0.11352539 C81.03725418 -0.1189183 81.03725418 -0.1189183 82.29098511 -0.12442017 C87.88594784 -0.11405216 87.88594784 -0.11405216 89 1 C89.09715518 2.64203907 89.12371568 4.28828734 89.12304783 5.93319798 C89.12503888 7.00807486 89.12702993 8.08295175 89.12908131 9.19040066 C89.12616847 10.38589989 89.12325563 11.58139913 89.12025452 12.81312561 C89.12110894 14.07171416 89.12196337 15.33030271 89.12284368 16.62703031 C89.12509101 20.13646706 89.12106414 23.64587357 89.11606562 27.15530646 C89.11176469 30.93378364 89.11320729 34.71225898 89.1139679 38.49073792 C89.11449336 45.04252085 89.11134424 51.59429386 89.10573006 58.1460743 C89.09761807 67.61895855 89.09500015 77.09183798 89.09374207 86.56472533 C89.09155107 101.93223172 89.0848897 117.29973282 89.07543945 132.66723633 C89.06626656 147.5992022 89.05918513 162.53116664 89.05493164 177.46313477 C89.05466892 178.38286668 89.05440619 179.30259859 89.05413551 180.25020117 C89.05283051 184.86402448 89.05156679 189.47784779 89.05032361 194.09167111 C89.03994952 232.39445111 89.02232991 270.69722521 89 309 C88.01 308.34 87.02 307.68 86 307 C85.62740451 304.80234611 85.62740451 304.80234611 85.63085651 302.00622368 C85.62488337 300.94328933 85.61891022 299.88035497 85.61275607 298.78521049 C85.6214946 297.60818789 85.63023312 296.43116529 85.63923645 295.21847534 C85.63667318 293.97536657 85.6341099 292.73225781 85.63146895 291.45147908 C85.62736828 287.9897311 85.63679503 284.52848713 85.65180314 281.06679988 C85.66471857 277.33810204 85.66037724 273.60942069 85.65809631 269.88070679 C85.65652072 263.41675984 85.66595968 256.9529035 85.68280983 250.48897934 C85.70715667 241.14316279 85.71500067 231.7973902 85.7187738 222.45154537 C85.72534508 207.28977492 85.74532455 192.12805279 85.77368164 176.96630859 C85.80120474 162.23519127 85.82244687 147.50408705 85.83520508 132.77294922 C85.83599325 131.86542801 85.83678142 130.9579068 85.83759347 130.02288495 C85.84150849 125.47026864 85.84529964 120.91765224 85.84902918 116.36503577 C85.88014615 78.57664759 85.93546054 40.78834878 86 3 C62.57 3 39.14 3 15 3 C15 2.67 15 2.34 15 2 C10.05 1.67 5.1 1.34 0 1 C0 0.67 0 0.34 0 0 Z " fill="#7A5661" transform="translate(535,102)"/>
<path d="M0 0 C3.86434844 3.47791359 6.09445999 6.25721742 6.80859375 11.52734375 C7.2596114 20.83470789 4.20330213 27.77189353 -1.703125 34.9140625 C-8.68196236 42.18556078 -16.75718491 48.13855122 -25.15234375 53.671875 C-25.75264404 54.07204834 -26.35294434 54.47222168 -26.97143555 54.88452148 C-28.66455262 56.00590651 -30.37103228 57.10703841 -32.078125 58.20703125 C-33.27695312 59.21830078 -33.27695312 59.21830078 -34.5 60.25 C-34.5 61.57 -34.5 62.89 -34.5 64.25 C-30.23830671 65.67056443 -25.99912317 65.63461848 -21.53125 65.87109375 C-18.5 66.25 -18.5 66.25 -15.5 68.25 C-23.62163537 70.00602927 -32.21610558 70.68367486 -39.5 66.25 C-40.33984375 64.36328125 -40.33984375 64.36328125 -40.5 62.25 C-37.16931516 56.0446992 -30.46652758 51.74212857 -24.98608398 47.53564453 C-7.92363117 34.90163497 -7.92363117 34.90163497 0.87109375 16.53125 C0.98136281 11.91292247 1.00446957 9.07993381 -1.4375 5.0625 C-5.72340139 2.52594612 -8.64608584 2.10962258 -13.5 3.25 C-42.31081956 15.83577907 -61.14343296 56.66549245 -73.49487305 84.04492188 C-74.0194812 85.19250977 -74.0194812 85.19250977 -74.5546875 86.36328125 C-75.01077393 87.38095581 -75.01077393 87.38095581 -75.47607422 88.41918945 C-76.5793254 90.39183623 -77.83656651 91.73299344 -79.5 93.25 C-79.71984921 88.89579731 -79.28987318 86.07539174 -77.33203125 82.1875 C-76.6203479 80.76147461 -76.6203479 80.76147461 -75.89428711 79.30664062 C-75.37229736 78.29794922 -74.85030762 77.28925781 -74.3125 76.25 C-73.50534546 74.66735352 -73.50534546 74.66735352 -72.68188477 73.05273438 C-64.08797625 56.4137553 -54.49000901 40.41563249 -43.5 25.25 C-43.08153809 24.66395996 -42.66307617 24.07791992 -42.23193359 23.47412109 C-32.95233856 10.54496234 -18.03177816 -9.01588908 0 0 Z " fill="#B0906A" transform="translate(417.5,139.75)"/>
<path d="M0 0 C0.66 0 1.32 0 2 0 C2 0.99 2 1.98 2 3 C-20.54165906 3.03316438 -43.08332005 3.05175341 -65.625 3.0625 C-66.50809294 3.0629343 -67.39118588 3.06336861 -68.30103922 3.06381607 C-145.62020145 3.10074404 -222.93768994 2.82877685 -300.25602043 2.50902146 C-302.44426811 2.49997201 -304.63251585 2.49093428 -306.82076359 2.48189783 C-344.21386911 2.32740216 -381.60694739 2.16683608 -419 2 C-419 1.67 -419 1.34 -419 1 C-418.1159044 1.00037972 -417.23180881 1.00075944 -416.32092243 1.00115067 C-363.98024151 1.02350451 -311.63956109 1.04067428 -259.29887635 1.05106533 C-253.02127238 1.05231611 -246.74366841 1.05361043 -240.46606445 1.05493164 C-239.21624979 1.05519395 -237.96643512 1.05545626 -236.67874729 1.05572652 C-216.41332744 1.06008375 -196.14791042 1.06797159 -175.88249225 1.0771528 C-155.1049496 1.08648786 -134.32740842 1.0920553 -113.54986376 1.09408849 C-100.71791309 1.09546403 -87.8859704 1.09981626 -75.05402219 1.10791647 C-66.26752344 1.11318211 -57.48102885 1.11480471 -48.69452865 1.11350138 C-43.61705618 1.11285771 -38.5395977 1.11387871 -33.46212769 1.11920547 C-28.82182407 1.12403836 -24.18154397 1.12433939 -19.54123931 1.12089889 C-17.85482574 1.12047309 -16.16841075 1.12176976 -14.482 1.12488318 C-12.20500671 1.12884541 -9.92810044 1.1267645 -7.65110874 1.12304783 C-5.74700115 1.12361741 -5.74700115 1.12361741 -3.80442673 1.1241985 C-1.09535735 1.32040058 -1.09535735 1.32040058 0 0 Z " fill="#332976" transform="translate(625,412)"/>
<path d="M0 0 C0.33 0 0.66 0 1 0 C1 59.4 1 118.8 1 180 C32.35 180 63.7 180 96 180 C92.03545607 182.64302929 88.62973181 182.26514283 84.03051758 182.22705078 C83.11324387 182.22734283 82.19597015 182.22763489 81.25090027 182.22793579 C78.2153481 182.22654111 75.1800406 182.21097333 72.14453125 182.1953125 C70.04131708 182.19158286 67.93810117 182.18873566 65.83488464 182.18673706 C60.29626681 182.17909673 54.75775368 182.15944475 49.21917725 182.1373291 C43.56865862 182.11687932 37.91812309 182.1077372 32.26757812 182.09765625 C21.17833938 182.07619928 10.0891784 182.04205847 -1 182 C-1.02333854 158.71311275 -1.04098389 135.42622743 -1.05181217 112.13933086 C-1.05697309 101.32733965 -1.06401192 90.5153557 -1.07543945 79.70336914 C-1.0853925 70.28196753 -1.09185491 60.86057118 -1.09408849 51.43916446 C-1.09539454 46.44852314 -1.09847374 41.45789687 -1.10573006 36.46726036 C-1.11250004 31.77322843 -1.11461495 27.07921778 -1.11310768 22.38518143 C-1.11338357 20.6593915 -1.1153829 18.93360089 -1.11920547 17.20781517 C-1.12415796 14.85728227 -1.12299249 12.50683043 -1.12025452 10.15629578 C-1.12117631 8.8390536 -1.1220981 7.52181143 -1.12304783 6.16465282 C-1 3 -1 3 0 0 Z " fill="#8E6674" transform="translate(136,236)"/>
<path d="M0 0 C0.33 0.66 0.66 1.32 1 2 C5.95214612 1.30790578 5.95214612 1.30790578 10.875 0.4375 C14.93279525 -0.13059134 18.91026011 -0.0817948 23 0 C22.67 0.66 22.34 1.32 22 2 C19.14258915 2.8013619 16.33288557 3.49708506 13.4375 4.125 C12.63119141 4.30675781 11.82488281 4.48851562 10.99414062 4.67578125 C8.99776175 5.12467118 6.9990802 5.56329743 5 6 C5.28875 6.72703125 5.5775 7.4540625 5.875 8.203125 C10.56285014 20.89938579 9.82618166 31.37767873 5 44 C0.99395484 52.51025137 -4.45940417 59.29626005 -11 66 C-12.485 65.505 -12.485 65.505 -14 65 C-12.54069965 61.98457369 -10.91818577 59.11773262 -9.1875 56.25 C-8.65769531 55.36441406 -8.12789063 54.47882813 -7.58203125 53.56640625 C-6.6355766 52.03104649 -5.66214423 50.51112561 -4.63671875 49.02734375 C2.60888099 38.46177881 4.71353148 25.88910964 2.5390625 13.33984375 C2.10100061 11.53998077 1.56456814 9.76427543 1 8 C0.10796875 8.31195313 -0.7840625 8.62390625 -1.703125 8.9453125 C-2.87359375 9.33460938 -4.0440625 9.72390625 -5.25 10.125 C-6.41015625 10.51945312 -7.5703125 10.91390625 -8.765625 11.3203125 C-12 12 -12 12 -14.359375 11.2421875 C-16 10 -16 10 -17 8 C-12.71 6.68 -8.42 5.36 -4 4 C-9.16598634 -2.41294857 -16.6783326 -4.7239145 -24.6875 -5.75 C-25.780625 -5.8325 -26.87375 -5.915 -28 -6 C-20.01236957 -13.98763043 -6.93786389 -5.25295409 0 0 Z " fill="#9D7B67" transform="translate(422,216)"/>
<path d="M0 0 C0 3.51716303 -0.82445585 4.37121748 -3 7 C-2.34 7 -1.68 7 -1 7 C-4.81172831 16.83957772 -20.13579811 23.21480659 -29 28 C-29.80566406 28.46148437 -30.61132812 28.92296875 -31.44140625 29.3984375 C-39.08389292 33.57189978 -47.45358771 35.92463069 -55.77734375 38.34960938 C-57.63907939 38.89438791 -59.49255312 39.46729467 -61.34375 40.046875 C-68.34577943 42.00007268 -75.14946004 42.27100457 -82.375 42.3125 C-83.78519409 42.32095947 -83.78519409 42.32095947 -85.22387695 42.32958984 C-90.52513849 42.27379207 -94.98448977 41.73401249 -100 40 C-99.34 39.01 -98.68 38.02 -98 37 C-95.94726562 36.61523438 -95.94726562 36.61523438 -93.40625 36.59375 C-92.4673291 36.57417236 -91.5284082 36.55459473 -90.56103516 36.53442383 C-89.55089355 36.52306396 -88.54075195 36.5117041 -87.5 36.5 C-54.59922638 35.5467618 -23.02254918 24.39475409 0 0 Z " fill="#E9DCB2" transform="translate(411,274)"/>
<path d="M0 0 C12.4 0 12.4 0 16 3 C17 4 17 4 17.125 6.875 C17 10 17 10 16 13 C16.7425 13.5259375 16.7425 13.5259375 17.5 14.0625 C19.79395236 17.02552179 19.38888282 19.37042697 19 23 C17.16884793 25.61593153 16.09031634 25.96989455 13 27 C8.71 27 4.42 27 0 27 C0 18.09 0 9.18 0 0 Z " fill="#966334" transform="translate(190,336)"/>
<path d="M0 0 C7 0 7 0 8.71264648 1.46875 C9.28607788 2.47421875 9.28607788 2.47421875 9.87109375 3.5 C10.29970703 4.221875 10.72832031 4.94375 11.16992188 5.6875 C11.79737305 6.8321875 11.79737305 6.8321875 12.4375 8 C12.88287109 8.763125 13.32824219 9.52625 13.78710938 10.3125 C14.88131945 12.19501195 15.94381586 14.09589338 17 16 C17.33 10.72 17.66 5.44 18 0 C19.98 0 21.96 0 24 0 C24.02886537 4.31248609 24.04675255 8.62494762 24.0625 12.9375 C24.07087891 14.16919922 24.07925781 15.40089844 24.08789062 16.66992188 C24.09272461 18.4246582 24.09272461 18.4246582 24.09765625 20.21484375 C24.10551147 21.84087524 24.10551147 21.84087524 24.11352539 23.49975586 C24 26 24 26 23 27 C20.625 27.28125 20.625 27.28125 18 27 C16.375 25.53125 16.375 25.53125 15 23.5 C14.50242187 22.778125 14.00484375 22.05625 13.4921875 21.3125 C11.28865934 17.89760819 9.09386447 14.48359753 7 11 C6.93941406 12.07121094 6.87882812 13.14242188 6.81640625 14.24609375 C6.73201463 15.64324391 6.64736594 17.04037857 6.5625 18.4375 C6.52318359 19.14455078 6.48386719 19.85160156 6.44335938 20.58007812 C6.11328125 25.88671875 6.11328125 25.88671875 5 27 C3.35 27 1.7 27 0 27 C0 18.09 0 9.18 0 0 Z " fill="#AC8F6F" transform="translate(254,336)"/>
<path d="M0 0 C6 0 6 0 7.69091797 1.56054688 C8.12033691 2.27275391 8.54975586 2.98496094 8.9921875 3.71875 C9.46914063 4.48574219 9.94609375 5.25273437 10.4375 6.04296875 C10.911875 6.85378906 11.38625 7.66460937 11.875 8.5 C12.37257813 9.31082031 12.87015625 10.12164062 13.3828125 10.95703125 C14.60792737 12.95962287 15.80655987 14.97837187 17 17 C17.33 11.39 17.66 5.78 18 0 C19.65 0 21.3 0 23 0 C23 8.91 23 17.82 23 27 C21.02 27 19.04 27 17 27 C15.06894078 24.70155373 13.7037688 22.75818874 12.25 20.1875 C11.86457031 19.54490234 11.47914063 18.90230469 11.08203125 18.24023438 C10.04074956 16.50176235 9.01942758 14.75137659 8 13 C7.34 12.01 6.68 11.02 6 10 C5.67 15.61 5.34 21.22 5 27 C3.35 27 1.7 27 0 27 C0 18.09 0 9.18 0 0 Z " fill="#AF8D62" transform="translate(494,336)"/>
<path d="M0 0 C6 0 6 0 7.58325195 1.43701172 C7.96441162 2.09459473 8.34557129 2.75217773 8.73828125 3.4296875 C9.37926758 4.49896484 9.37926758 4.49896484 10.03320312 5.58984375 C10.45537109 6.34394531 10.87753906 7.09804688 11.3125 7.875 C11.97475586 8.99455078 11.97475586 8.99455078 12.65039062 10.13671875 C14.17307817 12.7250544 15.65689009 15.31378018 17 18 C17.33 12.06 17.66 6.12 18 0 C19.65 0 21.3 0 23 0 C23 8.91 23 17.82 23 27 C17 27 17 27 15.0234375 25.05859375 C14.47945313 24.19363281 13.93546875 23.32867187 13.375 22.4375 C12.79363281 21.53128906 12.21226562 20.62507813 11.61328125 19.69140625 C9.69038932 16.48348242 7.78612297 13.28646627 6 10 C5.67 15.28 5.34 20.56 5 26 C3.35 26 1.7 26 0 26 C0 17.42 0 8.84 0 0 Z " fill="#E4D4A4" transform="translate(325,336)"/>
<path d="M0 0 C2.31 0 4.62 0 7 0 C16 21.1352459 16 21.1352459 16 27 C14.35 27 12.7 27 11 27 C10.34 25.35 9.68 23.7 9 22 C5.37 21.67 1.74 21.34 -2 21 C-2.66 22.98 -3.32 24.96 -4 27 C-5.65 27 -7.3 27 -9 27 C-7.71011592 20.49194848 -5.8622531 14.57980187 -3.375 8.4375 C-3.05015625 7.61958984 -2.7253125 6.80167969 -2.390625 5.95898438 C-1.59978204 3.97024694 -0.80075781 1.98476601 0 0 Z " fill="#D5C08C" transform="translate(448,336)"/>
<path d="M0 0 C2.31 0 4.62 0 7 0 C16 21.1352459 16 21.1352459 16 27 C14.35 27 12.7 27 11 27 C10.34 25.35 9.68 23.7 9 22 C5.37 21.67 1.74 21.34 -2 21 C-2.66 22.98 -3.32 24.96 -4 27 C-5.65 27 -7.3 27 -9 27 C-8.36352687 20.99896765 -6.12278022 15.69576616 -3.9375 10.125 C-3.37192383 8.66320312 -3.37192383 8.66320312 -2.79492188 7.171875 C-1.86835624 4.77922451 -0.93659209 2.38873946 0 0 Z " fill="#9F7C64" transform="translate(227,336)"/>
<path d="M0 0 C1.134375 0.020625 2.26875 0.04125 3.4375 0.0625 C4.94264646 4.18564058 6.44074372 8.31130702 7.9375 12.4375 C8.36675781 13.613125 8.79601562 14.78875 9.23828125 16 C9.64433594 17.12148438 10.05039062 18.24296875 10.46875 19.3984375 C10.84580078 20.43532715 11.22285156 21.4722168 11.61132812 22.54052734 C12.4375 25.0625 12.4375 25.0625 12.4375 27.0625 C10.7875 27.0625 9.1375 27.0625 7.4375 27.0625 C6.7775 25.0825 6.1175 23.1025 5.4375 21.0625 C1.71007753 21.1321123 -1.90857305 21.2915377 -5.5625 22.0625 C-7.47994593 24.50559577 -7.47994593 24.50559577 -8.5625 27.0625 C-11.1328125 27.21484375 -11.1328125 27.21484375 -13.5625 27.0625 C-11.83422783 20.7558226 -9.72552164 14.62144941 -7.4375 8.5 C-7.17179199 7.78521484 -6.90608398 7.07042969 -6.63232422 6.33398438 C-4.26780486 0.07487377 -4.26780486 0.07487377 0 0 Z " fill="#CEB688" transform="translate(301.5625,335.9375)"/>
<path d="M0 0 C2.31 0 4.62 0 7 0 C7.20157715 0.51908936 7.4031543 1.03817871 7.61083984 1.57299805 C8.53196813 3.94459917 9.45348079 6.31605076 10.375 8.6875 C10.69210937 9.50412109 11.00921875 10.32074219 11.3359375 11.16210938 C11.8 12.35610352 11.8 12.35610352 12.2734375 13.57421875 C12.57217773 14.34685059 12.87091797 15.11948242 13.17871094 15.91552734 C13.82949895 17.56725981 14.52099916 19.20294391 15.2265625 20.83203125 C16 23 16 23 16 27 C14.35 27 12.7 27 11 27 C10.34 25.35 9.68 23.7 9 22 C5.37 22 1.74 22 -2 22 C-2.99 24.475 -2.99 24.475 -4 27 C-5.65 27 -7.3 27 -9 27 C-7.71011592 20.49194848 -5.8622531 14.57980187 -3.375 8.4375 C-3.05015625 7.61958984 -2.7253125 6.80167969 -2.390625 5.95898438 C-1.59978204 3.97024694 -0.80075781 1.98476601 0 0 Z " fill="#EDE5B0" transform="translate(368,336)"/>
<path d="M0 0 C3.09541443 0.29480137 3.61728242 1.01920268 5.625 3.25 C4.8815332 3.53609131 4.13806641 3.82218262 3.37207031 4.11694336 C-12.07304925 10.07723642 -27.4040497 16.16180792 -42.375 23.25 C-43.09075195 23.58596191 -43.80650391 23.92192383 -44.54394531 24.26806641 C-52.76916672 28.15335639 -60.53969594 32.37349824 -68.03662109 37.54492188 C-69.44669519 38.50201229 -70.9071234 39.38416554 -72.375 40.25 C-73.035 39.92 -73.695 39.59 -74.375 39.25 C-71.735 37.27 -69.095 35.29 -66.375 33.25 C-68.025 33.91 -69.675 34.57 -71.375 35.25 C-68.00483471 31.49393792 -64.25327088 29.1337855 -59.9375 26.625 C-59.20321777 26.19550049 -58.46893555 25.76600098 -57.71240234 25.32348633 C-49.258427 20.47413092 -40.46752194 16.35189871 -31.6171875 12.28515625 C-29.77850618 11.43628769 -27.95019233 10.56499631 -26.125 9.6875 C-20.30524501 6.9161881 -14.37027675 4.80836508 -8.23486328 2.86010742 C-5.3426789 1.93952324 -2.87724762 0.30286817 0 0 Z " fill="#E5DAB3" transform="translate(404.375,224.75)"/>
<path d="M0 0 C2.02937467 0.85102809 3.97387582 1.82048196 5.9375 2.8125 C5.32003906 3.02003906 4.70257813 3.22757813 4.06640625 3.44140625 C-15.35279645 10.50562154 -25.42928603 28.25139208 -36.0625 44.8125 C-36.63081543 45.68938477 -37.19913086 46.56626953 -37.78466797 47.46972656 C-45.73722655 59.77874343 -52.64721615 72.38618694 -58.99316406 85.59326172 C-60.32057839 88.34810105 -61.68597112 91.08193454 -63.0625 93.8125 C-63.3925 93.8125 -63.7225 93.8125 -64.0625 93.8125 C-64.28234921 89.45829731 -63.85237318 86.63789174 -61.89453125 82.75 C-61.1828479 81.32397461 -61.1828479 81.32397461 -60.45678711 79.86914062 C-59.93479736 78.86044922 -59.41280762 77.85175781 -58.875 76.8125 C-58.06784546 75.22985352 -58.06784546 75.22985352 -57.24438477 73.61523438 C-48.65047625 56.9762553 -39.05250901 40.97813249 -28.0625 25.8125 C-27.64403809 25.22645996 -27.22557617 24.64041992 -26.79443359 24.03662109 C-8.95821832 -0.81438348 -8.95821832 -0.81438348 0 0 Z " fill="#EBE1BC" transform="translate(402.0625,139.1875)"/>
<path d="M0 0 C23.60288048 -0.02350106 47.20575918 -0.04106281 70.80864906 -0.05181217 C81.77119974 -0.05693894 92.73374309 -0.06391146 103.69628906 -0.07543945 C113.26627558 -0.08549815 122.83625679 -0.09187964 132.40624845 -0.09408849 C137.45978986 -0.09537688 142.51331609 -0.09834097 147.56685257 -0.10573006 C170.06742282 -0.13739477 192.51785516 0.0175579 215 1 C215 1.33 215 1.66 215 2 C201.49815592 3.21955207 188.01856519 3.12829264 174.47265625 3.09765625 C172.02786793 3.09578761 169.58307923 3.09436581 167.13829041 3.09336853 C160.75158628 3.08957849 154.36490546 3.07977881 147.97821045 3.06866455 C141.44185705 3.05837429 134.90549982 3.0538547 128.36914062 3.04882812 C115.57941723 3.03815288 102.78970986 3.02131588 90 3 C90 2.67 90 2.34 90 2 C60.3 1.67 30.6 1.34 0 1 C0 0.67 0 0.34 0 0 Z " fill="#9F8A85" transform="translate(350,102)"/>
<path d="M0 0 C3.0625 2 3.0625 2 5 4 C4.67 5.32 4.34 6.64 4 8 C2.68 8 1.36 8 0 8 C-0.33 7.34 -0.66 6.68 -1 6 C-3.32156597 5.59270772 -5.6568787 5.25561323 -8 5 C-7.87616537 6.95507094 -7.87616537 6.95507094 -7 9 C-4.79238025 10.25208751 -4.79238025 10.25208751 -2.125 11.0625 C1.30185157 12.22643064 3.7422312 13.09403306 6 16 C6.68944734 19.96432218 6.32427783 21.51881355 4.0625 24.875 C0.02344461 27.67760986 -3.21002414 27.81403883 -8 27 C-11.28034807 25.72000938 -11.95789043 25.06316435 -14 22 C-14 21.01 -14 20.02 -14 19 C-12.35 18.67 -10.7 18.34 -9 18 C-8.34 18.99 -7.68 19.98 -7 21 C-3.91634129 21.2502157 -3.91634129 21.2502157 -1 21 C-1.1646782 19.04938135 -1.1646782 19.04938135 -2 17 C-3.97491412 15.75408616 -3.97491412 15.75408616 -6.375 14.9375 C-9.55868555 13.72935874 -11.91175638 12.76405061 -14 10 C-13.93526873 6.375049 -13.7511751 3.97026784 -11.5 1.0625 C-7.67401837 -0.56354219 -4.0877868 -0.69099599 0 0 Z " fill="#906149" transform="translate(569,336)"/>
<path d="M0 0 C0.33 0 0.66 0 1 0 C1 11.88 1 23.76 1 36 C32.35 36 63.7 36 96 36 C92.03545607 38.64302929 88.62973181 38.26514283 84.03051758 38.22705078 C83.11324387 38.22734283 82.19597015 38.22763489 81.25090027 38.22793579 C78.2153481 38.22654111 75.1800406 38.21097333 72.14453125 38.1953125 C70.04131708 38.19158286 67.93810117 38.18873566 65.83488464 38.18673706 C60.29626681 38.17909673 54.75775368 38.15944475 49.21917725 38.1373291 C43.56865862 38.11687932 37.91812309 38.1077372 32.26757812 38.09765625 C21.17833938 38.07619928 10.0891784 38.04205847 -1 38 C-1.02475064 33.23112363 -1.04288403 28.46228479 -1.05493164 23.69335938 C-1.05995505 22.07160796 -1.06677494 20.44986105 -1.07543945 18.828125 C-1.08759229 16.49478031 -1.09324828 14.1614956 -1.09765625 11.828125 C-1.10281754 11.10506165 -1.10797882 10.38199829 -1.11329651 9.63702393 C-1.11366918 6.2798725 -1.04907619 3.20893892 0 0 Z " fill="#AA7E77" transform="translate(136,380)"/>
<path d="M0 0 C0.99 0 1.98 0 3 0 C2.28853578 6.5716827 0.51902639 12.7682457 -1.25 19.125 C-3.53938526 27.47031105 -5.73041382 35.82037711 -7.6875 44.25 C-9.54571536 52.24860337 -11.63416026 60.13589583 -14 68 C-16.27756566 60.02047451 -14.90809062 52.11666306 -12.953125 44.22265625 C-12.74065125 43.33066025 -12.52817749 42.43866425 -12.30926514 41.51963806 C-11.86064876 39.64696672 -11.40657708 37.77559447 -10.94726562 35.90551758 C-10.25335143 33.07616504 -9.57846983 30.24277921 -8.90625 27.40820312 C-3.06626075 3.06626075 -3.06626075 3.06626075 0 0 Z " fill="#D7C897" transform="translate(358,131)"/>
<path d="M0 0 C13 0 13 0 18 3 C19.61154539 6.22309078 19.58553263 9.51435871 19 13 C17.0625 15.5 17.0625 15.5 14 17 C10.96693712 17.30432069 8.03570795 17.23809474 5 17 C5.33 15.68 5.66 14.36 6 13 C8.31 12.34 10.62 11.68 13 11 C12.67 9.35 12.34 7.7 12 6 C9.69 5.67 7.38 5.34 5 5 C5 7.31 5 9.62 5 12 C4.67 11.34 4.34 10.68 4 10 C3.34 10 2.68 10 2 10 C2 15.28 2 20.56 2 26 C1.34 26 0.68 26 0 26 C0 17.42 0 8.84 0 0 Z " fill="#E1D1AD" transform="translate(411,336)"/>
<path d="M0 0 C-1.13313307 3.39939921 -1.6350797 3.63552806 -4.5 5.5 C-11.76905156 10.75205347 -18.42261353 18.30132065 -21 27 C-21.47751281 29.99530765 -21.80100737 32.97393964 -22 36 C-15.11175931 38.40990104 -15.11175931 38.40990104 -8 40 C-8.33 40.99 -8.66 41.98 -9 43 C-12.54930064 43.92957874 -14.55849173 44.15317634 -18.0625 42.9375 C-22.05084258 40.30689106 -25.34925495 37.78665823 -26.484375 32.92578125 C-27.14093154 22.47558964 -19.43641384 14.42757262 -13 7 C-4.64285714 -2.32142857 -4.64285714 -2.32142857 0 0 Z " fill="#895E4D" transform="translate(324,270)"/>
<path d="M0 0 C0 3 0 3 -1.75 5.04296875 C-2.4925 5.75066406 -3.235 6.45835937 -4 7.1875 C-4.7425 7.90292969 -5.485 8.61835938 -6.25 9.35546875 C-6.8275 9.89816406 -7.405 10.44085938 -8 11 C-7.34 11.66 -6.68 12.32 -6 13 C-12.97299463 19.03337124 -19.87936625 24.44013095 -27.796875 29.2109375 C-28.52390625 29.80132812 -29.2509375 30.39171875 -30 31 C-30 32.32 -30 33.64 -30 35 C-25.73830671 36.42056443 -21.49912317 36.38461848 -17.03125 36.62109375 C-14 37 -14 37 -11 39 C-19.12163537 40.75602927 -27.71610558 41.43367486 -35 37 C-35.83984375 35.11328125 -35.83984375 35.11328125 -36 33 C-32.67340752 26.80232354 -25.97607418 22.48752443 -20.49267578 18.29663086 C-13.21520722 12.70936937 -6.43483207 6.54243796 0 0 Z " fill="#E3D8A6" transform="translate(413,169)"/>
<path d="M0 0 C5.94 0 11.88 0 18 0 C18 1.65 18 3.3 18 5 C16.02 5 14.04 5 12 5 C12 11.93 12 18.86 12 26 C10.35 26.33 8.7 26.66 7 27 C6 26 6 26 5.88647461 23.95874023 C5.89171143 23.08419189 5.89694824 22.20964355 5.90234375 21.30859375 C5.90556641 20.36435547 5.90878906 19.42011719 5.91210938 18.44726562 C5.92048828 17.45404297 5.92886719 16.46082031 5.9375 15.4375 C5.94201172 14.44041016 5.94652344 13.44332031 5.95117188 12.41601562 C5.96299993 9.94395151 5.97948151 7.47200482 6 5 C4.02 5 2.04 5 0 5 C0 3.35 0 1.7 0 0 Z " fill="#A37A52" transform="translate(528,336)"/>
<path d="M0 0 C3.39772808 5.09659212 1.99960029 11.14294653 1 17 C0.02770446 21.0367552 -1.09571454 25.0312182 -2.35961914 28.98632812 C-3.68264694 33.4170213 -4.05439946 36.77935604 -3.43359375 41.3828125 C-2.66854292 47.62945255 -4.25141057 52.37851283 -6.4375 58.1875 C-6.77587891 59.13947266 -7.11425781 60.09144531 -7.46289062 61.07226562 C-8.28953818 63.38920737 -9.13509965 65.69712666 -10 68 C-10.33 68 -10.66 68 -11 68 C-10.55110117 64.3339929 -9.97794242 60.92474472 -8.9375 57.375 C-8.10072596 54.36261345 -7.81257606 52.09249501 -8 49 C-8.66 49 -9.32 49 -10 49 C-10.33 49.66 -10.66 50.32 -11 51 C-10.43301788 44.97210439 -9.49673774 39.30902681 -7.96875 33.45703125 C-7.77277222 32.6849382 -7.57679443 31.91284515 -7.37487793 31.11735535 C-6.75557736 28.6809168 -6.12830325 26.24663094 -5.5 23.8125 C-4.87296638 21.3673585 -4.24770365 18.92178858 -3.62512207 16.47550964 C-3.23956339 14.96217203 -2.85129251 13.44952186 -2.45983887 11.93769836 C-1.44633953 7.97703598 -0.60554891 4.04346568 0 0 Z " fill="#C3AE85" transform="translate(342,188)"/>
<path d="M0 0 C0 0.66 0 1.32 0 2 C0.66 2.33 1.32 2.66 2 3 C1.01 3.33 0.02 3.66 -1 4 C-1 4.66 -1 5.32 -1 6 C-7.8336255 7.76804274 -14.08056655 8.30782025 -21.125 8.25 C-22.07503906 8.25773437 -23.02507812 8.26546875 -24.00390625 8.2734375 C-29.39509539 8.25848275 -33.90383699 7.77871618 -39 6 C-38.34 5.01 -37.68 4.02 -37 3 C-34.85205078 2.59936523 -34.85205078 2.59936523 -32.1953125 2.55859375 C-31.22424561 2.53337646 -30.25317871 2.50815918 -29.25268555 2.48217773 C-28.22054932 2.46743408 -27.18841309 2.45269043 -26.125 2.4375 C-18.59785489 2.23318263 -11.40527104 1.88105421 -4.01171875 0.40234375 C-2 0 -2 0 0 0 Z " fill="#BB9E70" transform="translate(350,308)"/>
<path d="M0 0 C0.66 0.33 1.32 0.66 2 1 C1.44960074 5.48534322 -0.25986836 8.18633229 -2.8125 11.875 C-11.48234429 24.80471832 -18.07718119 39.08611991 -25 53 C-25.33 53 -25.66 53 -26 53 C-26.21984921 48.64579731 -25.78987318 45.82539174 -23.83203125 41.9375 C-23.35677002 40.98560791 -22.88150879 40.03371582 -22.3918457 39.05297852 C-21.87066162 38.04549561 -21.34947754 37.0380127 -20.8125 36 C-20.28164795 34.95577881 -19.7507959 33.91155762 -19.20385742 32.83569336 C-4.71104116 4.71104116 -4.71104116 4.71104116 0 0 Z " fill="#E5DBB4" transform="translate(364,180)"/>
<path d="M0 0 C1.98 0 3.96 0 6 0 C6.66 2.31 7.32 4.62 8 7 C7.34 7.66 6.68 8.32 6 9 C5.63168919 10.93257855 5.63168919 10.93257855 5.5859375 13.1328125 C5.54726563 13.93847656 5.50859375 14.74414062 5.46875 15.57421875 C5.4378125 16.41597656 5.406875 17.25773437 5.375 18.125 C5.33632813 18.97449219 5.29765625 19.82398438 5.2578125 20.69921875 C5.16343506 22.79911684 5.08062414 24.89952891 5 27 C3.35 27 1.7 27 0 27 C0 18.09 0 9.18 0 0 Z " fill="#BA9B69" transform="translate(494,336)"/>
<path d="M0 0 C2.97 0 5.94 0 9 0 C9 0.99 9 1.98 9 3 C9.66 3 10.32 3 11 3 C12.32 5.64 13.64 8.28 15 11 C16.57265794 9.42734206 16.30757977 7.67159971 16.5 5.5 C16.88888889 1.11111111 16.88888889 1.11111111 18 0 C21.5 -0.125 21.5 -0.125 25 0 C27.68718873 2.68718873 26.54389976 10.30537119 26.6875 13.9375 C26.74744141 15.15630859 26.80738281 16.37511719 26.86914062 17.63085938 C26.91619141 18.79294922 26.96324219 19.95503906 27.01171875 21.15234375 C27.05772217 22.22476318 27.10372559 23.29718262 27.15112305 24.40209961 C27 27 27 27 25 29 C21.375 29.125 21.375 29.125 18 29 C18 28.67 18 28.34 18 28 C19.98 28 21.96 28 24 28 C24 19.09 24 10.18 24 1 C22.35 1 20.7 1 19 1 C19 7.27 19 13.54 19 20 C16.60777324 17.60777324 15.46692069 16.29858725 13.984375 13.4609375 C13.61957031 12.79835938 13.25476563 12.13578125 12.87890625 11.453125 C12.12653927 10.06814495 11.38946179 8.67474889 10.66796875 7.2734375 C9.56229112 5.30093943 8.56156207 3.63819633 7 2 C3.33826604 0.91603123 3.33826604 0.91603123 0 1 C0 0.67 0 0.34 0 0 Z " fill="#422F5E" transform="translate(324,335)"/>
<path d="M0 0 C1.65 0 3.3 0 5 0 C6.2319332 3.19426159 7.46176992 6.38928917 8.6875 9.5859375 C9.45140165 11.57299121 10.21989054 13.55831582 11 15.5390625 C12.15826425 18.51268321 13 20.7776491 13 24 C12.01 23.67 11.02 23.34 10 23 C10 22.34 10 21.68 10 21 C9.34 21 8.68 21 8 21 C8 20.01 8 19.02 8 18 C3.545 17.01 3.545 17.01 -1 16 C-0.40075776 11.80530429 0.57499941 7.99000166 2 4 C1.34 4 0.68 4 0 4 C0 2.68 0 1.36 0 0 Z " fill="#CFB87B" transform="translate(449,337)"/>
<path d="M0 0 C2.46375014 3.97379056 2.62427077 7.18587619 2.796875 11.796875 C2.67683892 14.08540123 2.67683892 14.08540123 3.9375 15.125 C4.20207 18.63055249 4.36877166 21.23849714 2.8125 24.4375 C-1.92873912 28.70461521 -7.63109794 28.35761529 -13.671875 28.390625 C-16.0625 28.125 -16.0625 28.125 -18.0625 26.125 C-18.28955078 23.32763672 -18.28955078 23.32763672 -18.2578125 19.8046875 C-18.25136719 18.54785156 -18.24492187 17.29101562 -18.23828125 15.99609375 C-18.22152344 14.67738281 -18.20476562 13.35867188 -18.1875 12 C-18.17746983 10.66016279 -18.16834404 9.32031848 -18.16015625 7.98046875 C-18.13652075 4.69513427 -18.10357234 1.41015535 -18.0625 -1.875 C-11.6299089 -3.23790524 -5.75817302 -3.52541205 0 0 Z M-17.0625 -0.875 C-17.0625 8.035 -17.0625 16.945 -17.0625 26.125 C-4.94857602 27.2397408 -4.94857602 27.2397408 0.9375 23.125 C2.31125369 21.96854174 2.31125369 21.96854174 2.1875 18.8125 C1.93087817 15.02732794 1.50045176 13.79474142 -1.0625 11.125 C-0.7325 10.465 -0.4025 9.805 -0.0625 9.125 C0.36592753 4.95183426 0.36592753 4.95183426 -1.375 1.3125 C-6.40696581 -2.22851298 -10.34086381 -0.875 -17.0625 -0.875 Z " fill="#341A56" transform="translate(207.0625,336.875)"/>
<path d="M0 0 C1.66666667 0 3.33333333 0 5 0 C6.00605593 2.60197202 7.00502525 5.20629362 8 7.8125 C8.28617188 8.55048828 8.57234375 9.28847656 8.8671875 10.04882812 C9.13789063 10.76103516 9.40859375 11.47324219 9.6875 12.20703125 C10.06455078 13.18893433 10.06455078 13.18893433 10.44921875 14.19067383 C11 16 11 16 11 19 C10.01 18.67 9.02 18.34 8 18 C8 17.34 8 16.68 8 16 C4.37 15.34 0.74 14.68 -3 14 C-3.40652968 8.57960425 -2.03993514 4.92984325 0 0 Z " fill="#A87F4E" transform="translate(230,342)"/>
<path d="M0 0 C0 3.51716303 -0.82445585 4.37121748 -3 7 C-2.34 7 -1.68 7 -1 7 C-3.98357944 14.87879361 -15.08552376 20.27683763 -22.0625 24.3203125 C-24.42708442 25.14982397 -25.67168818 24.82114569 -28 24 C-24.25 21 -24.25 21 -22 21 C-22 20.01 -22 19.02 -22 18 C-20.3828125 16.7109375 -20.3828125 16.7109375 -18.125 15.375 C-11.36556785 11.10757369 -5.59433938 5.68457066 0 0 Z " fill="#DDCB9B" transform="translate(411,274)"/>
<path d="M0 0 C1.65 0 3.3 0 5 0 C5 8.91 5 17.82 5 27 C3.35 27 1.7 27 0 27 C0 18.09 0 9.18 0 0 Z " fill="#C5AA7B" transform="translate(475,336)"/>
<path d="M0 0 C3.375 -0.125 3.375 -0.125 7 0 C7.66 0.66 8.32 1.32 9 2 C8.44444444 6.55555556 8.44444444 6.55555556 7 8 C5.00041636 8.04080783 2.99954746 8.04254356 1 8 C1.01160156 8.92683594 1.02320313 9.85367187 1.03515625 10.80859375 C1.04417969 12.00613281 1.05320312 13.20367187 1.0625 14.4375 C1.07410156 15.63246094 1.08570313 16.82742188 1.09765625 18.05859375 C1 21 1 21 0 22 C-1.66617115 22.04063832 -3.33388095 22.042721 -5 22 C-4.34 21.67 -3.68 21.34 -3 21 C-3 15.72 -3 10.44 -3 5 C-2.34 5 -1.68 5 -1 5 C-0.67 3.35 -0.34 1.7 0 0 Z " fill="#CEBF86" transform="translate(416,341)"/>
<path d="M0 0 C1.65 0 3.3 0 5 0 C6.38489368 4.95484183 5.89120615 9.74589148 5.5625 14.8125 C5.51029297 15.69615234 5.45808594 16.57980469 5.40429688 17.49023438 C5.27525381 19.66050408 5.13840044 21.83030693 5 24 C3.35 24 1.7 24 0 24 C0 16.08 0 8.16 0 0 Z " fill="#AB8A57" transform="translate(255,338)"/>
<path d="M0 0 C2 2 2 2 3 5 C3.66 5.33 4.32 5.66 5 6 C4.67 4.02 4.34 2.04 4 0 C6.05998371 3.08997556 7.28294093 5.98032444 8.625 9.4375 C9.07101562 10.57058594 9.51703125 11.70367187 9.9765625 12.87109375 C11 16 11 16 11 20 C9.35 20 7.7 20 6 20 C5.34 18.35 4.68 16.7 4 15 C0.37 14.67 -3.26 14.34 -7 14 C-7 13.67 -7 13.34 -7 13 C-5.02 12.67 -3.04 12.34 -1 12 C-2.32 11.34 -3.64 10.68 -5 10 C-2.69 10 -0.38 10 2 10 C1.505 8.63875 1.505 8.63875 1 7.25 C0 4 0 4 0 0 Z " fill="#F3E8B6" transform="translate(373,343)"/>
<path d="M0 0 C1.65 0.33 3.3 0.66 5 1 C5.33 3.31 5.66 5.62 6 8 C5.34 8 4.68 8 4 8 C4.66 10.64 5.32 13.28 6 16 C3.03 16.33 0.06 16.66 -3 17 C-4.50717296 10.09212392 -3.3284547 6.17121215 0 0 Z " fill="#CAAF72" transform="translate(299,337)"/>
<path d="M0 0 C7 0 7 0 9.03125 2.01171875 C9.5159375 2.89472656 10.000625 3.77773438 10.5 4.6875 C11.0053125 5.55761719 11.510625 6.42773438 12.03125 7.32421875 C13 10 13 10 12.4921875 12.53515625 C11.74882229 15.04574209 11.74882229 15.04574209 13.0390625 17.421875 C13.56242187 18.19015625 14.08578125 18.9584375 14.625 19.75 C15.13289063 20.52859375 15.64078125 21.3071875 16.1640625 22.109375 C18.38451218 24.39596573 19.87977287 24.68052282 23 25 C23 25.66 23 26.32 23 27 C20.68359375 27.20703125 20.68359375 27.20703125 18 27 C12.71624595 22.46921336 8.66681618 14.32659582 6 8 C5.8359375 5.16796875 5.8359375 5.16796875 6 3 C4.35 2.67 2.7 2.34 1 2 C1 9.92 1 17.84 1 26 C2.32 26.33 3.64 26.66 5 27 C3.35 27 1.7 27 0 27 C0 18.09 0 9.18 0 0 Z " fill="#AE9075" transform="translate(254,336)"/>
<path d="M0 0 C3.09541443 0.29480137 3.61728242 1.01920268 5.625 3.25 C3.27460987 4.23916033 0.92033139 5.21636681 -1.4375 6.1875 C-2.42266602 6.60418945 -2.42266602 6.60418945 -3.42773438 7.02929688 C-7.7624242 8.80160848 -11.70721992 9.63236634 -16.375 10.25 C-19.15360132 11.21132181 -19.15360132 11.21132181 -21.6875 12.375 C-24.23828125 13.5078125 -24.23828125 13.5078125 -26.375 14.25 C-27.035 13.92 -27.695 13.59 -28.375 13.25 C-26.41914675 12.24515796 -24.46023763 11.24626195 -22.5 10.25 C-21.40945313 9.693125 -20.31890625 9.13625 -19.1953125 8.5625 C-16.375 7.25 -16.375 7.25 -14.375 7.25 C-14.045 6.26 -13.715 5.27 -13.375 4.25 C-11.125 3.3359375 -11.125 3.3359375 -8.375 2.625 C-5.40844356 1.84122231 -2.87395353 0.30252142 0 0 Z " fill="#CDB78F" transform="translate(404.375,224.75)"/>
<path d="M0 0 C0.33 0.66 0.66 1.32 1 2 C0.0625 4.125 0.0625 4.125 -1 6 C-0.34 6 0.32 6 1 6 C1.33 5.34 1.66 4.68 2 4 C1.45697694 8.40008388 -0.13021364 11.02184888 -2.75 14.5625 C-3.76320313 15.95662109 -3.76320313 15.95662109 -4.796875 17.37890625 C-6.99418662 19.99308373 -9.2653459 21.96813288 -12 24 C-12.66 23.67 -13.32 23.34 -14 23 C-10.07771509 14.9149127 -5.05025253 7.41420052 0 0 Z " fill="#B59772" transform="translate(422,258)"/>
<path d="M0 0 C0.99 0 1.98 0 3 0 C2.3212527 6.19464308 0.6957044 11.96939552 -1.0625 17.9375 C-1.48499023 19.3925293 -1.48499023 19.3925293 -1.91601562 20.87695312 C-2.60646466 23.25256591 -3.30122001 25.62682705 -4 28 C-7.02185243 22.42959732 -6.60954928 18.1443856 -4.9140625 12.1796875 C-1.47882401 1.47882401 -1.47882401 1.47882401 0 0 Z " fill="#D9CA9A" transform="translate(358,131)"/>
<path d="M0 0 C-1.12992855 3.38978565 -1.58387222 3.59441244 -4.4375 5.4375 C-10.33783223 9.64590393 -14.54508441 15.35832411 -19 21 C-19.66 20.67 -20.32 20.34 -21 20 C-19.66441042 12.41453608 -11.92747514 4.64249801 -6 0 C-2.51254089 -1.25627045 -2.51254089 -1.25627045 0 0 Z " fill="#A68160" transform="translate(324,270)"/>
<path d="M0 0 C0.66 0.33 1.32 0.66 2 1 C2.31630104 4.47931145 2.35518036 6.42283191 0.5 9.4375 C-3.29164377 11.80727736 -5.68713368 10.91913544 -10 10 C-11 9 -11 9 -11.1875 6.0625 C-11 3 -11 3 -9 1 C-5.9375 0.8125 -5.9375 0.8125 -3 1 C-2 2 -2 2 -1.9375 4.5625 C-1.958125 5.366875 -1.97875 6.17125 -2 7 C-1.34 7 -0.68 7 0 7 C0 4.69 0 2.38 0 0 Z " fill="#93654B" transform="translate(205,339)"/>
<path d="M0 0 C2.475 0.495 2.475 0.495 5 1 C6.8125 4.0625 6.8125 4.0625 8 7 C7.35546875 7.17273438 6.7109375 7.34546875 6.046875 7.5234375 C3.59554118 8.92982628 3.59554118 8.92982628 3.390625 12.4765625 C3.32418219 13.858573 3.2780748 15.2416781 3.25 16.625 C3.20552734 17.68460937 3.20552734 17.68460937 3.16015625 18.765625 C3.08944643 20.50980047 3.04245965 22.25490827 3 24 C2.01 24 1.02 24 0 24 C0 16.08 0 8.16 0 0 Z " fill="#D8C67E" transform="translate(326,337)"/>
<path d="M0 0 C1.40742022 2.81484045 0.66652164 4.56936113 0.0625 7.625 C-0.13214844 8.62789063 -0.32679688 9.63078125 -0.52734375 10.6640625 C-0.68332031 11.43492187 -0.83929688 12.20578125 -1 13 C-1.66 13 -2.32 13 -3 13 C-3.03738281 13.72445313 -3.07476562 14.44890625 -3.11328125 15.1953125 C-3.49860998 20.86191152 -3.984536 25.14903618 -7 30 C-8.32 30 -9.64 30 -11 30 C-11 23.73 -11 17.46 -11 11 C-13.31 13.31 -15.62 15.62 -18 18 C-18 15 -18 15 -15.8125 12.73828125 C-14.4203125 11.53751953 -14.4203125 11.53751953 -13 10.3125 C-11.6078125 9.10013672 -11.6078125 9.10013672 -10.1875 7.86328125 C-9.1046875 6.94095703 -9.1046875 6.94095703 -8 6 C-6.72260899 8.55478201 -7.11504074 9.7670575 -7.55859375 12.5703125 C-7.69716797 13.46621094 -7.83574219 14.36210937 -7.97851562 15.28515625 C-8.20571289 16.69087891 -8.20571289 16.69087891 -8.4375 18.125 C-8.58509766 19.06988281 -8.73269531 20.01476562 -8.88476562 20.98828125 C-9.25084635 23.32647427 -9.62282086 25.66357596 -10 28 C-9.01 28 -8.02 28 -7 28 C-6.84180786 27.10075806 -6.84180786 27.10075806 -6.68041992 26.18334961 C-6.19149305 23.4331028 -5.6896026 20.68537061 -5.1875 17.9375 C-5.02185547 16.99455078 -4.85621094 16.05160156 -4.68554688 15.08007812 C-3.68514889 9.66282865 -2.40226197 4.96283919 0 0 Z " fill="#3F2554" transform="translate(330,266)"/>
<path d="M0 0 C11 0 11 0 15 2 C10.98522302 4.00738849 5.18278768 1.7564616 1 1 C1 8.92 1 16.84 1 25 C5.29 25 9.58 25 14 25 C14 24.34 14 23.68 14 23 C14.99 23 15.98 23 17 23 C17 20.36 17 17.72 17 15 C17.66 15.33 18.32 15.66 19 16 C19.36658354 22.47630923 19.36658354 22.47630923 17.6875 24.875 C12.05857463 28.62761691 7.46260662 27 0 27 C0 18.09 0 9.18 0 0 Z " fill="#875C55" transform="translate(190,336)"/>
<path d="M0 0 C0 3 0 3 -1.75 5.04296875 C-2.4925 5.75066406 -3.235 6.45835937 -4 7.1875 C-4.7425 7.90292969 -5.485 8.61835938 -6.25 9.35546875 C-6.8275 9.89816406 -7.405 10.44085938 -8 11 C-7.34 11.66 -6.68 12.32 -6 13 C-7.88368434 14.68239749 -9.7798993 16.34510607 -11.6875 18 C-12.21794922 18.47695312 -12.74839844 18.95390625 -13.29492188 19.4453125 C-15.85725565 21.64608997 -17.48830763 22.94475656 -20.89453125 23.3125 C-21.58933594 23.209375 -22.28414063 23.10625 -23 23 C-20.70867234 18.53029745 -17.60493037 15.71825969 -13.75 12.625 C-8.89728269 8.63519805 -4.34643205 4.54859168 0 0 Z " fill="#CDB489" transform="translate(413,169)"/>
<path d="M0 0 C0.33 0 0.66 0 1 0 C1.35802776 6.20581444 0.31145065 11.37850484 -1.34375 17.36328125 C-2.12076035 20.0323381 -2.12076035 20.0323381 -2 23 C-1.01 21.02 -0.02 19.04 1 17 C1.66 17.33 2.32 17.66 3 18 C-0.3 24.6 -3.6 31.2 -7 38 C-7.33 38 -7.66 38 -8 38 C-7.3875846 30.68163603 -5.85303423 23.84747075 -4 16.75 C-3.45736102 14.64087492 -2.91565979 12.5315083 -2.375 10.421875 C-2.13523437 9.49987305 -1.89546875 8.57787109 -1.6484375 7.62792969 C-1.02367716 5.09595667 -0.49067431 2.56099588 0 0 Z " fill="#432E5B" transform="translate(345,191)"/>
<path d="M0 0 C2.4375 1.125 2.4375 1.125 5 3 C7.14677197 8.98029334 4.60276246 14.20376197 2.5625 19.875 C2.22412109 20.84953125 1.88574219 21.8240625 1.53710938 22.828125 C0.70349707 25.22329276 -0.14243768 27.61332488 -1 30 C-1.33 30 -1.66 30 -2 30 C-1.55110117 26.3339929 -0.97794242 22.92474472 0.0625 19.375 C0.89927404 16.36261345 1.18742394 14.09249501 1 11 C0.34 11 -0.32 11 -1 11 C-1.33 11.66 -1.66 12.32 -2 13 C-1.85769192 11.58297487 -1.71099254 10.1663904 -1.5625 8.75 C-1.48128906 7.96109375 -1.40007812 7.1721875 -1.31640625 6.359375 C-1.02365007 4.17635361 -0.57935581 2.1226818 0 0 Z " fill="#BEA37B" transform="translate(333,226)"/>
<path d="M0 0 C0.33 0 0.66 0 1 0 C1 1.98 1 3.96 1 6 C3.97 6 6.94 6 10 6 C8 8 8 8 4.375 8.125 C3.26125 8.08375 2.1475 8.0425 1 8 C0.690625 8.969375 0.38125 9.93875 0.0625 10.9375 C-1 14 -1 14 -2 15 C-3.66617115 15.04063832 -5.33388095 15.042721 -7 15 C-6.54803755 13.39402675 -6.08817673 11.79027492 -5.625 10.1875 C-5.36976563 9.29417969 -5.11453125 8.40085937 -4.8515625 7.48046875 C-3.78400537 4.37084133 -2.31755848 2.31755848 0 0 Z " fill="#C5AA6D" transform="translate(295,348)"/>
<path d="M0 0 C1.13377769 3.39688882 0.84962999 5.66913644 0.03125 9.12890625 C-0.20706543 10.15193848 -0.44538086 11.1749707 -0.69091797 12.22900391 C-0.95791504 13.32905762 -1.22491211 14.42911133 -1.5 15.5625 C-1.76828613 16.69606934 -2.03657227 17.82963867 -2.31298828 18.99755859 C-5.35191197 31.71291743 -8.651856 44.36307113 -12 57 C-12.33 57 -12.66 57 -13 57 C-13.04241723 54.66705225 -13.04092937 52.33297433 -13 50 C-12.505 49.505 -12.505 49.505 -12 49 C-11.835 47.845 -11.67 46.69 -11.5 45.5 C-11 42 -11 42 -10 41 C-9.87625 39.845 -9.7525 38.69 -9.625 37.5 C-9.2821537 34.48341721 -8.69263626 31.85635103 -7.66015625 29.00390625 C-5.68005832 23.23832699 -4.25729654 17.35581473 -2.8125 11.4375 C-2.53986328 10.33341797 -2.26722656 9.22933594 -1.98632812 8.09179688 C-1.32096233 5.39531443 -0.65892926 2.69806115 0 0 Z " fill="#3C2554" transform="translate(342,184)"/>
<path d="M0 0 C0.47308594 0.43441406 0.94617188 0.86882812 1.43359375 1.31640625 C1.43359375 2.30640625 1.43359375 3.29640625 1.43359375 4.31640625 C1.76359375 4.97640625 2.09359375 5.63640625 2.43359375 6.31640625 C-0.10201135 5.0993158 -2.46516064 3.77376209 -4.87890625 2.31640625 C-10.77752086 -1.05960934 -16.90695531 -1.98259891 -23.56640625 -2.68359375 C-17.05384402 -9.19615598 -6.52123012 -4.05511191 0 0 Z " fill="#C4AF8E" transform="translate(417.56640625,212.68359375)"/>
<path d="M0 0 C0 0.99 0 1.98 0 3 C-0.94101562 3.53109375 -1.88203125 4.0621875 -2.8515625 4.609375 C-4.10944172 5.32279904 -5.36725047 6.03634735 -6.625 6.75 C-7.24246094 7.09804688 -7.85992187 7.44609375 -8.49609375 7.8046875 C-12.44826266 10.05118351 -16.24591788 12.43567314 -20 15 C-20.66 14.67 -21.32 14.34 -22 14 C-19.36 12.02 -16.72 10.04 -14 8 C-15.65 8.66 -17.3 9.32 -19 10 C-16.2421007 7.07013007 -13.49608589 4.84506936 -10.0625 2.75 C-9.22847656 2.22921875 -8.39445312 1.7084375 -7.53515625 1.171875 C-4.78528175 -0.09925343 -2.99117275 -0.23544115 0 0 Z " fill="#C8AE90" transform="translate(352,250)"/>
<path d="M0 0 C0 0.66 0 1.32 0 2 C0.66 2.33 1.32 2.66 2 3 C1.01 3.33 0.02 3.66 -1 4 C-1 4.66 -1 5.32 -1 6 C-4.9813783 7.3271261 -8.85045227 7.06915913 -13 7 C-11.68 6.34 -10.36 5.68 -9 5 C-14.94 4.67 -20.88 4.34 -27 4 C-27 3.67 -27 3.34 -27 3 C-25.69804687 2.86722656 -24.39609375 2.73445313 -23.0546875 2.59765625 C-21.32811487 2.41936886 -19.60155293 2.24097798 -17.875 2.0625 C-17.0190625 1.97548828 -16.163125 1.88847656 -15.28125 1.79882812 C-10.23218751 1.2745024 -5.0498013 0 0 0 Z " fill="#CBB489" transform="translate(350,308)"/>
<path d="M0 0 C-0.5700053 6.40455391 -1.68287669 12.32045203 -3.4375 18.5 C-3.76331055 19.71429688 -3.76331055 19.71429688 -4.09570312 20.953125 C-4.66428532 22.9884102 -5.32480596 24.99755536 -6 27 C-6.66 27.33 -7.32 27.66 -8 28 C-8.08995547 24.76160292 -7.81049695 22.11816187 -7 19 C-5.25528402 10.57498929 -5.25528402 10.57498929 -5 2 C-1.125 0 -1.125 0 0 0 Z " fill="#BB9E5D" transform="translate(335,236)"/>
<path d="M0 0 C0.66 0.99 1.32 1.98 2 3 C-1.19677903 6.19677903 -4.43947648 8.33224469 -8.5 10.3125 C-9.2528125 10.67988281 -10.005625 11.04726562 -10.78125 11.42578125 C-13 12 -13 12 -15.28125 11.10546875 C-15.8484375 10.74066406 -16.415625 10.37585938 -17 10 C-13.43312878 6.95591696 -9.90489084 4.78917799 -5.6875 2.75 C-4.61886719 2.22921875 -3.55023438 1.7084375 -2.44921875 1.171875 C-1.64097656 0.78515625 -0.83273437 0.3984375 0 0 Z " fill="#E0D4A8" transform="translate(366,240)"/>
<path d="M0 0 C2 1 2 1 3.1015625 3.0625 C4.22349555 6.73073328 4.38268413 10.19806284 4.375 14 C4.37483887 14.74459473 4.37467773 15.48918945 4.37451172 16.25634766 C4.21044203 24.33030344 2.5243769 32.21343465 -2 39 C-2.66 39 -3.32 39 -4 39 C-3.54554036 37.58208592 -3.08625056 36.16571954 -2.625 34.75 C-2.36976563 33.96109375 -2.11453125 33.1721875 -1.8515625 32.359375 C-1 30 -1 30 0.03881836 28.15307617 C1.15243854 25.65853302 1.24399638 23.91417423 1.23046875 21.19140625 C1.22853516 20.27939453 1.22660156 19.36738281 1.22460938 18.42773438 C1.21236328 17.48220703 1.20011719 16.53667969 1.1875 15.5625 C1.18685547 14.62083984 1.18621094 13.67917969 1.18554688 12.70898438 C1.15764567 8.31609512 0.96105824 4.30199388 0 0 Z " fill="#AA8545" transform="translate(425,225)"/>
<path d="M0 0 C1.32 0 2.64 0 4 0 C4 7.92 4 15.84 4 24 C3.67 24 3.34 24 3 24 C2.67 21.36 2.34 18.72 2 16 C1.34 16.33 0.68 16.66 0 17 C0 11.39 0 5.78 0 0 Z " fill="#C1A068" transform="translate(273,337)"/>
<path d="M0 0 C1.2065625 0.0309375 1.2065625 0.0309375 2.4375 0.0625 C2.1075 1.0525 1.7775 2.0425 1.4375 3.0625 C0.4475 3.3925 -0.5425 3.7225 -1.5625 4.0625 C-2.75601312 7.40579469 -2.75601312 7.40579469 -3.5625 11.0625 C-3.76875 11.805 -3.975 12.5475 -4.1875 13.3125 C-4.66726454 15.25311327 -4.66726454 15.25311327 -4.5625 18.0625 C-5.5525 18.3925 -6.5425 18.7225 -7.5625 19.0625 C-7.5625 20.3825 -7.5625 21.7025 -7.5625 23.0625 C-8.5525 23.0625 -9.5425 23.0625 -10.5625 23.0625 C-9.7966687 18.27605435 -8.18777804 13.85867866 -6.5625 9.3125 C-6.28921875 8.53261719 -6.0159375 7.75273437 -5.734375 6.94921875 C-3.29744662 0.08042553 -3.29744662 0.08042553 0 0 Z " fill="#A4783F" transform="translate(230.5625,337.9375)"/>
<path d="M0 0 C0.33 0 0.66 0 1 0 C1 6.6 1 13.2 1 20 C1.99 20 2.98 20 4 20 C4 13.73 4 7.46 4 1 C4.66 0.67 5.32 0.34 6 0 C6 6.93 6 13.86 6 21 C4.35 21.33 2.7 21.66 1 22 C0 21 0 21 -0.11352539 18.95874023 C-0.10828857 18.08419189 -0.10305176 17.20964355 -0.09765625 16.30859375 C-0.09443359 15.36435547 -0.09121094 14.42011719 -0.08789062 13.44726562 C-0.07951172 12.45404297 -0.07113281 11.46082031 -0.0625 10.4375 C-0.05798828 9.44041016 -0.05347656 8.44332031 -0.04882812 7.41601562 C-0.03700007 4.94395151 -0.02051849 2.47200482 0 0 Z " fill="#936E5E" transform="translate(534,341)"/>
<path d="M0 0 C1.10424805 1.72241211 1.10424805 1.72241211 2 4 C1.44848633 6.15063477 1.44848633 6.15063477 0.33203125 8.44140625 C-0.06693359 9.27220703 -0.46589844 10.10300781 -0.87695312 10.95898438 C-1.30943359 11.81814453 -1.74191406 12.67730469 -2.1875 13.5625 C-2.60064453 14.42552734 -3.01378906 15.28855469 -3.43945312 16.17773438 C-5.29452925 19.97341477 -6.84144197 23.12956715 -10 26 C-10.84372123 19.65099777 -7.86628147 15.05544137 -5 9.625 C-4.52304687 8.69816406 -4.04609375 7.77132812 -3.5546875 6.81640625 C-2.3804821 4.53844777 -1.19543221 2.26687013 0 0 Z " fill="#D0B797" transform="translate(348,207)"/>
<path d="M0 0 C3 1 3 1 4 3 C4.45693563 8.36899365 4.45693563 8.36899365 2.6875 10.8125 C-1.03208297 13.42998431 -4.61765212 13.08268581 -9 13 C-8.67 12.01 -8.34 11.02 -8 10 C-4.4375 8.8125 -4.4375 8.8125 -1 8 C-1.33 6.02 -1.66 4.04 -2 2 C-1.34 2 -0.68 2 0 2 C0 1.34 0 0.68 0 0 Z " fill="#DBCB8A" transform="translate(425,339)"/>
<path d="M0 0 C2.31 0 4.62 0 7 0 C16 21.1352459 16 21.1352459 16 27 C14.35 27 12.7 27 11 27 C10.67 25.35 10.34 23.7 10 22 C11.32 22.99 12.64 23.98 14 25 C13.67386719 24.10539062 13.34773438 23.21078125 13.01171875 22.2890625 C10.46577857 15.24454365 8.04356271 8.21061966 6 1 C4.35 1 2.7 1 1 1 C0.67 1.99 0.34 2.98 0 4 C-0.33 3.34 -0.66 2.68 -1 2 C-0.67 1.34 -0.34 0.68 0 0 Z " fill="#C8B298" transform="translate(448,336)"/>
<path d="M0 0 C0.66 0.33 1.32 0.66 2 1 C1.38125 1.226875 0.7625 1.45375 0.125 1.6875 C-2.18595062 2.81414712 -2.18595062 2.81414712 -2.8125 5.1875 C-4.57935751 9.37216251 -7.72820883 11.9256445 -11 15 C-13.68636558 17.62666857 -15.91585694 19.87378541 -18 23 C-18.66 22.67 -19.32 22.34 -20 22 C-7.09090909 4.72727273 -7.09090909 4.72727273 0 0 Z " fill="#402C5F" transform="translate(395,147)"/>
<path d="M0 0 C0 3.51716303 -0.82445585 4.37121748 -3 7 C-2.34 7 -1.68 7 -1 7 C-2.5885342 11.28904235 -5.43127368 13.32345526 -9 16 C-9.66 16 -10.32 16 -11 16 C-10.62310484 10.53101059 -8.88820181 8.32565739 -4.9375 4.625 C-4.01839844 3.75101562 -3.09929687 2.87703125 -2.15234375 1.9765625 C-1.44207031 1.32429688 -0.73179687 0.67203125 0 0 Z " fill="#CDB285" transform="translate(411,274)"/>
<path d="M0 0 C0.66 0 1.32 0 2 0 C2 0.66 2 1.32 2 2 C8.88824069 4.40990104 8.88824069 4.40990104 16 6 C15.67 6.99 15.34 7.98 15 9 C11.36429416 9.95220867 9.39889273 10.14078567 5.8125 8.875 C2.76969733 6.84646489 1.52045288 5.29431457 0 2 C0 1.34 0 0.68 0 0 Z " fill="#99704A" transform="translate(300,304)"/>
<path d="M0 0 C2.02937467 0.85102809 3.97387582 1.82048196 5.9375 2.8125 C5.27363281 3.06644531 4.60976563 3.32039062 3.92578125 3.58203125 C-0.63517141 5.35980404 -4.9678441 7.0827294 -9.0625 9.8125 C-9.7225 9.1525 -10.3825 8.4925 -11.0625 7.8125 C-5.02793779 -0.45708525 -5.02793779 -0.45708525 0 0 Z " fill="#D7C39A" transform="translate(402.0625,139.1875)"/>
<path d="M0 0 C0.66 0.33 1.32 0.66 2 1 C2 7.27 2 13.54 2 20 C1.01 20 0.02 20 -1 20 C-1.02888514 16.85418577 -1.04675923 13.70840531 -1.0625 10.5625 C-1.07087891 9.66466797 -1.07925781 8.76683594 -1.08789062 7.84179688 C-1.09111328 6.98779297 -1.09433594 6.13378906 -1.09765625 5.25390625 C-1.10551147 4.06776733 -1.10551147 4.06776733 -1.11352539 2.85766602 C-1 1 -1 1 0 0 Z " fill="#A67C43" transform="translate(536,341)"/>
<path d="M0 0 C2.31 0 4.62 0 7 0 C7.33 0.99 7.66 1.98 8 3 C10.01508358 3.73323796 10.01508358 3.73323796 12 4 C11.67 5.32 11.34 6.64 11 8 C7.7 7.01 4.4 6.02 1 5 C0.67 3.35 0.34 1.7 0 0 Z " fill="#413368" transform="translate(561,341)"/>
<path d="M0 0 C2.64 0.33 5.28 0.66 8 1 C8 1.33 8 1.66 8 2 C6.02 2 4.04 2 2 2 C2 9.92 2 17.84 2 26 C1.34 26 0.68 26 0 26 C0 17.42 0 8.84 0 0 Z " fill="#EDE2B9" transform="translate(411,336)"/>
<path d="M0 0 C-0.33 0.66 -0.66 1.32 -1 2 C-3.46207518 2.80502219 -5.86825139 3.49598315 -8.375 4.125 C-9.06078125 4.30675781 -9.7465625 4.48851562 -10.453125 4.67578125 C-13.38130529 5.43346214 -15.96334729 6 -19 6 C-19 5.34 -19 4.68 -19 4 C-19.66 3.67 -20.32 3.34 -21 3 C-13.82140651 0.95938459 -7.47394574 -0.37369729 0 0 Z " fill="#A8805E" transform="translate(445,216)"/>
<path d="M0 0 C3.375 -0.125 3.375 -0.125 7 0 C7.66 0.66 8.32 1.32 9 2 C8.46428571 5.53571429 8.46428571 5.53571429 7 7 C4.66702567 7.04092937 2.33294775 7.04241723 0 7 C0 4.69 0 2.38 0 0 Z " fill="#3B2244" transform="translate(195,351)"/>
<path d="M0 0 C2.97 0 5.94 0 9 0 C9 0.99 9 1.98 9 3 C9.66 3 10.32 3 11 3 C12.32 5.64 13.64 8.28 15 11 C16.58272601 9.41727399 16.34735747 7.61965997 16.5625 5.4375 C16.64628906 4.61121094 16.73007812 3.78492188 16.81640625 2.93359375 C16.90728516 1.97646484 16.90728516 1.97646484 17 1 C17.33 1 17.66 1 18 1 C18 6.61 18 12.22 18 18 C14.57704873 14.57704873 12.51324679 10.81727713 10.3125 6.5625 C9.2354194 4.56071127 9.2354194 4.56071127 7 2 C3.35467382 0.99664835 3.35467382 0.99664835 0 1 C0 0.67 0 0.34 0 0 Z " fill="#311D52" transform="translate(324,335)"/>
<path d="M0 0 C2 2 2 2 2 5 C2.66 5 3.32 5 4 5 C4.20496094 5.71027344 4.40992188 6.42054688 4.62109375 7.15234375 C4.89050781 8.07144531 5.15992188 8.99054688 5.4375 9.9375 C5.83775391 11.31228516 5.83775391 11.31228516 6.24609375 12.71484375 C6.79026051 14.9402493 6.79026051 14.9402493 8 16 C8.04063832 17.66617115 8.042721 19.33388095 8 21 C8.66 21 9.32 21 10 21 C10 22.98 10 24.96 10 27 C7.625 27.625 7.625 27.625 5 28 C4.34 27.34 3.68 26.68 3 26 C4.65 26 6.3 26 8 26 C7.79318604 25.42556152 7.58637207 24.85112305 7.37329102 24.25927734 C6.43111349 21.63303356 5.49675321 19.00407264 4.5625 16.375 C4.23701172 15.47136719 3.91152344 14.56773437 3.57617188 13.63671875 C1.9707273 9.10175159 0.56680166 4.8058394 0 0 Z " fill="#361C56" transform="translate(235,337)"/>
<path d="M0 0 C0.99 0 1.98 0 3 0 C3 7.59 3 15.18 3 23 C2.67 23 2.34 23 2 23 C1.87625 22.030625 1.7525 21.06125 1.625 20.0625 C1.315625 18.5465625 1.315625 18.5465625 1 17 C0.34 16.67 -0.32 16.34 -1 16 C-0.67 10.72 -0.34 5.44 0 0 Z " fill="#E2D489" transform="translate(344,338)"/>
<path d="M0 0 C-2.74653804 1.83102536 -4.83096596 2.75964629 -7.9375 3.75 C-8.79214844 4.03359375 -9.64679688 4.3171875 -10.52734375 4.609375 C-13.46116514 5.07285389 -14.581706 4.66629654 -17 3 C-17.33 2.34 -17.66 1.68 -18 1 C-11.76647981 -1.3548854 -6.54311329 -0.87557031 0 0 Z " fill="#BA9E73" transform="translate(423,223)"/>
<path d="M0 0 C2.875 -0.125 2.875 -0.125 6 0 C6.66 0.66 7.32 1.32 8 2 C7.625 4.625 7.625 4.625 7 7 C4.69 7 2.38 7 0 7 C0 4.69 0 2.38 0 0 Z " fill="#2B1B43" transform="translate(417,341)"/>
<path d="M0 0 C1.53166168 4.08443115 0.63081652 7.79455657 0 12 C0.66 11.01 1.32 10.02 2 9 C1.85904936 10.6254308 1.71207913 12.25034051 1.5625 13.875 C1.48128906 14.77992188 1.40007812 15.68484375 1.31640625 16.6171875 C1 19 1 19 0 21 C-0.99 21 -1.98 21 -3 21 C-3.22551601 14.1217616 -2.63948157 7.70153052 -1 1 C-0.67 0.67 -0.34 0.34 0 0 Z " fill="#AD8E70" transform="translate(323,273)"/>
<path d="M0 0 C0.18930677 8.89741799 -0.85622605 16.63637496 -4 25 C-4.33 25 -4.66 25 -5 25 C-5.0272415 23.58344207 -5.04650467 22.16672955 -5.0625 20.75 C-5.07410156 19.96109375 -5.08570313 19.1721875 -5.09765625 18.359375 C-5.00338861 16.08186884 -4.55011864 14.20047457 -4 12 C-4.00521084 10.66602596 -4.04697069 9.33170016 -4.125 8 C-4.17429143 5.06442162 -4.0779048 4.13548661 -2.5625 1.5 C-1 0 -1 0 0 0 Z " fill="#B39053" transform="translate(327,265)"/>
<path d="M0 0 C0.33 1.32 0.66 2.64 1 4 C1.61488281 4.12117188 2.22976563 4.24234375 2.86328125 4.3671875 C3.67152344 4.53476562 4.47976563 4.70234375 5.3125 4.875 C6.11300781 5.03742188 6.91351562 5.19984375 7.73828125 5.3671875 C10 6 10 6 13 8 C12.67 8.66 12.34 9.32 12 10 C7.3072192 9.53992345 3.70154745 9.04833319 0 6 C-0.875 3.375 -0.875 3.375 -1 1 C-0.67 0.67 -0.34 0.34 0 0 Z " fill="#97643B" transform="translate(558,341)"/>
<path d="M0 0 C2.45823172 3.68734758 3.01242616 6.69699971 4 11 C1.36 11 -1.28 11 -4 11 C-3.5247412 9.35303396 -3.04468109 7.70745272 -2.5625 6.0625 C-2.29566406 5.14597656 -2.02882813 4.22945313 -1.75390625 3.28515625 C-1 1 -1 1 0 0 Z " fill="#402F54" transform="translate(301,342)"/>
<path d="M0 0 C0.66 0.33 1.32 0.66 2 1 C0.61219205 4.89006773 -1.2152227 7.96558708 -3.625 11.3125 C-4.25664062 12.19550781 -4.88828125 13.07851562 -5.5390625 13.98828125 C-6.02117187 14.65214844 -6.50328125 15.31601563 -7 16 C-8 13 -8 13 -7.4375 10.8125 C-5.4151182 6.85566605 -2.74624408 3.48030303 0 0 Z " fill="#EFE6C3" transform="translate(373,167)"/>
<path d="M0 0 C0.66 0 1.32 0 2 0 C2.33 0.99 2.66 1.98 3 3 C2.34 3 1.68 3 1 3 C0.67 4.32 0.34 5.64 0 7 C-0.33 6.01 -0.66 5.02 -1 4 C-3.70844881 9.73290915 -3.70844881 9.73290915 -4 16 C-4.99 15.34 -5.98 14.68 -7 14 C-6.33989524 11.15449988 -5.48275034 8.47674001 -4.4375 5.75 C-4.03337891 4.69039063 -4.03337891 4.69039063 -3.62109375 3.609375 C-3.41613281 3.07828125 -3.21117187 2.5471875 -3 2 C-2.01 2 -1.02 2 0 2 C0 1.34 0 0.68 0 0 Z M-6 16 C-3.03 16.33 -0.06 16.66 3 17 C3 17.33 3 17.66 3 18 C-0.3 18 -3.6 18 -7 18 C-6.67 17.34 -6.34 16.68 -6 16 Z " fill="#A57D60" transform="translate(232,339)"/>
<path d="M0 0 C2 1 2 1 3.125 3.8125 C4 7 4 7 4 11 C1.69 11 -0.62 11 -3 11 C-2.32829194 7.1936543 -1.27253436 3.64793184 0 0 Z " fill="#3C274E" transform="translate(230,342)"/>
<path d="M0 0 C5.0302076 0.52537724 10.01885239 1.10594786 15 2 C15 2.66 15 3.32 15 4 C8.73960391 4.93213141 3.97802937 5.20927172 -2 3 C-1.34 2.01 -0.68 1.02 0 0 Z " fill="#AE895B" transform="translate(313,311)"/>
<path d="M0 0 C3.36338044 3.36338044 4 6.28835716 4 11 C1.69 11 -0.62 11 -3 11 C-2.44894091 7.0507432 -1.61064629 3.65079826 0 0 Z " fill="#483551" transform="translate(451,342)"/>
<path d="M0 0 C3.15473719 0.35052635 4.8233534 0.86519076 7.375 2.8125 C7.91125 3.534375 8.4475 4.25625 9 5 C8.67 6.32 8.34 7.64 8 9 C4.7 8.34 1.4 7.68 -2 7 C-0.68 5.68 0.64 4.36 2 3 C1.34 2.01 0.68 1.02 0 0 Z " fill="#A88866" transform="translate(417,215)"/>
<path d="M0 0 C2.3129482 2.3129482 2.49580975 3.47904875 3.125 6.625 C3.29257812 7.44226563 3.46015625 8.25953125 3.6328125 9.1015625 C3.81457031 10.04128906 3.81457031 10.04128906 4 11 C1.69 11 -0.62 11 -3 11 C-2.44894091 7.0507432 -1.61064629 3.65079826 0 0 Z " fill="#362A5C" transform="translate(371,342)"/>
<path d="M0 0 C3.63 0 7.26 0 11 0 C11.66 1.98 12.32 3.96 13 6 C12.01 5.34 11.02 4.68 10 4 C10 3.34 10 2.68 10 2 C8.54052295 2.06006078 7.08220728 2.1488689 5.625 2.25 C4.81289062 2.29640625 4.00078125 2.3428125 3.1640625 2.390625 C0.81557017 2.77707925 0.81557017 2.77707925 -0.125 5 C-0.41375 5.66 -0.7025 6.32 -1 7 C-3.625 7.75 -3.625 7.75 -6 8 C-6.33 7.34 -6.66 6.68 -7 6 C-6.21625 5.938125 -5.4325 5.87625 -4.625 5.8125 C-3.75875 5.544375 -2.8925 5.27625 -2 5 C-1.34 3.35 -0.68 1.7 0 0 Z " fill="#3A1F50" transform="translate(225,357)"/>
<path d="M0 0 C0.99 0.33 1.98 0.66 3 1 C3.66 0.67 4.32 0.34 5 0 C4.125 7.875 4.125 7.875 3 9 C1.33382885 9.04063832 -0.33388095 9.042721 -2 9 C-1.34 6.03 -0.68 3.06 0 0 Z " fill="#D0BC80" transform="translate(441,354)"/>
<path d="M0 0 C3.3540808 2.68523184 4.29781637 5.96041741 5.6875 9.9375 C6.12449219 11.16339844 6.56148437 12.38929688 7.01171875 13.65234375 C8 17 8 17 8 21 C6.35 21 4.7 21 3 21 C2.67 19.35 2.34 17.7 2 16 C3.32 16.99 4.64 17.98 6 19 C5.65066406 18.04738281 5.30132812 17.09476562 4.94140625 16.11328125 C4.48158334 14.84642221 4.02195838 13.5794913 3.5625 12.3125 C3.21735352 11.37374023 3.21735352 11.37374023 2.86523438 10.41601562 C1.61946333 6.96757692 0.60195551 3.6186521 0 0 Z " fill="#A17D6E" transform="translate(235,342)"/>
<path d="M0 0 C1.32 0 2.64 0 4 0 C4.33 0.99 4.66 1.98 5 3 C4.34 3 3.68 3 3 3 C2.67 3.66 2.34 4.32 2 5 C-0.0390625 5.78125 -0.0390625 5.78125 -2.625 6.5 C-3.5221875 6.75394531 -4.419375 7.00789062 -5.34375 7.26953125 C-6.2203125 7.51058594 -7.096875 7.75164062 -8 8 C-9.37533113 8.39468129 -10.75038642 8.79032681 -12.125 9.1875 C-13.548125 9.5896875 -13.548125 9.5896875 -15 10 C-12.725306 7.44736912 -10.56797307 6.15855185 -7.4375 4.8125 C-6.65246094 4.46832031 -5.86742187 4.12414062 -5.05859375 3.76953125 C-3 3 -3 3 -1 3 C-0.67 2.01 -0.34 1.02 0 0 Z " fill="#DBCE8D" transform="translate(391,229)"/>
<path d="M0 0 C0.33 0 0.66 0 1 0 C1 1.65 1 3.3 1 5 C1.99 5 2.98 5 4 5 C3.34 7.31 2.68 9.62 2 12 C0.35 12 -1.3 12 -3 12 C-2.68950274 10.56206608 -2.3765224 9.1246682 -2.0625 7.6875 C-1.88847656 6.88699219 -1.71445312 6.08648437 -1.53515625 5.26171875 C-1 3 -1 3 0 0 Z " fill="#E4D9A2" transform="translate(362,351)"/>
<path d="M0 0 C0.66 0.33 1.32 0.66 2 1 C2 4 2 4 0.5390625 5.82421875 C-0.09257812 6.43910156 -0.72421875 7.05398437 -1.375 7.6875 C-2.00148438 8.31011719 -2.62796875 8.93273437 -3.2734375 9.57421875 C-5 11 -5 11 -7 11 C-7.33 10.01 -7.66 9.02 -8 8 C-5.36 5.36 -2.72 2.72 0 0 Z " fill="#D9CCAA" transform="translate(390,146)"/>
<path d="M0 0 C10.74171562 -0.68808143 10.74171562 -0.68808143 14.6875 1.8125 C15.450625 2.534375 16.21375 3.25625 17 4 C17 4.99 17 5.98 17 7 C16.195625 6.34 15.39125 5.68 14.5625 5 C12.41038085 2.89745486 12.41038085 2.89745486 11 3 C11.33 3.66 11.66 4.32 12 5 C6.06 4.01 6.06 4.01 0 3 C0 2.01 0 1.02 0 0 Z " fill="#C0A57D" transform="translate(403,138)"/>
<path d="M0 0 C1.62276158 2.43414237 2.61744792 4.31319446 3.625 7 C3.88539063 7.680625 4.14578125 8.36125 4.4140625 9.0625 C5 11 5 11 5 14 C4.01 13.67 3.02 13.34 2 13 C2 12.34 2 11.68 2 11 C1.34 11 0.68 11 0 11 C0 10.01 0 9.02 0 8 C-0.66 7.67 -1.32 7.34 -2 7 C-1.125 2.25 -1.125 2.25 0 0 Z " fill="#CBB273" transform="translate(457,347)"/>
<path d="M0 0 C2.66015625 -0.4921875 2.66015625 -0.4921875 6 0 C8.2981406 2.32834872 9.82057681 5.04719711 11.4375 7.875 C12.12489258 8.99455078 12.12489258 8.99455078 12.82617188 10.13671875 C15.23325847 14.16668274 15.23325847 14.16668274 16 16 C15.67 16.66 15.34 17.32 15 18 C13.02 15.36 11.04 12.72 9 10 C8.34 10.66 7.68 11.32 7 12 C6.67 10.68 6.34 9.36 6 8 C6.66 7.67 7.32 7.34 8 7 C6.84434349 4.46115547 6.84434349 4.46115547 5 2 C2.40877257 1.11341534 2.40877257 1.11341534 0 1 C0 0.67 0 0.34 0 0 Z " fill="#DAC8A8" transform="translate(325,336)"/>
<path d="M0 0 C6.85479859 0.2492654 11.90844028 2.26202082 17 7 C17 7.99 17 8.98 17 10 C12.8922935 11.58706842 11.40767604 12.10191901 7 11 C9.64 10.34 12.28 9.68 15 9 C12.02434724 5.62759353 9.50002811 4.16667604 5.25 2.75 C4.26515625 2.41484375 3.2803125 2.0796875 2.265625 1.734375 C1.51796875 1.49203125 0.7703125 1.2496875 0 1 C0 0.67 0 0.34 0 0 Z " fill="#442F58" transform="translate(401,211)"/>
<path d="M0 0 C3.13807951 1.08209638 3.96907788 1.94731786 5.6875 4.875 C6.70723884 7.30294962 7.36815532 9.47262128 8 12 C8.66 12.66 9.32 13.32 10 14 C7.21626422 13.64295563 6.1872036 13.21167746 4.296875 11.07421875 C3.53117187 9.89279297 3.53117187 9.89279297 2.75 8.6875 C1.96882813 7.51767578 1.96882813 7.51767578 1.171875 6.32421875 C0 4 0 4 0 0 Z " fill="#BA9762" transform="translate(265,347)"/>
<path d="M0 0 C3.16074764 1.58037382 3.54298175 4.76378948 4.625 7.9375 C4.85445313 8.58396484 5.08390625 9.23042969 5.3203125 9.89648438 C7 14.71058873 7 14.71058873 7 17 C5.35 17 3.7 17 2 17 C1.67 15.35 1.34 13.7 1 12 C1.33 12.99 1.66 13.98 2 15 C2.66 15 3.32 15 4 15 C3.79503906 14.33613281 3.59007812 13.67226563 3.37890625 12.98828125 C2.97478516 11.66376953 2.97478516 11.66376953 2.5625 10.3125 C2.29566406 9.44238281 2.02882813 8.57226562 1.75390625 7.67578125 C1.03655471 5.12974079 0.482459 2.5996577 0 0 Z " fill="#C9B59A" transform="translate(307,346)"/>
<path d="M0 0 C0.66 0 1.32 0 2 0 C2.33 2.31 2.66 4.62 3 7 C4.65 7 6.3 7 8 7 C7.67 7.66 7.34 8.32 7 9 C4.03 9 1.06 9 -2 9 C-1.34 6.03 -0.68 3.06 0 0 Z " fill="#EBE199" transform="translate(365,347)"/>
<path d="M0 0 C1.98 0 3.96 0 6 0 C6.38218767 1.65614657 6.71395102 3.32457024 7 5 C6 6 6 6 2.9375 6.0625 C1.4834375 6.0315625 1.4834375 6.0315625 0 6 C0 4.02 0 2.04 0 0 Z " fill="#3B213A" transform="translate(195,341)"/>
<path d="M0 0 C2.79872437 2.52788007 4.45773019 4.20411134 5 8 C4.01 7.67 3.02 7.34 2 7 C2.55880859 7.93972656 2.55880859 7.93972656 3.12890625 8.8984375 C3.60199219 9.71570313 4.07507813 10.53296875 4.5625 11.375 C5.27599609 12.59316406 5.27599609 12.59316406 6.00390625 13.8359375 C6.33261719 14.55007813 6.66132813 15.26421875 7 16 C6.67 16.66 6.34 17.32 6 18 C-0.83318386 8.57668161 -0.83318386 8.57668161 -1.2421875 4.7109375 C-0.9375 2.8125 -0.9375 2.8125 0 0 Z " fill="#B19173" transform="translate(501,339)"/>
<path d="M0 0 C0.66 0.99 1.32 1.98 2 3 C0.44499019 6.81684226 -2.03595495 9.19195732 -5 12 C-5.68359375 10.265625 -5.68359375 10.265625 -6 8 C-4.78515625 5.859375 -4.78515625 5.859375 -3.0625 3.75 C-2.49660156 3.04359375 -1.93070312 2.3371875 -1.34765625 1.609375 C-0.90292969 1.07828125 -0.45820313 0.5471875 0 0 Z " fill="#9C714F" transform="translate(309,279)"/>
<path d="M0 0 C0.66 0.33 1.32 0.66 2 1 C2 2.32 2 3.64 2 5 C-0.75 7.3125 -0.75 7.3125 -4 9 C-6.375 8.75 -6.375 8.75 -8 8 C-5.58443874 4.80800833 -3.31996462 2.25283313 0 0 Z " fill="#D8C595" transform="translate(398,183)"/>
<path d="M0 0 C-1.5830577 4.2742558 -4.50568404 6.26531794 -8 9 C-8.99 8.34 -9.98 7.68 -11 7 C-9.73742767 5.82439821 -8.46462916 4.65977135 -7.1875 3.5 C-6.12595703 2.52546875 -6.12595703 2.52546875 -5.04296875 1.53125 C-3 0 -3 0 0 0 Z " fill="#BEA271" transform="translate(415,173)"/>
<path d="M0 0 C1.32 1.32 2.64 2.64 4 4 C3.67 4.66 3.34 5.32 3 6 C2.7724985 7.87056791 2.59037189 9.74685958 2.4375 11.625 C2.35371094 12.62789063 2.26992188 13.63078125 2.18359375 14.6640625 C2.12300781 15.43492187 2.06242187 16.20578125 2 17 C1.34 17 0.68 17 0 17 C0 11.39 0 5.78 0 0 Z " fill="#432B50" transform="translate(499,345)"/>
<path d="M0 0 C1.14680101 3.44040303 0.87124738 4.00270384 -0.43359375 7.23046875 C-0.75263672 8.03291016 -1.07167969 8.83535156 -1.40039062 9.66210938 C-1.74263672 10.49548828 -2.08488281 11.32886719 -2.4375 12.1875 C-2.77587891 13.03248047 -3.11425781 13.87746094 -3.46289062 14.74804688 C-4.30025552 16.83556216 -5.14620197 18.91916409 -6 21 C-6.33 21 -6.66 21 -7 21 C-7.19622241 16.78121808 -6.80230168 13.82989106 -5 10 C-4.34 10 -3.68 10 -3 10 C-3.061875 9.278125 -3.12375 8.55625 -3.1875 7.8125 C-2.96476068 4.47141026 -1.8717754 2.72967245 0 0 Z " fill="#361C53" transform="translate(224,341)"/>
<path d="M0 0 C0.33 0 0.66 0 1 0 C1 5.28 1 10.56 1 16 C-0.32 15.67 -1.64 15.34 -3 15 C-2.68917128 13.24970238 -2.37626821 11.49977306 -2.0625 9.75 C-1.88847656 8.77546875 -1.71445312 7.8009375 -1.53515625 6.796875 C-1.09620271 4.50278205 -0.59651408 2.25708029 0 0 Z " fill="#B6945F" transform="translate(258,346)"/>
<path d="M0 0 C1.9375 0.75 1.9375 0.75 4 2 C4.75 4.125 4.75 4.125 5 6 C3.35 6.33 1.7 6.66 0 7 C-0.33 6.34 -0.66 5.68 -1 5 C-4.02934491 4.34227572 -4.02934491 4.34227572 -7 4 C-7 3.67 -7 3.34 -7 3 C-3.535 2.505 -3.535 2.505 0 2 C0 1.34 0 0.68 0 0 Z " fill="#885B4C" transform="translate(569,337)"/>
<path d="M0 0 C0.33 0.66 0.66 1.32 1 2 C0.0625 4.125 0.0625 4.125 -1 6 C-0.34 6 0.32 6 1 6 C1.33 5.34 1.66 4.68 2 4 C1.25 8.75 1.25 8.75 -1 11 C-2.31747324 11.69748583 -3.64914193 12.36959957 -5 13 C-4.54996653 7.37458159 -3.31558515 4.38512875 0 0 Z " fill="#B08F6D" transform="translate(422,258)"/>
<path d="M0 0 C0.66 0.33 1.32 0.66 2 1 C2.36298932 7.41281139 2.36298932 7.41281139 0.9375 9.71875 C-2.04548788 11.69137102 -4.66619232 11.28441673 -8.1875 11.1875 C-9.45980469 11.16042969 -10.73210937 11.13335937 -12.04296875 11.10546875 C-13.01878906 11.07066406 -13.99460938 11.03585937 -15 11 C-15 10.67 -15 10.34 -15 10 C-11.04 10 -7.08 10 -3 10 C-3 9.34 -3 8.68 -3 8 C-2.01 8 -1.02 8 0 8 C0 5.36 0 2.72 0 0 Z " fill="#986A51" transform="translate(207,351)"/>
<path d="M0 0 C-0.33 0.66 -0.66 1.32 -1 2 C-3.5625 2.625 -3.5625 2.625 -6 3 C-6 3.66 -6 4.32 -6 5 C-8.64 5.33 -11.28 5.66 -14 6 C-13.34 5.34 -12.68 4.68 -12 4 C-12.33 3.34 -12.66 2.68 -13 2 C-4.57142857 -0.28571429 -4.57142857 -0.28571429 0 0 Z " fill="#E1CF93" transform="translate(363,307)"/>
<path d="M0 0 C0 0.99 0 1.98 0 3 C-4.455 4.485 -4.455 4.485 -9 6 C-9.66 5.34 -10.32 4.68 -11 4 C-7.20307814 1.17438373 -4.81430721 -0.56638908 0 0 Z " fill="#D6C091" transform="translate(352,250)"/>
<path d="M0 0 C0.76441406 -0.01417969 1.52882813 -0.02835938 2.31640625 -0.04296875 C4.4375 0.1875 4.4375 0.1875 7.4375 2.1875 C1.77107449 3.41267308 -3.79958518 3.27978867 -9.5625 3.1875 C-8.5625 1.1875 -8.5625 1.1875 -6.78515625 0.57421875 C-4.48669462 0.17431066 -2.33238621 0.01973254 0 0 Z " fill="#D3C3A1" transform="translate(394.5625,205.8125)"/>
<path d="M0 0 C0.33 0.66 0.66 1.32 1 2 C0.0625 4.625 0.0625 4.625 -1 7 C-1.66 7 -2.32 7 -3 7 C-3.10183594 7.56203125 -3.20367187 8.1240625 -3.30859375 8.703125 C-4.13648111 11.45339488 -5.43198618 13.39095874 -7.0625 15.75 C-7.61035156 16.54921875 -8.15820312 17.3484375 -8.72265625 18.171875 C-9.14417969 18.77515625 -9.56570313 19.3784375 -10 20 C-10.33 19.34 -10.66 18.68 -11 18 C-10.21142578 16.22827148 -10.21142578 16.22827148 -8.9453125 14.12109375 C-8.49542969 13.36505859 -8.04554688 12.60902344 -7.58203125 11.83007812 C-7.10121094 11.04052734 -6.62039063 10.25097656 -6.125 9.4375 C-5.65191406 8.64408203 -5.17882812 7.85066406 -4.69140625 7.03320312 C-1.18620069 1.18620069 -1.18620069 1.18620069 0 0 Z " fill="#402D57" transform="translate(362,189)"/>
<path d="M0 0 C0.66 0.33 1.32 0.66 2 1 C1.25 3.9375 1.25 3.9375 0 7 C-2.18096612 7.95417268 -3.64182234 8 -6 8 C-5.65120368 4.74456771 -4.97866739 3.98126893 -2.4375 1.75 C-1.633125 1.1725 -0.82875 0.595 0 0 Z " fill="#D5BF91" transform="translate(399,285)"/>
<path d="M0 0 C0.33 0.99 0.66 1.98 1 3 C-3.95 6.96 -8.9 10.92 -14 15 C-14.66 14.67 -15.32 14.34 -16 14 C-14.64455078 12.86111328 -14.64455078 12.86111328 -13.26171875 11.69921875 C-12.07025187 10.69538445 -10.87884898 9.69147422 -9.6875 8.6875 C-8.79514648 7.93823242 -8.79514648 7.93823242 -7.88476562 7.17382812 C-7.30791016 6.68720703 -6.73105469 6.20058594 -6.13671875 5.69921875 C-5.60780029 5.25408936 -5.07888184 4.80895996 -4.53393555 4.3503418 C-2.95471373 2.96013395 -1.47187013 1.50273504 0 0 Z " fill="#3A2353" transform="translate(414,278)"/>
<path d="M0 0 C2.4750171 1.11431765 4.67883419 2.58150978 7 4 C7 4.99 7 5.98 7 7 C7.33 7.66 7.66 8.32 8 9 C4.66666667 7.33333333 1.33333333 5.66666667 -2 4 C-2 3.01 -2 2.02 -2 1 C-1.34 0.67 -0.68 0.34 0 0 Z " fill="#B79B77" transform="translate(412,210)"/>
<path d="M0 0 C1.51400391 0.01740234 1.51400391 0.01740234 3.05859375 0.03515625 C4.07050781 0.04417969 5.08242188 0.05320312 6.125 0.0625 C7.29869141 0.07990234 7.29869141 0.07990234 8.49609375 0.09765625 C8.82609375 1.74765625 9.15609375 3.39765625 9.49609375 5.09765625 C8.83609375 4.43765625 8.17609375 3.77765625 7.49609375 3.09765625 C5.29358383 2.63759279 5.29358383 2.63759279 2.87109375 2.47265625 C1.64519531 2.36050781 1.64519531 2.36050781 0.39453125 2.24609375 C-0.23195313 2.19710938 -0.8584375 2.148125 -1.50390625 2.09765625 C-1.83390625 3.08765625 -2.16390625 4.07765625 -2.50390625 5.09765625 C-3.06640625 3.16015625 -3.06640625 3.16015625 -3.50390625 1.09765625 C-2.50390625 0.09765625 -2.50390625 0.09765625 0 0 Z " fill="#3D2D52" transform="translate(368.50390625,356.90234375)"/>
<path d="M0 0 C3.3 0 6.6 0 10 0 C10 0.33 10 0.66 10 1 C7.69 1 5.38 1 3 1 C3 3.97 3 6.94 3 10 C2.67 9.34 2.34 8.68 2 8 C1.34 8 0.68 8 0 8 C0 5.36 0 2.72 0 0 Z " fill="#E4D690" transform="translate(413,338)"/>
<path d="M0 0 C1.1171875 1.734375 1.1171875 1.734375 2 4 C1.3203125 6.140625 1.3203125 6.140625 0.125 8.25 C-0.26429688 8.95640625 -0.65359375 9.6628125 -1.0546875 10.390625 C-1.36664063 10.92171875 -1.67859375 11.4528125 -2 12 C-2.99 12 -3.98 12 -5 12 C-3.68938409 7.76570244 -2.05643741 3.92592596 0 0 Z " fill="#D0BEA6" transform="translate(348,207)"/>
<path d="M0 0 C1.1484375 1.703125 1.1484375 1.703125 2 4 C1.1015625 6.359375 1.1015625 6.359375 -0.375 8.75 C-1.09816406 9.94882813 -1.09816406 9.94882813 -1.8359375 11.171875 C-2.22007812 11.77515625 -2.60421875 12.3784375 -3 13 C-3.66 13 -4.32 13 -5 13 C-4.48474397 7.71862571 -2.74522883 4.42778844 0 0 Z " fill="#DCCEB0" transform="translate(354,196)"/>
<path d="M0 0 C2.42945561 3.64418341 2.0828781 4.92923364 1.625 9.1875 C1.51414062 10.27417969 1.40328125 11.36085937 1.2890625 12.48046875 C1.19367188 13.31191406 1.09828125 14.14335937 1 15 C0.01 14.67 -0.98 14.34 -2 14 C-1.43393721 9.30976546 -0.81462495 4.65499974 0 0 Z " fill="#C9B78B" transform="translate(342,188)"/>
<path d="M0 0 C0.33 0 0.66 0 1 0 C1.53449652 7.24539726 0.71607548 11.72912263 -3 18 C-3.66 17.34 -4.32 16.68 -5 16 C-4.72285156 15.34773437 -4.44570313 14.69546875 -4.16015625 14.0234375 C-2.22611598 9.35696311 -0.53366042 5.06977397 0 0 Z " fill="#B4914D" transform="translate(421,151)"/>
<path d="M0 0 C0.33 0.66 0.66 1.32 1 2 C0.67 2.99 0.34 3.98 0 5 C0.38932856 7.14255793 0.38932856 7.14255793 1 9 C0.01 9.66 -0.98 10.32 -2 11 C-2.99 10.34 -3.98 9.68 -5 9 C-4.3566152 7.686298 -3.71021785 6.37407102 -3.0625 5.0625 C-2.70285156 4.33160156 -2.34320313 3.60070312 -1.97265625 2.84765625 C-1 1 -1 1 0 0 Z " fill="#B89A6A" transform="translate(417,163)"/>
<path d="M0 0 C0.886875 0.391875 1.77375 0.78375 2.6875 1.1875 C0.0019406 3.8730594 -2.68871328 4.24799974 -6.3125 5.1875 C-6.9725 4.1975 -7.6325 3.2075 -8.3125 2.1875 C-5.09279771 -0.27462528 -4.04623082 -0.99247171 0 0 Z " fill="#DBCBA0" transform="translate(357.3125,246.8125)"/>
<path d="M0 0 C0.58984375 1.890625 0.58984375 1.890625 1 4 C-0.4375 5.75 -0.4375 5.75 -2 7 C-2.33 6.67 -2.66 6.34 -3 6 C-3.43386092 9.87797662 -3.43386092 9.87797662 -1.5 11.75 C-1.005 12.1625 -0.51 12.575 0 13 C-2.4375 12.25 -2.4375 12.25 -5 11 C-5.84375 9.15625 -5.84375 9.15625 -6 7 C-4.78515625 5.078125 -4.78515625 5.078125 -3.0625 3.25 C-2.49660156 2.63640625 -1.93070312 2.0228125 -1.34765625 1.390625 C-0.90292969 0.93171875 -0.45820313 0.4728125 0 0 Z " fill="#EBDFBC" transform="translate(383,195)"/>
<path d="M0 0 C1.0326802 2.78823655 1.04509293 3.8677274 0.0625 6.75 C-0.288125 7.4925 -0.63875 8.235 -1 9 C-0.01 9 0.98 9 2 9 C2 7.68 2 6.36 2 5 C2.66 5 3.32 5 4 5 C3.34 6.98 2.68 8.96 2 11 C0.35 11 -1.3 11 -3 11 C-2.44894091 7.0507432 -1.61064629 3.65079826 0 0 Z " fill="#937065" transform="translate(221,352)"/>
<path d="M0 0 C0.33 0.66 0.66 1.32 1 2 C0.67 2.66 0.34 3.32 0 4 C0.66 4 1.32 4 2 4 C0.63016497 7.16115776 0.0109362 7.9927092 -3 10 C-3.66 9.67 -4.32 9.34 -5 9 C-3.50163895 5.88801935 -1.80066242 2.9465385 0 0 Z " fill="#BEA274" transform="translate(413,272)"/>
<path d="M0 0 C-0.33 0.66 -0.66 1.32 -1 2 C-3.06640625 2.6328125 -3.06640625 2.6328125 -5.5625 3.125 C-6.80193359 3.37636719 -6.80193359 3.37636719 -8.06640625 3.6328125 C-8.70449219 3.75398437 -9.34257812 3.87515625 -10 4 C-10 3.67 -10 3.34 -10 3 C-11.65 2.67 -13.3 2.34 -15 2 C-15 1.67 -15 1.34 -15 1 C-9.94997778 -0.03590199 -5.12583611 -0.10251672 0 0 Z " fill="#886262" transform="translate(445,216)"/>
<path d="M0 0 C3.49107379 1.16369126 3.85222763 1.88973538 5.6875 4.9375 C6.34298828 6.00291016 6.34298828 6.00291016 7.01171875 7.08984375 C8 9 8 9 8 11 C7.01 11 6.02 11 5 11 C4.16151196 9.54462432 3.32936066 8.08559627 2.5 6.625 C1.80390625 5.40683594 1.80390625 5.40683594 1.09375 4.1640625 C0 2 0 2 0 0 Z " fill="#B69154" transform="translate(503,346)"/>
<path d="M0 0 C2.12508244 3.18762365 2.5020163 5.26512223 3 9 C1.35 9 -0.3 9 -2 9 C-2.33 7.35 -2.66 5.7 -3 4 C-2.34 4.66 -1.68 5.32 -1 6 C-0.67 4.02 -0.34 2.04 0 0 Z " fill="#E6DBC2" transform="translate(381,354)"/>
<path d="M0 0 C0.93065133 2.60582371 1.14917407 3.64198224 0.0625 6.25 C-0.4634375 7.11625 -0.4634375 7.11625 -1 8 C-0.01 8 0.98 8 2 8 C1.67 8.99 1.34 9.98 1 11 C-0.65 11 -2.3 11 -4 11 C-3.5247412 9.35303396 -3.04468109 7.70745272 -2.5625 6.0625 C-2.29566406 5.14597656 -2.02882813 4.22945313 -1.75390625 3.28515625 C-1 1 -1 1 0 0 Z " fill="#BCA590" transform="translate(292,352)"/>
<path d="M0 0 C2.31 0 4.62 0 7 0 C7.33 0.99 7.66 1.98 8 3 C10.01508358 3.73323796 10.01508358 3.73323796 12 4 C10.35 4 8.7 4 7 4 C7 3.34 7 2.68 7 2 C5.35 2 3.7 2 2 2 C2.33 2.99 2.66 3.98 3 5 C2.01 4.67 1.02 4.34 0 4 C0 2.68 0 1.36 0 0 Z " fill="#463058" transform="translate(561,341)"/>
<path d="M0 0 C3.07536854 0.65900754 5.07735566 1.53867783 8 3 C3.545 4.485 3.545 4.485 -1 6 C-1.33 5.01 -1.66 4.02 -2 3 C-1.34 2.01 -0.68 1.02 0 0 Z " fill="#CCB48D" transform="translate(400,139)"/>
<path d="M0 0 C0.66 0 1.32 0 2 0 C2.02689216 1.47906892 2.04634621 2.95827483 2.0625 4.4375 C2.07410156 5.26121094 2.08570313 6.08492188 2.09765625 6.93359375 C2 9 2 9 1 10 C-0.66617115 10.04063832 -2.33388095 10.042721 -4 10 C-2.68 9.34 -1.36 8.68 0 8 C0 5.36 0 2.72 0 0 Z " fill="#C3B4A4" transform="translate(415,353)"/>
<path d="M0 0 C3.875 0.875 3.875 0.875 5 2 C7.32817964 2.36760731 9.6618385 2.70241581 12 3 C12 3.33 12 3.66 12 4 C7.28400182 4.92470553 4.32734391 5.22923777 0 3 C0 2.01 0 1.02 0 0 Z " fill="#9E673A" transform="translate(556,356)"/>
<path d="M0 0 C2.475 0.495 2.475 0.495 5 1 C5 2.32 5 3.64 5 5 C3.35 5 1.7 5 0 5 C0 3.35 0 1.7 0 0 Z " fill="#392C78" transform="translate(418,342)"/>
<path d="M0 0 C0 2.31 0 4.62 0 7 C-0.66 7 -1.32 7 -2 7 C-2.33 5.35 -2.66 3.7 -3 2 C-5.97 1.505 -5.97 1.505 -9 1 C-9 0.67 -9 0.34 -9 0 C-5.62182575 -0.84454356 -3.32534757 -1.10844919 0 0 Z " fill="#996732" transform="translate(205,339)"/>
<path d="M0 0 C1.65 0.33 3.3 0.66 5 1 C4.67 2.32 4.34 3.64 4 5 C1.69 4.67 -0.62 4.34 -3 4 C-2.01 2.68 -1.02 1.36 0 0 Z " fill="#B38B51" transform="translate(421,219)"/>
<path d="M0 0 C2 3 2 3 1.8125 5.4375 C0.95218569 8.15079897 -0.16522465 9.84613329 -2 12 C-1.85831863 10.56208484 -1.71148957 9.1246763 -1.5625 7.6875 C-1.48128906 6.88699219 -1.40007812 6.08648437 -1.31640625 5.26171875 C-1 3 -1 3 0 0 Z " fill="#513846" transform="translate(339,217)"/>
<path d="M0 0 C0.99 0 1.98 0 3 0 C2.67 1.98 2.34 3.96 2 6 C1.34 5.34 0.68 4.68 0 4 C-0.66 5.98 -1.32 7.96 -2 10 C-2.6875 8.375 -2.6875 8.375 -3 6 C-1.5625 2.75 -1.5625 2.75 0 0 Z " fill="#DFD0B7" transform="translate(358,131)"/>
<path d="M0 0 C1.85776765 3.13498292 2.20140476 5.37471432 2 9 C1.01 9 0.02 9 -1 9 C-2.0326802 6.21176345 -2.04509293 5.1322726 -1.0625 2.25 C-0.711875 1.5075 -0.36125 0.765 0 0 Z " fill="#3D2E5D" transform="translate(451,342)"/>
<path d="M0 0 C0.66 0 1.32 0 2 0 C2.33 2.64 2.66 5.28 3 8 C2.67 7.34 2.34 6.68 2 6 C1.34 6 0.68 6 0 6 C-0.33 7.32 -0.66 8.64 -1 10 C-2.27351308 7.45297384 -1.80191925 6.5717055 -1.0625 3.875 C-0.86785156 3.15054688 -0.67320312 2.42609375 -0.47265625 1.6796875 C-0.31667969 1.12539062 -0.16070312 0.57109375 0 0 Z " fill="#C5B590" transform="translate(345,177)"/>
<path d="M0 0 C0.33 0.66 0.66 1.32 1 2 C0.67 2.99 0.34 3.98 0 5 C0.99 5 1.98 5 3 5 C3.33 4.01 3.66 3.02 4 2 C3.67 3.65 3.34 5.3 3 7 C1.35 7 -0.3 7 -2 7 C-1.125 1.125 -1.125 1.125 0 0 Z " fill="#CCBCA7" transform="translate(441,356)"/>
<path d="M0 0 C0.33 0.99 0.66 1.98 1 3 C1.99 3 2.98 3 4 3 C4.33 2.34 4.66 1.68 5 1 C5.33 2.32 5.66 3.64 6 5 C3.69 5 1.38 5 -1 5 C-0.67 3.35 -0.34 1.7 0 0 Z " fill="#40334F" transform="translate(369,348)"/>
<path d="M0 0 C0 3.51716303 -0.82445585 4.37121748 -3 7 C-2.34 7 -1.68 7 -1 7 C-1.66 8.32 -2.32 9.64 -3 11 C-3.33 11 -3.66 11 -4 11 C-4.8125 8.3125 -4.8125 8.3125 -5 5 C-2.5625 2.125 -2.5625 2.125 0 0 Z " fill="#C2A686" transform="translate(411,274)"/>
<path d="M0 0 C0.94875 0.350625 1.8975 0.70125 2.875 1.0625 C2.545 2.0525 2.215 3.0425 1.875 4.0625 C-1.095 3.5675 -1.095 3.5675 -4.125 3.0625 C-4.455 2.0725 -4.785 1.0825 -5.125 0.0625 C-3.125 -0.9375 -3.125 -0.9375 0 0 Z " fill="#C0A781" transform="translate(409.125,208.9375)"/>
<path d="M0 0 C1.65 0 3.3 0 5 0 C5 0.99 5 1.98 5 3 C2.69 3.33 0.38 3.66 -2 4 C-1.34 2.68 -0.68 1.36 0 0 Z " fill="#C8B17E" transform="translate(402,225)"/>
<path d="M0 0 C0.33 0.99 0.66 1.98 1 3 C-0.21484375 5.04296875 -0.21484375 5.04296875 -1.9375 7.1875 C-2.50339844 7.90292969 -3.06929688 8.61835938 -3.65234375 9.35546875 C-4.09707031 9.89816406 -4.54179687 10.44085938 -5 11 C-5.66 10.67 -6.32 10.34 -7 10 C-3.535 5.05 -3.535 5.05 0 0 Z " fill="#362458" transform="translate(374,171)"/>
<path d="M0 0 C0.99 0.33 1.98 0.66 3 1 C0.69 3.31 -1.62 5.62 -4 8 C-4.33 7.01 -4.66 6.02 -5 5 C-4.01 4.67 -3.02 4.34 -2 4 C-0.79117904 1.99983534 -0.79117904 1.99983534 0 0 Z " fill="#E9DAAC" transform="translate(390,148)"/>
<path d="M0 0 C0.33 0.99 0.66 1.98 1 3 C1.66 3 2.32 3 3 3 C3.33 2.01 3.66 1.02 4 0 C4.33 0.99 4.66 1.98 5 3 C4.67 3.66 4.34 4.32 4 5 C2.35 5 0.7 5 -1 5 C-0.67 3.35 -0.34 1.7 0 0 Z " fill="#DFD5BE" transform="translate(360,358)"/>
<path d="M0 0 C1.65 0 3.3 0 5 0 C4.67 1.32 4.34 2.64 4 4 C2.68 4 1.36 4 0 4 C0 2.68 0 1.36 0 0 Z " fill="#2C2470" transform="translate(197,353)"/>
<path d="M0 0 C0.66 0 1.32 0 2 0 C3.60355101 3.50776784 4.22036864 6.14354879 4 10 C1.16625119 6.79663178 0.4794463 4.21912747 0 0 Z " fill="#A97E43" transform="translate(233,342)"/>
<path d="M0 0 C1.32 0 2.64 0 4 0 C3.38722388 2.96175123 2.74627478 4.38058783 1 7 C0.67 4.69 0.34 2.38 0 0 Z " fill="#E2D79A" transform="translate(369,338)"/>
<path d="M0 0 C0.66 0 1.32 0 2 0 C1.67 2.97 1.34 5.94 1 9 C0.34 9 -0.32 9 -1 9 C-0.67 6.03 -0.34 3.06 0 0 Z " fill="#9A6A3C" transform="translate(300,294)"/>
<path d="M0 0 C1.65 0 3.3 0 5 0 C2.47043472 3.0916909 -0.22454612 3.90931332 -4 5 C-3.67 4.01 -3.34 3.02 -3 2 C-2.01 2 -1.02 2 0 2 C0 1.34 0 0.68 0 0 Z " fill="#422C5B" transform="translate(347,247)"/>
<path d="M0 0 C0.66 0 1.32 0 2 0 C2.33 1.32 2.66 2.64 3 4 C2.01 4.66 1.02 5.32 0 6 C-0.99 5.67 -1.98 5.34 -3 5 C-1.625 2.5 -1.625 2.5 0 0 Z " fill="#F0E7B9" transform="translate(368,239)"/>
<path d="M0 0 C0.66 0.33 1.32 0.66 2 1 C-1.465 3.97 -1.465 3.97 -5 7 C-5.66 6.67 -6.32 6.34 -7 6 C-3.375 1.125 -3.375 1.125 0 0 Z " fill="#412B5A" transform="translate(397,182)"/>
<path d="M0 0 C0.33 0 0.66 0 1 0 C1.04241723 2.33294775 1.04092937 4.66702567 1 7 C0 8 0 8 -1.84765625 8.09765625 C-3.8984375 8.06510417 -5.94921875 8.03255208 -8 8 C-8 7.67 -8 7.34 -8 7 C-5.69 6.34 -3.38 5.68 -1 5 C-0.67 3.35 -0.34 1.7 0 0 Z " fill="#E9D8A8" transform="translate(425,342)"/>
<path d="M0 0 C1.98 0.495 1.98 0.495 4 1 C4 1.99 4 2.98 4 4 C2.35 4 0.7 4 -1 4 C-0.67 2.68 -0.34 1.36 0 0 Z " fill="#272163" transform="translate(197,342)"/>
<path d="M0 0 C0.66 0 1.32 0 2 0 C2.33 0.99 2.66 1.98 3 3 C2.34 3 1.68 3 1 3 C0.67 4.32 0.34 5.64 0 7 C-0.33 6.01 -0.66 5.02 -1 4 C-1.66 4.66 -2.32 5.32 -3 6 C-3 4.68 -3 3.36 -3 2 C-2.01 2 -1.02 2 0 2 C0 1.34 0 0.68 0 0 Z " fill="#A17A51" transform="translate(232,339)"/>
<path d="M0 0 C0.66 1.32 1.32 2.64 2 4 C0.75 6.75 0.75 6.75 -1 9 C-1.66 9 -2.32 9 -3 9 C-2.01 6.03 -1.02 3.06 0 0 Z " fill="#AE8B4B" transform="translate(424,255)"/>
<path d="M0 0 C0.99 0.33 1.98 0.66 3 1 C2 3 2 3 -0.8125 4.1875 C-4 5 -4 5 -8 4 C-5.36 3.34 -2.72 2.68 0 2 C0 1.34 0 0.68 0 0 Z " fill="#412752" transform="translate(416,218)"/>
<path d="M0 0 C2.29633824 3.44450737 2.54016485 5.93812283 3 10 C2.34 9.67 1.68 9.34 1 9 C1 8.34 1 7.68 1 7 C0.34 7 -0.32 7 -1 7 C-0.67 4.69 -0.34 2.38 0 0 Z " fill="#BFAD8C" transform="translate(349,159)"/>
<path d="M0 0 C0.66 0.99 1.32 1.98 2 3 C1.34 4.32 0.68 5.64 0 7 C-0.33 6.34 -0.66 5.68 -1 5 C-1.66 4.67 -2.32 4.34 -3 4 C-2.01 2.68 -1.02 1.36 0 0 Z " fill="#99705C" transform="translate(309,279)"/>
<path d="M0 0 C0.99 0.33 1.98 0.66 3 1 C2 4 2 4 -0.0625 5.1875 C-0.701875 5.455625 -1.34125 5.72375 -2 6 C-1.49396008 3.83125748 -1.00016187 2.00032373 0 0 Z " fill="#B49258" transform="translate(419,265)"/>
</svg>
