<?xml version="1.0" standalone="no"?>
<!DOCTYPE svg PUBLIC "-//W3C//DTD SVG 20010904//EN"
 "http://www.w3.org/TR/2001/REC-SVG-20010904/DTD/svg10.dtd">
<svg version="1.0" xmlns="http://www.w3.org/2000/svg"
 width="1063.000000pt" height="529.000000pt" viewBox="0 0 1063.000000 529.000000"
 preserveAspectRatio="xMidYMid meet">

<g transform="translate(0.000000,529.000000) scale(0.100000,-0.100000)"
fill="#000000" stroke="none">
<path d="M4895 3940 c-3 -6 2 -13 12 -16 50 -15 48 -1 51 -324 2 -315 1 -330
-40 -330 -13 0 -18 -6 -16 -17 3 -16 17 -18 120 -18 77 0 121 4 129 12 9 9 5
14 -17 19 -50 13 -53 25 -54 208 l0 169 32 -7 c59 -12 176 -76 233 -128 61
-56 88 -101 116 -193 16 -52 17 -61 4 -68 -18 -9 -20 -37 -4 -37 24 0 -13
-238 -39 -254 -5 -3 -39 20 -78 51 -104 84 -223 159 -282 178 -63 21 -169 16
-246 -11 -67 -23 -127 -84 -149 -153 -25 -79 -24 -241 3 -296 25 -52 83 -99
163 -133 56 -24 74 -27 182 -27 106 0 129 4 194 28 41 15 80 27 88 27 7 0 59
-31 115 -69 128 -85 196 -111 287 -111 111 0 275 54 359 118 53 40 38 72 -16
33 -83 -57 -244 -74 -364 -38 -53 16 -268 150 -268 167 0 4 11 13 25 20 23 12
32 10 98 -23 109 -55 174 -70 281 -65 76 3 102 9 158 35 81 38 146 102 185
181 25 51 28 68 28 157 0 92 -3 105 -32 168 -37 77 -115 159 -194 201 -73 40
-78 22 -11 -42 138 -134 178 -343 96 -510 -47 -97 -157 -161 -249 -148 -49 8
-145 63 -211 120 l-46 41 41 80 c39 76 57 141 63 230 3 38 5 40 41 43 46 4 49
24 5 37 -39 12 -46 31 -47 131 l-1 71 85 5 c130 9 188 53 187 143 -2 61 -23
92 -78 117 -39 17 -70 20 -211 21 -173 2 -204 -6 -141 -34 l33 -14 3 -82 c2
-69 0 -83 -13 -83 -8 0 -15 4 -15 9 0 15 -99 73 -183 107 l-80 32 34 15 c58
25 82 60 87 125 4 56 3 59 -31 89 -22 19 -55 35 -87 42 -65 14 -327 15 -335 1z
m300 -55 c20 -19 25 -34 25 -72 0 -60 -19 -89 -70 -104 -65 -20 -70 -13 -70
101 l0 100 45 0 c35 0 52 -6 70 -25z m544 -200 c42 -21 55 -98 26 -155 -11
-22 -25 -31 -62 -38 -26 -6 -51 -8 -55 -6 -14 9 -10 202 5 207 24 10 58 7 86
-8z m-740 -601 c58 -26 99 -55 265 -183 l109 -85 -23 -18 c-13 -11 -28 -17
-35 -14 -10 4 -126 86 -257 182 -97 71 -220 82 -317 29 -24 -14 -46 -23 -48
-21 -7 7 24 60 49 82 73 67 151 76 257 28z m-137 -144 c27 -8 320 -212 367
-256 2 -1 -17 -16 -43 -32 -88 -56 -251 -67 -349 -24 -57 25 -126 88 -144 129
-22 53 -15 57 20 11 49 -64 144 -110 233 -112 38 0 70 3 72 9 2 5 -24 15 -57
21 -84 17 -142 45 -194 93 -48 44 -73 91 -63 116 6 17 80 54 106 55 8 0 32 -5
52 -10z"/>
<path d="M2435 1950 c-39 -16 -74 -67 -224 -328 -83 -145 -151 -265 -151 -268
0 -2 39 -4 88 -4 l87 0 109 187 c125 212 104 205 187 64 56 -97 54 -105 -29
-96 -29 3 -69 2 -90 -1 -34 -5 -41 -12 -75 -74 -20 -37 -37 -71 -37 -74 0 -8
535 -8 542 0 3 3 -22 56 -56 117 -245 440 -250 448 -296 472 -16 8 -30 15 -32
14 -2 0 -12 -4 -23 -9z"/>
<path d="M1450 1890 c-67 -98 -82 -90 166 -90 121 0 225 -4 232 -9 8 -4 12
-19 10 -32 l-3 -24 -230 -5 -230 -5 -3 -189 -2 -188 237 4 c235 4 239 4 290
31 28 14 60 38 71 52 45 58 53 145 16 186 -16 17 -15 22 5 68 24 58 26 89 8
134 -19 44 -87 103 -134 116 -21 6 -118 11 -215 11 l-177 0 -41 -60z m414
-326 c21 -8 20 -40 -1 -49 -10 -4 -87 -9 -170 -12 l-153 -6 0 36 0 37 154 0
c85 0 161 -3 170 -6z"/>
<path d="M2917 1932 c-15 -16 -17 -52 -17 -301 l0 -282 71 3 70 3 2 158 c1 86
5 157 8 157 4 0 69 -64 144 -142 152 -158 177 -178 218 -178 51 0 57 35 57
335 l0 265 -75 0 -75 0 0 -161 c0 -88 -4 -159 -8 -157 -5 2 -68 66 -141 143
-73 77 -145 148 -160 157 -34 23 -74 23 -94 0z"/>
<path d="M3863 1937 c-12 -7 -30 -23 -41 -37 -21 -28 -297 -505 -307 -532 -6
-16 1 -18 78 -18 l85 0 103 173 c56 94 108 178 115 186 10 11 16 6 33 -27 12
-23 39 -69 60 -104 22 -34 37 -66 34 -71 -3 -5 -35 -6 -72 -3 -110 10 -127 2
-173 -82 l-40 -72 277 0 c231 0 276 2 273 14 -7 33 -286 522 -314 553 -34 36
-71 42 -111 20z"/>
<path d="M4364 1929 c-18 -20 -19 -40 -19 -298 l0 -276 73 -3 72 -3 0 168 1
168 152 -157 c84 -86 162 -162 174 -167 32 -16 58 -13 76 7 15 16 17 52 17
300 l0 282 -70 0 -70 0 0 -160 c0 -88 -3 -160 -6 -160 -4 0 -77 72 -163 160
-136 140 -160 160 -187 160 -18 0 -39 -8 -50 -21z"/>
<path d="M5290 1923 c-30 -28 -330 -537 -330 -560 0 -9 23 -13 83 -13 l83 0
76 128 c41 70 90 153 108 185 27 48 35 56 45 45 24 -25 114 -192 108 -201 -3
-5 -33 -8 -67 -6 -129 6 -127 7 -168 -71 -21 -38 -38 -72 -38 -75 0 -3 124 -5
276 -5 254 0 276 1 270 17 -24 62 -294 524 -322 551 -43 41 -82 42 -124 5z"/>
<path d="M6086 1878 l-45 -73 223 -5 c250 -6 256 -7 256 -71 0 -66 -12 -69
-262 -69 l-218 0 0 -155 0 -155 74 0 74 0 -5 75 -5 75 131 0 c158 0 219 12
274 54 63 47 89 105 85 188 -5 87 -39 141 -117 181 -54 27 -58 27 -237 27
l-182 0 -46 -72z"/>
<path d="M6880 1923 c-16 -16 -88 -131 -160 -258 -72 -126 -142 -247 -156
-267 -13 -21 -24 -40 -24 -43 0 -3 41 -4 91 -3 l91 3 106 182 c59 101 109 183
112 183 7 0 115 -193 115 -205 0 -6 -39 -10 -95 -10 l-94 0 -43 -70 c-23 -38
-43 -73 -43 -77 0 -5 124 -8 275 -8 151 0 275 3 275 8 0 4 -24 50 -53 102
-276 494 -273 490 -333 490 -23 0 -43 -9 -64 -27z"/>
<path d="M7382 1653 l3 -298 73 -3 72 -3 0 301 0 300 -75 0 -75 0 2 -297z"/>
<path d="M7626 1928 c-14 -19 -16 -65 -16 -301 l0 -278 73 3 72 3 0 158 c0 86
3 157 6 157 4 0 69 -64 145 -143 154 -159 180 -180 221 -175 49 5 53 27 53
326 l0 272 -75 0 -75 0 0 -162 -1 -163 -158 163 c-146 150 -161 162 -194 162
-26 0 -40 -6 -51 -22z"/>
<path d="M8260 1881 c-22 -38 -40 -72 -40 -75 0 -3 43 -6 95 -6 l95 0 0 -225
0 -226 73 3 72 3 2 220 2 220 75 3 c42 2 76 6 76 11 0 4 18 36 40 70 22 34 40
64 40 66 0 3 -110 5 -245 5 l-244 0 -41 -69z"/>
<path d="M8915 1931 c-137 -62 -141 -248 -7 -313 42 -20 66 -23 220 -28 139
-4 175 -8 182 -20 13 -21 12 -26 -6 -44 -16 -17 -40 -18 -276 -16 l-118 1 -45
-70 c-25 -38 -45 -74 -45 -80 0 -8 71 -11 223 -11 254 0 302 8 354 62 40 41
53 76 53 138 0 60 -13 96 -48 133 -53 56 -73 61 -254 65 l-168 4 0 24 0 24
183 0 182 0 47 75 47 75 -242 0 c-213 0 -247 -3 -282 -19z"/>
</g>
</svg>
