<?xml version="1.0" standalone="no"?>
<!DOCTYPE svg PUBLIC "-//W3C//DTD SVG 20010904//EN"
 "http://www.w3.org/TR/2001/REC-SVG-20010904/DTD/svg10.dtd">
<svg version="1.0" xmlns="http://www.w3.org/2000/svg"
 width="708.000000pt" height="352.000000pt" viewBox="0 0 708.000000 352.000000"
 preserveAspectRatio="xMidYMid meet">

<g transform="translate(0.000000,352.000000) scale(0.100000,-0.100000)"
fill="#000000" stroke="none">
<path d="M3260 2622 c0 -5 9 -12 20 -15 19 -5 20 -14 20 -215 0 -202 -1 -211
-20 -217 -40 -13 -8 -25 65 -25 73 0 105 12 65 25 -19 6 -20 15 -20 126 0 93
3 119 13 119 28 0 134 -61 170 -98 43 -44 86 -150 66 -162 -7 -5 -8 -13 -3
-21 15 -24 -9 -169 -27 -169 -5 0 -42 25 -82 55 -135 103 -197 122 -303 90
-53 -15 -96 -53 -113 -96 -8 -23 -14 -109 -12 -176 1 -32 54 -87 109 -114 64
-31 193 -32 270 -2 l52 21 67 -46 c75 -51 148 -82 194 -82 82 0 250 66 257
101 2 14 -6 12 -47 -9 -38 -18 -67 -24 -113 -24 -88 0 -132 14 -217 71 -67 45
-72 50 -53 60 16 9 33 5 89 -21 59 -28 78 -33 148 -32 66 0 89 4 130 26 91 47
135 119 135 220 -1 100 -45 178 -132 234 -55 35 -67 29 -26 -13 109 -112 119
-304 22 -395 -32 -29 -73 -48 -107 -48 -30 0 -115 43 -156 79 l-33 29 30 62
c18 36 34 86 38 121 6 54 9 59 30 59 30 0 31 18 2 22 -21 3 -23 8 -23 68 l0
65 55 5 c85 8 120 36 120 94 0 47 -38 76 -115 87 -80 11 -183 10 -191 -3 -3
-4 -1 -8 5 -8 22 0 41 -33 41 -74 0 -23 -3 -45 -6 -48 -3 -3 -28 9 -55 28 -28
18 -68 39 -90 45 -21 7 -39 15 -39 18 1 3 15 15 33 26 29 18 32 25 32 69 0 42
-4 52 -28 69 -23 18 -46 22 -147 25 -77 3 -120 1 -120 -6z m205 -45 c31 -44 7
-100 -47 -113 l-28 -6 0 70 c0 72 6 84 43 74 10 -2 24 -14 32 -25z m367 -134
c41 -37 9 -123 -47 -123 -24 0 -25 2 -25 70 0 69 0 70 27 70 14 0 35 -7 45
-17z m-485 -402 c29 -16 93 -60 142 -97 69 -52 87 -71 79 -81 -6 -7 -14 -13
-19 -13 -5 0 -59 36 -121 80 -76 55 -121 80 -142 81 -57 3 -101 -3 -128 -17
-16 -8 -28 -12 -28 -9 0 18 25 48 53 65 46 28 102 25 164 -9z m24 -172 l111
-83 -22 -18 c-80 -65 -268 -38 -324 46 -28 43 -18 50 20 12 35 -35 110 -66
161 -66 40 0 25 18 -26 30 -65 15 -125 55 -148 98 -18 33 -18 34 7 54 46 38
94 22 221 -73z"/>
<path d="M971 1260 c-17 -24 -31 -47 -31 -51 0 -5 66 -10 148 -11 144 -3 147
-3 150 -25 l3 -23 -155 0 -156 0 0 -126 0 -126 158 4 c175 4 207 13 242 71 24
38 25 62 6 100 -13 23 -13 31 0 55 19 37 18 61 -6 99 -33 54 -70 67 -207 71
l-121 4 -31 -42z m277 -222 c8 -8 9 -15 1 -25 -8 -9 -42 -13 -120 -13 l-109 0
0 25 0 25 108 0 c69 0 112 -4 120 -12z"/>
<path d="M1599 1276 c-22 -22 -219 -355 -219 -370 0 -3 24 -6 54 -6 l53 0 73
125 c40 69 74 125 76 125 4 0 84 -137 84 -144 0 -3 -30 -6 -67 -6 l-68 0 -27
-50 -28 -50 180 0 c99 0 180 3 180 7 0 16 -188 341 -211 366 -34 33 -49 34
-80 3z"/>
<path d="M1947 1282 c-15 -16 -17 -45 -17 -201 l0 -182 48 3 47 3 0 103 c0 56
4 102 8 102 5 0 54 -47 110 -105 156 -161 169 -152 165 112 l-3 178 -45 0 -45
0 -3 -110 -3 -110 -102 107 c-56 59 -111 110 -123 113 -13 3 -27 -1 -37 -13z"/>
<path d="M2567 1280 c-21 -17 -150 -229 -211 -347 l-17 -33 55 0 55 0 71 120
c39 66 74 120 78 120 9 0 82 -116 82 -130 0 -6 -28 -10 -65 -10 l-64 0 -27
-45 c-14 -25 -24 -48 -22 -51 3 -2 84 -3 181 -2 l177 3 -106 186 c-73 129
-113 190 -130 198 -31 14 -27 15 -57 -9z"/>
<path d="M2914 1286 c-17 -13 -19 -26 -17 -138 1 -68 2 -151 2 -185 l1 -63 45
0 45 0 0 113 1 112 108 -112 c162 -168 171 -163 171 99 l0 188 -45 0 -45 0 0
-105 c0 -60 -4 -105 -10 -105 -5 0 -55 47 -112 105 -57 58 -108 105 -114 105
-5 0 -19 -6 -30 -14z"/>
<path d="M3533 1285 c-21 -14 -223 -355 -223 -375 0 -7 20 -10 53 -8 l52 3 70
118 c38 64 73 117 77 117 9 0 78 -114 78 -129 0 -7 -23 -11 -64 -11 l-64 0
-26 -46 c-14 -26 -26 -48 -26 -50 0 -2 81 -4 180 -4 99 0 180 2 180 4 0 15
-205 364 -221 379 -26 21 -38 21 -66 2z"/>
<path d="M4060 1256 c-16 -25 -30 -47 -30 -50 0 -3 65 -6 143 -6 127 0 146 -2
160 -18 22 -24 21 -45 -1 -65 -16 -14 -43 -17 -165 -17 l-147 0 0 -100 0 -100
50 0 50 0 0 49 0 49 108 3 c90 4 113 8 143 27 98 60 90 205 -14 252 -33 16
-65 20 -154 20 l-112 0 -31 -44z"/>
<path d="M4593 1285 c-16 -12 -84 -122 -230 -377 -2 -5 22 -8 54 -8 l58 0 74
127 73 126 43 -74 43 -74 -69 -3 -69 -3 -25 -49 -25 -50 180 0 180 0 -21 43
c-58 114 -182 324 -201 340 -25 21 -37 21 -65 2z"/>
<path d="M4920 1100 l0 -200 45 0 45 0 0 200 0 200 -45 0 -45 0 0 -200z"/>
<path d="M5086 1284 c-13 -13 -16 -46 -16 -200 l0 -184 45 0 45 0 0 112 0 112
114 -113 c90 -88 120 -112 138 -109 l23 3 3 198 2 197 -45 0 -45 0 0 -112 -1
-113 -97 101 c-85 88 -127 124 -146 124 -2 0 -12 -7 -20 -16z"/>
<path d="M5506 1256 c-14 -25 -26 -47 -26 -50 0 -3 27 -6 60 -6 l60 0 0 -151
0 -150 48 3 47 3 2 145 1 145 49 3 c46 3 50 5 76 48 15 25 27 47 27 49 0 3
-72 5 -159 5 l-159 0 -26 -44z"/>
<path d="M5945 1286 c-50 -22 -70 -52 -70 -106 0 -91 53 -120 216 -120 74 0
100 -4 109 -15 10 -12 10 -18 0 -30 -10 -12 -39 -15 -140 -15 l-128 0 -31 -50
-31 -50 155 0 c171 0 206 8 243 55 26 33 29 102 7 144 -23 46 -69 61 -189 61
-99 0 -106 1 -106 20 0 19 7 20 123 20 l122 0 28 50 28 50 -153 0 c-104 -1
-163 -5 -183 -14z"/>
</g>
</svg>
