<svg xmlns="http://www.w3.org/2000/svg" width="1272" height="720" viewBox="0 0 1272 720" version="1.1"><path d="M 301.928 153.081 C 298.943 155.862, 297.444 157.545, 298.597 156.819 C 301.837 154.781, 308.261 148.928, 307.783 148.450 C 307.548 148.215, 304.913 150.299, 301.928 153.081 M 348.299 153.254 C 347.175 154.489, 342.634 160.900, 338.207 167.500 C 320.230 194.298, 303.650 232.483, 300.432 254.500 C 300.191 256.150, 302.903 248.950, 306.459 238.500 C 312.210 221.603, 316.057 211.700, 319.272 205.523 C 319.838 204.435, 322.756 198.810, 325.758 193.023 C 328.759 187.235, 335.104 176.734, 339.857 169.687 C 349.119 155.956, 351.426 152.093, 350.761 151.428 C 350.530 151.197, 349.422 152.019, 348.299 153.254 M 283.966 170.679 L 278.500 176.357 283.500 172.090 C 287.835 168.390, 290.831 165, 289.766 165 C 289.582 165, 286.972 167.555, 283.966 170.679 M 267.899 188.250 C 262.782 194.901, 262.362 195.677, 265.289 193.067 C 267.746 190.877, 272.494 184, 271.550 184 C 271.340 184, 269.697 185.912, 267.899 188.250 M 475.717 229.616 C 475.379 229.955, 473.616 230.600, 471.801 231.049 C 468.683 231.821, 468.746 231.856, 472.922 231.683 C 475.430 231.579, 477.522 230.959, 477.756 230.250 C 478.180 228.958, 476.804 228.530, 475.717 229.616 M 458.359 235.334 C 450.154 240.965, 446.390 251.704, 449.365 261 L 450.805 265.500 450.273 257.938 C 449.826 251.595, 450.089 249.587, 451.908 245.475 C 454.729 239.098, 456.372 237.381, 462.461 234.450 C 465.768 232.858, 466.764 232.020, 465.359 232.012 C 464.182 232.005, 461.032 233.500, 458.359 235.334 M 495 235.952 C 492.697 236.645, 492.815 236.761, 496.500 237.424 C 498.700 237.820, 501.512 238.637, 502.748 239.240 C 503.985 239.843, 505.285 240.048, 505.637 239.696 C 505.989 239.344, 505.090 238.605, 503.639 238.053 C 502.187 237.501, 501 236.588, 501 236.025 C 501 234.867, 498.697 234.839, 495 235.952 M 478.655 237.459 C 470.337 240.425, 467.929 245.913, 472.033 252.553 C 473.320 254.636, 473.687 256.076, 473.033 256.480 C 472.465 256.831, 472 258.716, 472 260.669 C 472 263.523, 472.834 265.043, 476.250 268.410 C 480.215 272.319, 481.087 272.691, 489.256 273.962 C 497.065 275.177, 498.660 275.144, 503.991 273.662 C 511.621 271.541, 511.462 271.524, 512.874 274.623 C 513.853 276.771, 513.780 277.722, 512.475 279.873 L 510.881 282.500 512.934 280.147 C 514.968 277.816, 514.953 273.826, 512.902 271.581 C 512.435 271.071, 513.019 268.958, 514.216 266.830 C 516.288 263.144, 516.305 262.864, 514.685 259.465 C 513.758 257.522, 513 255.062, 513 253.997 C 513 252.667, 512.519 252.247, 511.462 252.653 C 510.617 252.977, 507.907 252.473, 505.442 251.531 C 501.856 250.161, 498.914 249.924, 490.730 250.346 C 485.103 250.635, 478.833 251.173, 476.795 251.540 C 473.377 252.157, 473.038 252.001, 472.418 249.530 C 472.049 248.058, 472.244 245.760, 472.853 244.424 C 474.210 241.446, 479.620 238.014, 483 237.988 C 484.375 237.978, 486.175 237.533, 487 237 C 489.345 235.485, 483.252 235.820, 478.655 237.459 M 229.158 250.866 C 227.514 256.354, 227.786 257.044, 230 253 C 232.069 249.221, 232.498 247, 231.158 247 C 230.695 247, 229.795 248.740, 229.158 250.866 M 482.021 252.895 C 475.466 255.231, 472.603 258.275, 473.516 261.937 C 475.235 268.825, 482.878 272.398, 495.701 272.306 C 505.771 272.235, 509.543 270.846, 513.279 265.833 L 515.266 263.167 513.085 259.637 C 508.770 252.656, 492.562 249.139, 482.021 252.895 M 451.210 268.687 C 451.254 270.240, 450.299 273.454, 449.087 275.830 C 447.875 278.206, 447.084 280.678, 447.329 281.325 C 447.574 281.971, 448.747 280.363, 449.934 277.750 C 451.122 275.137, 452.438 273, 452.860 273 C 453.281 273, 454.948 274.395, 456.563 276.100 C 458.178 277.805, 461.452 280.554, 463.838 282.209 C 467.015 284.412, 468.044 285.724, 467.681 287.110 C 467.352 288.371, 467.573 288.762, 468.343 288.282 C 468.979 287.886, 474.675 287.492, 481 287.407 C 487.325 287.322, 493.580 286.823, 494.901 286.298 C 497.151 285.404, 497.014 285.264, 492.701 284.056 C 490.171 283.348, 486.647 281.470, 484.870 279.884 C 483.093 278.298, 481.201 277, 480.665 277 C 479.667 277, 482.386 280.582, 484.903 282.582 C 485.674 283.195, 485.974 284.233, 485.569 284.888 C 484.738 286.232, 473.196 285.401, 471.550 283.879 C 471.027 283.395, 469.896 283, 469.036 283 C 467.073 283, 454 271.300, 454 269.543 C 454 268.829, 453.354 267.709, 452.565 267.054 C 451.374 266.065, 451.144 266.343, 451.210 268.687 M 368.453 279.660 C 366.961 295.583, 369.933 329.830, 372.277 323.721 C 372.640 322.775, 373.661 322, 374.545 322 C 375.661 322, 375.247 321.238, 373.194 319.510 C 370.680 317.394, 370.132 316.052, 369.545 310.579 C 369.115 306.557, 369.259 303.384, 369.931 302.130 C 370.710 300.672, 370.692 299.928, 369.865 299.416 C 369.046 298.910, 368.919 294.947, 369.417 285.356 C 370.172 270.799, 369.600 267.420, 368.453 279.660 M 337.500 280.080 C 327.229 281.819, 320.017 282.875, 304 284.984 C 295.185 286.145, 271.034 289.887, 268.250 290.524 C 265.706 291.105, 265.054 295, 267.500 295 C 268.466 295, 269.005 295.979, 269.015 297.750 L 269.029 300.500 270.277 298.034 C 271.705 295.213, 276.644 293.443, 280.433 294.394 C 282.695 294.962, 283 295.553, 283 299.370 C 283 307.033, 286.204 313.516, 291.823 317.222 C 295.306 319.518, 298.121 319.460, 302.500 317 C 306.819 314.574, 307 314.562, 307 316.684 C 307 317.610, 304.751 320.535, 302.003 323.184 C 298.590 326.474, 297.560 327.989, 298.753 327.964 C 302.757 327.882, 310 318.652, 310 313.632 C 310 309.986, 312.226 310.297, 315.339 314.378 C 325.214 327.325, 341.258 327.124, 348.006 313.968 C 351.034 308.066, 352.123 299.675, 350.891 291.737 C 350.145 286.929, 350.124 284.023, 350.824 282.486 C 351.775 280.400, 350.713 277.780, 349.050 278.108 C 348.748 278.168, 343.550 279.055, 337.500 280.080 M 439.543 289.195 C 430.988 297.690, 418.032 301.715, 398 302.103 C 390.050 302.257, 389.823 302.318, 394.500 303.046 C 401.143 304.081, 414 304.200, 414 303.227 C 414 302.802, 416.587 301.863, 419.750 301.139 C 428.669 299.099, 433.096 296.761, 439.546 290.683 C 442.821 287.597, 445.050 285.116, 444.500 285.169 C 443.950 285.222, 441.719 287.034, 439.543 289.195 M 314 288.907 C 311.613 289.582, 311.503 289.951, 311.560 297.057 C 311.647 307.926, 315.260 314.697, 323.588 319.595 C 331.367 324.171, 341.217 321.457, 345.675 313.509 C 346.894 311.336, 347.710 309.377, 347.488 309.155 C 347.267 308.933, 345.419 309.735, 343.382 310.937 C 334.571 316.136, 324.899 308.661, 323.384 295.480 C 322.517 287.928, 321.061 286.909, 314 288.907 M 443.603 310.834 C 442.497 312.623, 428.221 319.017, 423.223 319.961 C 420.321 320.510, 417.118 321.402, 416.105 321.944 C 415.093 322.485, 408.778 323.239, 402.072 323.618 C 394.948 324.020, 390.424 324.653, 391.189 325.138 C 393.107 326.354, 406.259 326.228, 405.500 325 C 405.127 324.396, 406.485 324, 408.927 324 C 416.805 324, 431.326 319.505, 440.146 314.335 C 443.366 312.448, 446 310.701, 446 310.452 C 446 309.667, 444.141 309.963, 443.603 310.834 M 335.312 339.518 C 328.442 341.682, 313.519 343.090, 304.986 342.378 C 296.283 341.653, 296.153 341.747, 298.422 347.128 C 301.674 354.840, 310.300 360.225, 319.543 360.312 C 329.641 360.407, 336.933 355.003, 341.789 343.827 C 344.541 337.494, 343.639 336.894, 335.312 339.518 M 337.500 341.512 C 330.774 343.278, 323.379 344.126, 313.008 344.323 C 302.284 344.526, 300.471 344.794, 300.196 346.218 C 299.435 350.172, 312.417 358.989, 319 358.989 C 325.189 358.989, 335.482 351.850, 338.962 345.143 C 340.171 342.814, 339.441 341.003, 337.500 341.512 M 620 358.916 C 620.825 359.510, 622.636 359.759, 624.025 359.468 C 627.166 358.811, 637.893 362.165, 643.950 365.699 C 647.107 367.540, 648.059 367.814, 647.060 366.595 C 643.938 362.785, 634.317 358.998, 626.254 358.406 C 620.565 357.988, 618.900 358.124, 620 358.916 M 251.214 373.891 C 245.415 375.894, 234.086 383.195, 235.860 383.787 C 236.471 383.990, 238.215 383.274, 239.735 382.196 C 245.592 378.041, 250.464 375.853, 254.895 375.390 C 260.285 374.827, 263.779 376.351, 265.946 380.213 C 267.346 382.707, 267.289 383.118, 265.138 386.027 C 262.479 389.623, 263.022 391.195, 265.994 388.506 C 268.886 385.888, 268.750 379.052, 265.750 376.241 C 263.702 374.322, 258.877 371.952, 257.185 372.033 C 256.808 372.051, 254.121 372.887, 251.214 373.891 M 624.674 374.878 C 624.053 377.987, 623.843 378.124, 620.759 377.446 C 615.132 376.207, 602.847 376.862, 593.663 378.889 C 588.803 379.962, 584.566 381.101, 584.247 381.420 C 583.327 382.340, 587.418 382.094, 590.601 381.038 C 592.195 380.510, 597.775 379.622, 603 379.065 C 610.661 378.250, 613.744 378.344, 618.923 379.556 C 624.102 380.767, 625.504 380.810, 626.158 379.779 C 627.140 378.232, 627.119 376.163, 626.095 373.547 C 625.446 371.887, 625.232 372.088, 624.674 374.878 M 439.500 380.382 C 443.704 382.347, 454.072 385.261, 454.684 384.650 C 454.963 384.370, 451.886 383.181, 447.846 382.006 C 437.834 379.096, 435.972 378.733, 439.500 380.382 M 570.500 383.526 C 567.200 384.273, 560.675 385.630, 556 386.542 C 545.963 388.499, 542.717 389.924, 548.191 389.970 C 550.221 389.986, 552.160 389.550, 552.500 389 C 552.840 388.450, 554.297 388, 555.738 388 C 557.179 388, 559.740 387.575, 561.429 387.056 C 563.118 386.536, 567.875 385.566, 572 384.900 C 576.125 384.233, 580.175 383.322, 581 382.875 C 583.356 381.596, 577.389 381.966, 570.500 383.526 M 492 393.558 C 495.644 394.351, 505.835 394.542, 505.382 393.810 C 505.107 393.364, 501.646 393.052, 497.691 393.116 C 493.736 393.180, 491.175 393.379, 492 393.558 M 251.400 397.871 C 245.077 402.526, 234.511 415.400, 235.586 417.139 C 235.890 417.630, 236.488 417.816, 236.916 417.552 C 237.946 416.915, 242.102 421.440, 245.452 426.844 C 246.933 429.234, 248.402 430.931, 248.717 430.616 C 249.032 430.301, 246.963 426.600, 244.119 422.390 C 240.649 417.254, 239.144 414.123, 239.542 412.869 C 239.868 411.842, 243.783 407.401, 248.243 403.001 C 252.703 398.600, 256.116 395, 255.826 395 C 255.537 395, 253.545 396.292, 251.400 397.871 M 634.316 409.173 C 633.115 412.634, 632.322 415.655, 632.554 415.887 C 633.347 416.680, 637.129 406.925, 636.814 404.901 C 636.617 403.634, 635.685 405.228, 634.316 409.173 M 683.354 413.654 C 675.771 419.045, 670.478 429.287, 672.918 433.847 C 673.819 435.530, 673.721 436.639, 672.457 439.084 C 671.574 440.790, 670.998 442.308, 671.176 442.457 C 671.354 442.607, 672.540 443.270, 673.811 443.932 C 675.360 444.739, 676.019 445.854, 675.811 447.318 C 675.640 448.518, 676.288 450.288, 677.250 451.250 C 678.333 452.333, 679 454.524, 679 457 C 679 461.689, 677.892 462.006, 672 459 C 669.844 457.900, 667.439 457, 666.656 457 C 665.874 457, 664.998 457.900, 664.710 459 C 664.246 460.774, 663.301 461.011, 656.344 461.100 C 652.030 461.155, 647.375 461.513, 646 461.896 C 643.800 462.509, 643.720 462.677, 645.334 463.297 C 646.981 463.930, 646.757 464.539, 643.144 469.251 C 640.931 472.138, 638.374 475.332, 637.462 476.348 C 636.498 477.422, 635.996 479.201, 636.263 480.598 C 636.516 481.919, 636.307 483, 635.798 483 C 635.290 483, 635.004 483.788, 635.162 484.750 C 635.321 485.712, 635.077 487.096, 634.620 487.824 C 634.085 488.679, 634.613 490.023, 636.109 491.616 C 638.142 493.780, 638.266 494.345, 637.111 496.195 C 635.987 497.993, 636.029 498.437, 637.396 499.202 C 639.166 500.192, 639.683 507.460, 638.055 508.466 C 637.536 508.787, 634.899 507.688, 632.195 506.025 C 626.461 502.497, 625 502.277, 625 504.941 C 625 507.842, 623.427 508.302, 617.981 506.995 C 610.573 505.218, 609.869 506.309, 616.984 508.542 L 623.220 510.500 622.609 517.188 C 622.273 520.867, 621.531 525.104, 620.960 526.605 C 620.188 528.635, 620.241 529.531, 621.163 530.101 C 623.284 531.412, 623.717 530.303, 624.416 521.772 C 625.753 505.449, 626.107 504.972, 633.500 509.526 C 635.700 510.881, 638.056 511.992, 638.736 511.995 C 639.415 511.998, 640.481 509.975, 641.104 507.500 C 642.206 503.126, 642.347 503, 646.151 503 C 649.289 503, 650.234 502.554, 650.921 500.750 C 652.038 497.819, 649.910 495.349, 644.108 492.845 C 638.459 490.407, 639.276 489.637, 645.891 491.164 C 650.647 492.262, 651.250 492.195, 653.080 490.364 C 656.225 487.220, 654.578 485.233, 646.891 482.898 C 643.101 481.747, 640.011 480.287, 640.023 479.653 C 640.036 479.019, 641.274 476.285, 642.773 473.578 C 646.001 467.751, 651.213 464.626, 657.829 464.551 C 662.120 464.502, 662.314 464.632, 663.676 468.500 C 666.037 475.203, 666.517 493.113, 664.632 504.174 C 661.702 521.362, 654.943 539, 651.286 539 C 650.032 539, 649.890 539.290, 650.730 540.130 C 651.352 540.752, 655.078 541.314, 659.011 541.380 C 665.843 541.495, 666.288 541.359, 668.993 538.333 C 670.837 536.270, 672.162 533.306, 672.794 529.833 C 675.402 515.494, 677.309 502.721, 677.959 495.245 C 678.353 490.705, 678.914 486.753, 679.205 486.462 C 679.496 486.171, 683.271 486.904, 687.595 488.090 C 700.093 491.518, 711.541 489.721, 714.575 483.855 C 716.207 480.699, 716.361 468.828, 715.098 443.374 C 714.176 424.781, 712.914 420.941, 705.472 414.081 C 701.166 410.111, 700.863 410.004, 694.516 410.178 C 688.894 410.333, 687.347 410.815, 683.354 413.654 M 690.500 412.743 C 681.298 417.010, 680.590 417.591, 677.725 423.216 C 673.737 431.049, 674.459 433, 681.345 433 C 689.697 433, 693.276 436.724, 689.017 440.983 C 687.393 442.607, 686.214 442.854, 682.517 442.347 C 679.236 441.898, 678 442.071, 678 442.981 C 678 443.752, 678.789 444.027, 680.054 443.696 C 683.190 442.876, 690 446.904, 690 449.579 C 690 452.006, 688.282 453, 684.085 453 C 681.487 453, 681.333 453.254, 681.333 457.533 C 681.333 463.898, 680.107 464.792, 674.252 462.693 C 668.824 460.748, 667 460.573, 667 462 C 667 462.550, 667.640 463, 668.422 463 C 670.801 463, 676.360 470.458, 678.875 477.023 C 680.966 482.482, 681.743 483.437, 685.375 485.012 C 687.644 485.996, 691.383 487.105, 693.685 487.477 C 697.568 488.105, 697.973 487.951, 699.320 485.327 C 702.218 479.684, 703.421 470.588, 703.399 454.500 C 703.375 436.904, 701.706 428.158, 696.233 416.949 L 693.500 411.352 690.500 412.743 M 586 418.530 C 578.352 420.898, 568.339 423.774, 550.500 428.725 C 542.768 430.871, 541.215 431.569, 543.654 431.806 C 545.389 431.975, 549.439 431.378, 552.654 430.481 C 555.869 429.583, 563.225 427.517, 569 425.889 C 574.775 424.261, 582.856 422.011, 586.957 420.888 C 591.058 419.766, 595.558 418.224, 596.957 417.464 L 599.500 416.080 596.500 416.144 C 594.850 416.180, 590.125 417.253, 586 418.530 M 354 417.408 C 354 418.722, 380.707 431.626, 381.593 430.741 C 381.972 430.362, 355.626 417, 354.499 417 C 354.225 417, 354 417.184, 354 417.408 M 531 433.479 C 518.872 436.985, 513.975 438.071, 508 438.581 C 504.425 438.886, 497.900 439.741, 493.500 440.481 C 470.974 444.270, 440.609 444.089, 418.500 440.036 C 415.750 439.532, 411.925 439.131, 410 439.146 L 406.500 439.172 409.500 440.096 C 419.544 443.190, 432.241 444.301, 457.500 444.298 C 484.094 444.294, 501.677 442.814, 514.299 439.515 C 517.488 438.682, 520.832 438, 521.731 438 C 524.765 438, 539 433.788, 539 432.890 C 539 431.710, 536.481 431.895, 531 433.479 M 678.605 435.170 C 679.091 435.957, 678.783 436.131, 677.664 435.701 C 676.485 435.249, 676 435.597, 676 436.895 C 676 438.321, 677.043 438.871, 680.693 439.371 C 686.073 440.109, 688.083 438.940, 685.639 436.496 C 684.590 435.447, 683.201 435.090, 681.753 435.497 C 679.990 435.993, 679.826 435.903, 681 435.081 C 682.234 434.217, 682.091 434.028, 680.191 434.015 C 678.680 434.005, 678.132 434.405, 678.605 435.170 M 679.693 446.641 C 678.552 447.782, 681.042 451, 683.067 451 C 684.954 451, 686.826 448.493, 685.746 447.413 C 684.896 446.562, 680.351 445.982, 679.693 446.641 M 263.803 449.723 C 266.075 452.914, 269 455.652, 269 454.587 C 269 453.178, 265.615 448.864, 263.708 447.844 C 261.749 446.795, 261.752 446.842, 263.803 449.723 M 590.692 454.656 C 584.608 459.435, 583.716 461.066, 588.563 458.552 C 590.136 457.736, 592.421 457.319, 593.642 457.625 C 595.477 458.085, 595.770 457.838, 595.340 456.193 C 595.054 455.099, 595.326 453.258, 595.945 452.102 C 596.564 450.946, 596.942 450.021, 596.785 450.047 C 596.628 450.073, 593.886 452.147, 590.692 454.656 M 224.210 456.191 C 223.545 458.770, 222.587 461.137, 222.082 461.450 C 221.562 461.771, 221.832 463.361, 222.705 465.110 C 223.896 467.498, 224.136 470.398, 223.758 477.851 C 223.466 483.619, 223.608 486.586, 224.111 485.228 C 224.896 483.108, 225.418 469.347, 224.841 466 C 224.699 465.175, 224.945 462.415, 225.387 459.867 C 226.547 453.191, 225.680 450.485, 224.210 456.191 M 500.142 466.078 C 498.233 467.860, 497.892 468.950, 498.354 471.797 C 499.117 476.496, 504.842 484.932, 510.449 489.619 C 512.952 491.712, 515 494.126, 515 494.984 C 515 496.013, 516.535 496.901, 519.500 497.589 C 521.975 498.164, 524 498.328, 524 497.954 C 524 497.581, 520.962 495.012, 517.250 492.245 C 502.758 481.446, 496.941 472.202, 501.664 467.479 C 502.818 466.325, 504.241 465.998, 506.311 466.412 C 509.751 467.100, 521.101 472.623, 526.094 476.040 C 532.714 480.568, 534.569 481.645, 541.248 484.836 C 550.787 489.392, 562.520 494, 564.583 494 C 567.385 494, 565.664 493, 556.808 489.482 C 548.348 486.121, 546.939 484.587, 550.492 482.609 C 551.588 481.999, 553.838 480.422, 555.492 479.104 C 558.341 476.834, 558.368 476.748, 556 477.470 C 554.625 477.889, 551.969 479.380, 550.098 480.783 C 544.350 485.093, 542.597 484.523, 523.500 472.146 C 516.327 467.496, 512.147 465.678, 506 464.530 C 503.202 464.007, 502.027 464.318, 500.142 466.078 M 571.964 467.382 C 571.159 468.142, 568.250 469.984, 565.500 471.474 C 559.739 474.597, 558.001 476, 559.896 476 C 560.608 476, 562.521 475.053, 564.145 473.896 C 566.974 471.882, 568.020 471.836, 572.500 473.529 C 574.408 474.249, 574.420 474.199, 572.764 472.442 C 571.112 470.689, 571.133 470.488, 573.188 468.300 C 575.490 465.849, 574.430 465.055, 571.964 467.382 M 181.023 469.043 C 178.010 469.480, 175.085 469.562, 174.523 469.227 C 173.960 468.891, 174.070 469.320, 174.767 470.181 C 175.464 471.042, 175.754 472.479, 175.410 473.373 C 174.534 475.658, 175.945 475.401, 180.215 472.500 C 182.238 471.125, 184.341 470, 184.888 470 C 185.435 470, 186.160 469.550, 186.500 469 C 186.840 468.450, 186.979 468.056, 186.809 468.125 C 186.639 468.193, 184.035 468.607, 181.023 469.043 M 298.115 478.859 C 300.830 480.974, 307 484.275, 307 483.611 C 307 483.073, 297.217 477, 296.350 477 C 296.009 477, 296.803 477.836, 298.115 478.859 M 594.656 479.748 C 593.979 480.844, 605.955 482.724, 618.500 483.490 C 634.865 484.490, 620.751 481.240, 600.362 479.313 C 597.536 479.046, 594.969 479.242, 594.656 479.748 M 156.474 483.783 C 154.288 484.580, 151.706 486.286, 150.736 487.574 L 148.971 489.915 153.236 487.707 C 155.581 486.493, 157.650 485.163, 157.833 484.750 C 158.017 484.337, 159.003 484, 160.024 484 C 161.046 484, 162.114 483.625, 162.397 483.167 C 163.165 481.923, 160.935 482.156, 156.474 483.783 M 639 484.940 C 639 486.392, 645.081 489, 648.468 489 C 651.671 489, 651.753 487.237, 648.607 486.041 C 643.993 484.287, 639 483.714, 639 484.940 M 171.238 489.036 C 168.668 490.068, 164.148 494, 165.532 494 C 167.087 494, 175.964 489.541, 175.982 488.750 C 176.005 487.777, 174.081 487.893, 171.238 489.036 M 571.500 496.292 C 572.600 497.065, 575.075 497.978, 577 498.321 C 580.383 498.925, 580.417 498.901, 578 497.611 C 576.625 496.877, 574.150 495.964, 572.500 495.583 C 569.711 494.937, 569.641 494.987, 571.500 496.292 M 641.553 496.724 C 640.553 499.327, 645.354 502.313, 647.342 500.324 C 648.041 499.626, 644.209 495, 642.933 495 C 642.537 495, 641.916 495.776, 641.553 496.724 M 186.811 502.490 C 184.232 504.383, 178.382 507.144, 173.811 508.627 C 164.543 511.633, 164.378 512.968, 173.588 510.430 C 183.987 507.564, 183.674 507.565, 184.383 510.390 C 185.286 513.988, 194 518.165, 194 515 C 194 514.450, 195.125 514, 196.500 514 C 197.875 514, 199 513.541, 199 512.981 C 199 512.416, 197.972 512.220, 196.691 512.541 C 192.208 513.666, 190.476 513.698, 188.250 512.694 C 185.517 511.461, 185.377 509.073, 187.851 505.885 C 189.735 503.457, 192.303 498.980, 191.785 499.025 C 191.628 499.038, 189.390 500.598, 186.811 502.490 M 348.500 503.451 C 351.800 504.796, 355.400 505.890, 356.500 505.881 C 358.579 505.864, 358.485 505.809, 351.500 502.938 C 350.400 502.486, 347.925 501.866, 346 501.561 C 343.294 501.131, 343.860 501.559, 348.500 503.451 M 493.298 503.404 C 489.720 504.707, 488.025 506, 489.895 506 C 491.465 506, 501 502.896, 501 502.385 C 501 501.648, 496.479 502.246, 493.298 503.404 M 594.336 503.456 C 598.252 504.852, 610.910 506.659, 609.995 505.691 C 609.181 504.830, 596.121 501.996, 593.188 502.044 C 590.797 502.083, 590.924 502.239, 594.336 503.456 M 205.181 508.607 C 200.432 511.454, 200.078 513.045, 204.730 510.640 C 207.235 509.344, 210.970 505.982, 209.872 506.009 C 209.668 506.015, 207.556 507.184, 205.181 508.607 M 362.500 507.654 C 364.700 508.486, 369.200 509.555, 372.500 510.029 C 375.800 510.504, 380.975 511.369, 384 511.953 C 401.417 515.312, 426.694 516.322, 443.783 514.343 C 456.128 512.913, 457.014 511.536, 445 512.453 C 427.530 513.787, 416.613 513.784, 401.500 512.441 C 386.982 511.152, 383.916 510.674, 370 507.536 C 366.425 506.730, 362.375 506.086, 361 506.106 C 358.961 506.134, 359.238 506.420, 362.500 507.654 M 475.500 507.664 C 472.200 508.436, 466.125 509.682, 462 510.432 C 455.396 511.632, 455.024 511.807, 458.884 511.897 C 461.295 511.954, 464.895 511.585, 466.884 511.079 C 468.873 510.572, 473.650 509.608, 477.500 508.936 C 481.350 508.265, 485.400 507.358, 486.500 506.921 C 489.898 505.571, 482.230 506.089, 475.500 507.664 M 542.500 508 C 547.682 510.503, 550.572 510.503, 546 508 C 544.075 506.946, 541.600 506.080, 540.500 506.076 C 539.199 506.071, 539.897 506.743, 542.500 508 M 584.164 522.498 C 585.052 523.385, 613.307 529.090, 614.928 528.709 C 617.857 528.021, 611.835 526.218, 602.500 524.987 C 597.550 524.335, 592.195 523.396, 590.601 522.901 C 587.495 521.936, 583.343 521.676, 584.164 522.498 M 629.500 530 C 628.505 531.100, 626.635 532, 625.345 532 C 623.927 532, 623 532.593, 623 533.500 C 623 535.385, 622.837 535.402, 628.451 532.919 L 633.156 530.837 639.205 534.899 C 642.532 537.133, 645.687 538.694, 646.215 538.367 C 646.744 538.040, 645.403 536.873, 643.236 535.772 C 641.069 534.671, 638.529 532.472, 637.591 530.885 C 635.564 527.453, 632.143 527.079, 629.500 530" stroke="none" fill="#1a0d05" fill-rule="evenodd"/><path d="M 498.022 197.696 C 500.671 201.873, 502.227 208.876, 500.232 207.643 C 499.809 207.382, 499.675 209.043, 499.933 211.334 C 500.278 214.395, 500.508 214.837, 500.797 213 C 501.014 211.625, 501.600 210.002, 502.099 209.393 C 503.528 207.652, 501.963 201.898, 498.798 197.250 C 494.886 191.506, 494.307 191.838, 498.022 197.696 M 479.444 207.606 C 479.058 210.689, 478.979 216.144, 479.266 219.729 C 479.554 223.314, 479.395 227.624, 478.912 229.306 C 478.294 231.460, 478.348 232.052, 479.094 231.306 C 479.960 230.440, 481.201 202, 480.373 202 C 480.247 202, 479.829 204.523, 479.444 207.606 M 502.742 212.250 C 502.480 213.488, 502.590 217.200, 502.986 220.500 L 503.706 226.500 503.853 218.250 C 504 209.996, 503.634 208.023, 502.742 212.250 M 220.467 271.467 C 219.558 274.592, 219.060 277.393, 219.359 277.692 C 219.658 277.991, 220.187 276.945, 220.534 275.368 C 220.881 273.791, 221.580 271.190, 222.087 269.588 C 222.594 267.986, 222.809 266.475, 222.564 266.230 C 222.319 265.985, 221.375 268.342, 220.467 271.467 M 394.728 301.722 C 396.503 301.943, 399.653 301.946, 401.728 301.730 C 403.802 301.513, 402.350 301.333, 398.500 301.328 C 394.650 301.324, 392.952 301.501, 394.728 301.722 M 212.382 328.500 C 212.384 335.100, 212.546 337.670, 212.741 334.211 C 212.937 330.752, 212.936 325.352, 212.738 322.211 C 212.540 319.070, 212.380 321.900, 212.382 328.500 M 374.513 323.979 C 373.641 325.390, 375.868 332.196, 378.138 335.058 C 380.011 337.419, 380.010 337.368, 378.095 333.500 C 377.007 331.300, 375.824 328.296, 375.468 326.825 C 374.895 324.458, 375.147 324.101, 377.660 323.725 L 380.500 323.300 377.809 323.150 C 376.329 323.067, 374.846 323.441, 374.513 323.979 M 390 350.500 C 393.543 354.075, 396.667 357, 396.942 357 C 397.217 357, 394.543 354.075, 391 350.500 C 387.457 346.925, 384.333 344, 384.058 344 C 383.783 344, 386.457 346.925, 390 350.500 M 233.567 388.849 C 230.367 392.066, 227.289 395.554, 226.727 396.599 C 226.165 397.645, 225.901 398.275, 226.141 398 C 226.381 397.725, 229.671 394.238, 233.453 390.250 C 241.689 381.565, 241.767 380.606, 233.567 388.849 M 243.204 403.422 C 239.326 407.504, 235.644 411.892, 235.022 413.172 C 234.251 414.756, 234.605 414.541, 236.129 412.500 C 237.360 410.850, 241.358 406.462, 245.012 402.750 C 248.666 399.038, 251.340 396, 250.955 396 C 250.569 396, 247.082 399.340, 243.204 403.422 M 686.234 415.571 C 680.473 418.442, 676.869 423.221, 676.643 428.291 L 676.500 431.500 682.803 432.103 C 686.269 432.434, 689.564 433.164, 690.126 433.726 C 691.967 435.567, 690.717 441.405, 688.250 442.487 C 685.366 443.752, 685.415 444.413, 688.500 445.818 C 690.155 446.572, 691 447.768, 691 449.356 C 691 452.322, 689.398 453.722, 685.500 454.162 C 682.681 454.480, 682.481 454.790, 682.193 459.303 C 681.812 465.265, 680.486 465.886, 674.045 463.115 C 668.441 460.704, 668 460.623, 668 462 C 668 462.550, 668.591 463, 669.313 463 C 671.601 463, 675.773 468.277, 678.800 475 C 682.187 482.523, 683.974 484.352, 689.544 485.998 C 695.752 487.833, 698.104 487.095, 699.566 482.856 C 701.252 477.963, 702.994 463.259, 702.997 453.881 C 703.003 437.286, 696.495 413, 692.041 413 C 691.685 413, 689.071 414.157, 686.234 415.571 M 213.238 422.758 C 210.985 427.821, 207.622 439.955, 208.288 440.622 C 208.761 441.095, 212 431.362, 212 429.468 C 212 428.752, 212.911 426.040, 214.025 423.441 C 215.139 420.843, 215.893 418.559, 215.700 418.366 C 215.507 418.174, 214.399 420.150, 213.238 422.758 M 679.500 438 C 679.840 438.550, 681.441 439, 683.059 439 C 684.677 439, 686 438.550, 686 438 C 686 437.450, 684.398 437, 682.441 437 C 680.323 437, 679.132 437.405, 679.500 438 M 601.750 448.097 C 598.587 450.885, 596.036 453.916, 596.079 454.833 C 596.143 456.186, 596.253 456.217, 596.661 455 C 596.938 454.175, 599.715 451.148, 602.832 448.274 C 610.097 441.576, 609.296 441.445, 601.750 448.097 M 204.336 455 C 204.480 457.196, 204.896 457.460, 207.761 457.173 C 209.555 456.994, 213.308 457.606, 216.101 458.534 C 220.037 459.841, 221.441 459.951, 222.340 459.024 C 223.230 458.105, 223.035 457.898, 221.500 458.131 C 220.400 458.298, 217.375 457.832, 214.778 457.095 C 212.182 456.359, 208.942 455.969, 207.579 456.230 C 205.665 456.596, 204.995 456.224, 204.636 454.602 C 204.283 452.999, 204.211 453.094, 204.336 455 M 633.250 460.743 C 637.513 460.931, 644.487 460.931, 648.750 460.743 C 653.013 460.556, 649.525 460.402, 641 460.402 C 632.475 460.402, 628.987 460.556, 633.250 460.743 M 653.655 465.459 C 648.922 467.146, 645.400 470.340, 642.903 475.210 C 641.856 477.251, 641 479.146, 641 479.421 C 641 479.697, 643.215 480.580, 645.921 481.384 C 653.099 483.516, 655 484.771, 655 487.380 C 655 490.085, 652.138 493, 649.483 493 C 647.792 493, 647.828 493.191, 649.868 495.092 C 651.470 496.584, 652.025 498.088, 651.807 500.342 C 651.521 503.285, 651.211 503.521, 647.250 503.807 C 644.913 503.977, 643 504.539, 643 505.057 C 643 505.576, 643.009 506.230, 643.020 506.510 C 643.082 508.077, 639.748 513, 638.625 513 C 637.897 513, 635.322 511.671, 632.904 510.047 C 630.485 508.422, 628.189 507.411, 627.801 507.799 C 627.413 508.187, 626.652 511.654, 626.111 515.503 C 623.733 532.421, 623.882 533.454, 628.211 530.048 C 629.557 528.990, 631.849 527.825, 633.304 527.460 C 635.506 526.907, 636.149 527.233, 637.137 529.401 C 638.267 531.881, 648.565 538, 651.609 538 C 654.901 538, 662.111 517.166, 663.846 502.638 C 665.657 487.474, 663.916 466.860, 660.647 464.765 C 659.090 463.768, 658.131 463.863, 653.655 465.459 M 222.336 474 C 222.336 478.125, 222.513 479.813, 222.728 477.750 C 222.944 475.688, 222.944 472.313, 222.728 470.250 C 222.513 468.188, 222.336 469.875, 222.336 474 M 641 485.551 C 641 486.200, 647.468 489, 648.968 489 C 649.536 489, 650 488.564, 650 488.031 C 650 487.499, 649.251 487.350, 648.336 487.701 C 647.300 488.099, 646.918 487.942, 647.325 487.284 C 647.684 486.703, 646.970 485.957, 645.739 485.627 C 642.914 484.870, 641 484.839, 641 485.551 M 633.100 487.380 C 632.224 488.435, 632.372 489.552, 633.727 492.130 C 634.702 493.983, 635.583 495.658, 635.683 495.850 C 635.784 496.043, 636.415 495.862, 637.085 495.447 C 638.019 494.871, 637.976 494.438, 636.901 493.597 C 633.637 491.041, 632.698 489.068, 634 487.500 C 634.685 486.675, 635.020 486, 634.745 486 C 634.470 486, 633.730 486.621, 633.100 487.380 M 416.784 516.738 C 419.689 516.941, 424.189 516.939, 426.784 516.734 C 429.378 516.528, 427 516.363, 421.500 516.365 C 416 516.368, 413.878 516.536, 416.784 516.738 M 167 521.992 C 167.825 522.522, 169.400 522.744, 170.500 522.486 C 171.600 522.229, 171.938 522.277, 171.250 522.593 C 168.506 523.853, 170.264 525, 174.941 525 C 179.870 525, 182.611 523.541, 179.265 522.699 C 178.294 522.454, 179.188 522.427, 181.250 522.639 C 183.366 522.856, 185 522.583, 185 522.012 C 185 521.398, 181.169 521.006, 175.250 521.015 C 168.630 521.026, 165.981 521.339, 167 521.992 M 955.454 561 C 955.454 582.175, 955.587 590.837, 955.749 580.250 C 955.911 569.663, 955.911 552.337, 955.749 541.750 C 955.587 531.163, 955.454 539.825, 955.454 561 M 153.227 545.750 L 153.500 563.500 166.751 563.545 L 180.003 563.591 167.001 563.266 L 154 562.942 154 546.041 C 154 529.308, 154.023 529.135, 156.250 528.706 C 158.163 528.337, 158.085 528.252, 155.727 528.136 L 152.954 528 153.227 545.750 M 1121.450 555.947 C 1120.928 556.468, 1117.575 557.056, 1114 557.255 L 1107.500 557.615 1114.128 557.807 C 1118.981 557.948, 1121.088 557.598, 1122 556.500 C 1123.369 554.850, 1122.961 554.440, 1121.450 555.947 M 1082.444 586 C 1082.444 602.775, 1082.581 609.638, 1082.748 601.250 C 1082.915 592.862, 1082.915 579.138, 1082.748 570.750 C 1082.581 562.362, 1082.444 569.225, 1082.444 586 M 153.419 592 C 153.419 602.725, 153.566 607.112, 153.746 601.750 C 153.925 596.388, 153.925 587.612, 153.746 582.250 C 153.566 576.888, 153.419 581.275, 153.419 592 M 1090.423 597.500 C 1090.424 609.050, 1090.570 613.638, 1090.747 607.696 C 1090.924 601.753, 1090.923 592.303, 1090.745 586.696 C 1090.567 581.088, 1090.422 585.950, 1090.423 597.500 M 529.422 598 C 529.422 609.275, 529.568 613.888, 529.746 608.250 C 529.924 602.612, 529.924 593.388, 529.746 587.750 C 529.568 582.112, 529.422 586.725, 529.422 598 M 398.417 600.500 C 398.418 610.950, 398.566 615.089, 398.746 609.698 C 398.926 604.307, 398.925 595.757, 398.744 590.698 C 398.563 585.639, 398.416 590.050, 398.417 600.500 M 495.443 592.919 C 495.489 602.147, 495.788 604.432, 497 604.831 C 498.213 605.231, 498.268 605.044, 497.287 603.855 C 496.566 602.980, 495.935 598.154, 495.730 591.942 L 495.387 581.500 495.443 592.919 M 684.407 601 C 684.407 610.075, 684.559 613.788, 684.744 609.250 C 684.929 604.712, 684.929 597.288, 684.744 592.750 C 684.559 588.212, 684.407 591.925, 684.407 601 M 390.328 604.500 C 390.333 608.350, 390.513 609.802, 390.730 607.728 C 390.946 605.653, 390.943 602.503, 390.722 600.728 C 390.501 598.952, 390.324 600.650, 390.328 604.500 M 157.803 621.746 C 163.470 621.925, 172.470 621.924, 177.803 621.745 C 183.136 621.565, 178.500 621.419, 167.500 621.420 C 156.500 621.421, 152.136 621.568, 157.803 621.746" stroke="none" fill="#3983dc" fill-rule="evenodd"/><path d="M 366.597 100.250 C 365.794 103.138, 364.620 108.738, 363.988 112.695 C 363.355 116.652, 362.312 120.303, 361.669 120.807 C 361.026 121.312, 358.250 121.978, 355.500 122.288 C 348.757 123.046, 342.091 125.415, 335.217 129.495 C 319.753 138.673, 286.594 168.944, 270.582 188.500 C 242.694 222.560, 227.278 254.167, 219.367 293.500 C 216.848 306.026, 216.553 309.553, 216.570 327 C 216.589 346.561, 216.963 349.767, 221.581 370 C 223.541 378.583, 227.191 388, 228.558 388 C 229.160 388, 230.742 386.820, 232.076 385.377 C 236.383 380.717, 244.760 375.062, 250.580 372.884 C 255.424 371.072, 256.814 370.927, 260.055 371.898 C 267.021 373.985, 270.950 381.488, 267.981 387.035 C 267.421 388.082, 263.483 391.595, 259.231 394.842 C 251.852 400.477, 240 412.030, 240 413.588 C 240 413.993, 241.446 416.614, 243.213 419.412 C 261.520 448.395, 291.817 475.777, 320.069 488.871 C 325.256 491.276, 331.975 494.387, 335 495.786 C 347.224 501.438, 368.974 507.521, 386 510.050 C 405.855 512.999, 435.560 513.146, 457 510.402 C 476.203 507.944, 514 497.423, 514 494.535 C 514 494.308, 510.908 491.057, 507.128 487.311 C 496.537 476.814, 494.048 467.114, 501.292 464.566 C 506.536 462.722, 513.899 465.291, 528.131 473.930 C 540.724 481.574, 545.287 483.257, 547.550 481.090 C 548.073 480.590, 554.028 476.975, 560.784 473.058 C 581.875 460.829, 599.756 447.362, 619.222 429.047 C 628.012 420.777, 631.562 415.340, 634.264 406.012 C 636.147 399.511, 637.184 397.758, 641.970 392.985 C 645.011 389.951, 649.653 386.012, 652.284 384.232 C 656.653 381.274, 656.965 380.803, 655.887 378.790 C 653.745 374.787, 645.123 367.207, 639.768 364.618 C 633.712 361.691, 625.361 359.306, 624.430 360.236 C 624.082 360.585, 624.589 363.257, 625.558 366.174 C 627.400 371.721, 628.030 379.302, 626.756 380.577 C 626.346 380.987, 622.818 380.752, 618.916 380.054 C 611.484 378.726, 603.813 379.140, 592 381.506 C 580.709 383.768, 557.129 388.913, 551.202 390.409 C 548.066 391.201, 541.900 392.359, 537.500 392.984 C 533.100 393.608, 526.763 394.542, 523.418 395.059 C 508.536 397.361, 483.627 395.174, 467 390.105 C 463.425 389.015, 456.450 386.936, 451.500 385.485 C 426.933 378.284, 401.758 365.331, 388.813 353.232 C 383.699 348.453, 376.584 339.126, 373.663 333.373 C 372.790 331.653, 371.063 326.703, 369.825 322.373 C 367.807 315.312, 367.582 312.386, 367.643 294 C 367.715 272.397, 367.564 273.640, 375.474 229.500 C 381.817 194.105, 382.924 174.666, 379.624 156.619 C 377.865 146.998, 377.516 136.312, 378.890 134.143 C 379.363 133.397, 385.270 129.971, 392.017 126.531 L 404.284 120.276 396.561 112.192 C 390.163 105.495, 387.265 103.328, 379.662 99.554 C 374.614 97.049, 369.938 95, 369.270 95 C 368.602 95, 367.399 97.362, 366.597 100.250 M 345.917 155.224 C 329.373 176.153, 314.443 205.258, 303.197 238.500 C 297.331 255.839, 296.744 258.224, 298.133 259.082 C 298.833 259.515, 299.758 259.650, 300.189 259.383 C 300.621 259.116, 302.587 253.634, 304.559 247.199 C 312.946 219.830, 326.808 190.430, 342.055 167.674 C 347.525 159.510, 352 152.194, 352 151.415 C 352 148.771, 350.056 149.988, 345.917 155.224 M 327 280.516 C 319.025 281.769, 307.325 283.538, 301 284.448 C 294.675 285.358, 284.804 286.783, 279.063 287.616 C 273.323 288.448, 267.811 289.566, 266.813 290.100 C 264.613 291.278, 264.452 294.300, 266.500 296 C 267.427 296.769, 268.012 299.013, 268.033 301.872 C 268.106 312.239, 274.761 323.837, 283.348 328.563 C 287.362 330.772, 289.113 331.155, 293.526 330.789 C 300.466 330.214, 304.791 326.921, 308.590 319.321 C 310.191 316.119, 311.629 313.296, 311.786 313.047 C 311.943 312.798, 313.941 314.520, 316.225 316.873 C 322.385 323.221, 327.196 325.363, 333.765 324.685 C 344.490 323.578, 350.994 314.807, 351.790 300.375 C 352.063 295.418, 351.759 290.801, 351.011 288.533 C 350.113 285.814, 350.081 284.519, 350.892 283.708 C 351.501 283.099, 352 281.565, 352 280.300 C 352 278.177, 351.596 278.009, 346.750 278.119 C 343.863 278.185, 334.975 279.263, 327 280.516 M 335.500 338.920 C 330.786 340.788, 316.253 342.249, 307.549 341.730 C 302.477 341.427, 297.755 341.533, 297.057 341.965 C 293.070 344.429, 301.194 355.429, 309.818 359.244 C 321.915 364.595, 336.163 358.717, 341.919 346 C 344.886 339.446, 344.671 337.987, 340.750 338.063 C 338.962 338.098, 336.600 338.484, 335.500 338.920 M 593 415.583 C 559.256 426.447, 518.888 436.390, 500.500 438.365 C 498.300 438.602, 494.025 439.404, 491 440.148 C 487.031 441.123, 477.703 441.495, 457.500 441.483 C 432.342 441.469, 428.333 441.234, 418 439.171 C 396.838 434.945, 378.105 428.363, 362.236 419.576 C 357.691 417.059, 353.754 415, 353.486 415 C 353.219 415, 353 415.788, 353.001 416.750 C 353.002 418.922, 370.290 428.268, 384 433.508 C 426.449 449.732, 483.197 449.703, 544.500 433.426 C 567.010 427.450, 595.090 419.450, 599.250 417.829 C 600.763 417.240, 602 416.137, 602 415.379 C 602 413.638, 598.816 413.710, 593 415.583" stroke="none" fill="#fff603" fill-rule="evenodd"/><path d="M 366.169 92.750 C 365.673 93.713, 364.041 99.450, 362.544 105.500 C 361.046 111.550, 359.385 117.027, 358.853 117.672 C 358.320 118.316, 355.998 119.126, 353.692 119.471 C 347.652 120.375, 337.435 124.736, 330.500 129.370 C 315.823 139.178, 290.452 161.304, 291.653 163.247 C 292.014 163.831, 291.868 164.037, 291.329 163.704 C 289.989 162.875, 280.897 171.558, 271.124 183 C 263.569 191.846, 261.373 195.124, 264.155 193.405 C 264.876 192.959, 265.037 193.131, 264.585 193.862 C 264.187 194.506, 263.507 194.814, 263.074 194.546 C 260.146 192.736, 230.565 240.869, 232.591 244.147 C 233.012 244.828, 232.875 245.041, 232.259 244.660 C 230.729 243.714, 230.035 246.309, 231.462 247.642 C 232.391 248.510, 233.552 246.993, 236.443 241.137 C 242.094 229.689, 251.449 213.738, 257.245 205.669 C 272.590 184.306, 297.615 158.199, 318.714 141.543 C 324.881 136.674, 329.649 132.241, 329.309 131.691 C 328.969 131.141, 329.179 130.993, 329.775 131.361 C 330.371 131.730, 333.116 130.700, 335.875 129.074 C 342.253 125.313, 349.078 122.978, 355.743 122.275 C 358.627 121.970, 361.415 121.204, 361.940 120.572 C 362.465 119.940, 363.382 116.290, 363.978 112.461 C 365.495 102.720, 367.835 95, 369.270 95 C 369.938 95, 374.614 97.049, 379.662 99.554 C 387.175 103.283, 390.182 105.515, 396.253 111.869 C 400.330 116.137, 403.667 120.368, 403.667 121.271 C 403.667 122.173, 403.253 122.656, 402.746 122.343 C 401.306 121.453, 394.333 124.985, 394.333 126.604 C 394.333 127.403, 394.596 127.908, 394.917 127.727 C 395.238 127.547, 398.099 126.185, 401.276 124.701 L 407.052 122.002 405.401 118.809 C 402.994 114.154, 393.958 104.940, 392.097 105.241 C 391.219 105.384, 390.604 104.962, 390.732 104.305 C 390.859 103.648, 389.628 102.159, 387.995 100.996 C 385.219 99.020, 368.887 91, 367.638 91 C 367.326 91, 366.665 91.787, 366.169 92.750 M 386.065 129.513 C 382.526 131.420, 379.270 133.547, 378.831 134.240 C 377.510 136.319, 377.895 147.163, 379.624 156.619 C 382.924 174.666, 381.817 194.105, 375.474 229.500 C 369.946 260.346, 367.924 273.575, 368.293 276.467 C 368.627 279.086, 368.711 278.954, 368.910 275.500 C 369.086 272.448, 369.323 271.968, 369.912 273.474 C 370.481 274.931, 370.857 274.016, 371.347 269.974 C 372.230 262.687, 373.559 254.945, 377.523 234 C 382.119 209.710, 383.030 203.584, 383.281 195.260 C 383.402 191.278, 383.788 188.015, 384.141 188.010 C 385.543 187.988, 384.895 172.310, 383.003 160.520 C 381.901 153.652, 381.007 145.213, 381.015 141.767 L 381.030 135.500 387 132 C 390.284 130.075, 392.977 127.938, 392.985 127.250 C 393.004 125.659, 393.546 125.482, 386.065 129.513 M 301.928 153.081 C 298.943 155.862, 297.444 157.545, 298.597 156.819 C 301.837 154.781, 308.261 148.928, 307.783 148.450 C 307.548 148.215, 304.913 150.299, 301.928 153.081 M 340.705 162.250 C 335.722 169.336, 334.697 171, 335.316 171 C 335.555 171, 338.083 167.625, 340.935 163.500 C 343.787 159.375, 345.891 156, 345.610 156 C 345.330 156, 343.123 158.813, 340.705 162.250 M 337.880 172.250 C 331.813 181.475, 326.521 191, 327.463 191 C 327.736 191, 328.934 189.088, 330.125 186.750 C 331.317 184.412, 335.138 178.113, 338.616 172.750 C 342.095 167.387, 344.721 163, 344.452 163 C 344.183 163, 341.226 167.162, 337.880 172.250 M 283.966 170.679 L 278.500 176.357 283.500 172.090 C 287.835 168.390, 290.831 165, 289.766 165 C 289.582 165, 286.972 167.555, 283.966 170.679 M 268.084 187.894 C 264.828 192.005, 264.018 194.060, 266.448 192.043 C 267.921 190.820, 272.248 184, 271.550 184 C 271.340 184, 269.780 185.752, 268.084 187.894 M 324.720 188.250 C 320.095 196.205, 313.774 209.560, 315.404 207.930 C 316.195 207.139, 327.917 184, 327.527 184 C 327.342 184, 326.078 185.912, 324.720 188.250 M 482.050 193.797 C 478.443 197.404, 477 204.132, 477 217.349 C 477 224.212, 476.587 228.016, 475.750 228.859 C 474.747 229.869, 474.880 229.974, 476.424 229.386 C 478.023 228.776, 478.224 228.977, 477.614 230.576 C 477.058 232.036, 477.162 232.222, 478.045 231.346 C 478.796 230.601, 479.269 225.454, 479.378 216.846 C 479.510 206.406, 479.919 202.812, 481.254 200.338 C 483.363 196.430, 487.898 192.747, 489.734 193.451 C 490.567 193.771, 490.833 193.539, 490.413 192.859 C 490.020 192.223, 490.245 191.915, 490.936 192.145 C 491.604 192.368, 492.004 192.840, 491.825 193.194 C 491.646 193.549, 492.491 194.893, 493.701 196.182 C 494.912 197.471, 496.930 200.769, 498.186 203.512 C 500.321 208.173, 500.493 208.317, 500.806 205.708 C 501.192 202.490, 497.135 194.909, 493.762 192.546 C 490.208 190.057, 485.261 190.585, 482.050 193.797 M 320.124 203.514 C 318.956 205.494, 318 207.557, 318 208.097 C 318 208.637, 317.045 210.953, 315.877 213.242 C 313.448 218.003, 309.818 228.152, 310.353 228.686 C 310.550 228.883, 311.516 226.897, 312.500 224.272 C 313.484 221.648, 316.252 215.265, 318.651 210.090 C 323.145 200.396, 323.867 197.171, 320.124 203.514 M 501.508 210.250 C 501.272 210.938, 500.845 215.325, 500.559 220 C 499.821 232.070, 499.587 233.863, 498.819 233.388 C 498.445 233.157, 497.856 233.425, 497.510 233.984 C 497.165 234.543, 493.871 235.061, 490.191 235.136 C 486.511 235.211, 484.585 235.477, 485.912 235.727 C 487.779 236.079, 488.005 236.384, 486.912 237.075 C 485.988 237.661, 487.400 237.950, 491 237.914 C 494.759 237.877, 495.867 237.609, 494.500 237.069 C 492.866 236.423, 493.251 236.150, 496.611 235.575 C 500.294 234.944, 500.841 234.473, 501.868 231.047 C 502.864 227.722, 503.215 209, 502.281 209 C 502.092 209, 501.744 209.563, 501.508 210.250 M 466.500 230.952 L 463.500 231.667 467.119 232.420 C 469.109 232.835, 471.809 232.971, 473.119 232.723 C 474.967 232.373, 474.717 232.215, 472 232.018 L 468.500 231.763 471.500 231 C 474.176 230.319, 474.230 230.237, 472 230.237 C 470.625 230.237, 468.150 230.559, 466.500 230.952 M 302.758 239.755 C 297.193 256.433, 296.765 258.237, 298.173 259.107 C 299.987 260.228, 300.654 259.319, 302.977 252.566 C 305.805 244.348, 305.364 243.104, 302.423 251 C 299.075 259.986, 300.903 248.228, 304.497 237.655 C 305.403 234.991, 305.964 232.630, 305.743 232.410 C 305.523 232.190, 304.180 235.495, 302.758 239.755 M 457.150 235.006 C 454.868 236.660, 453 238.325, 453 238.706 C 453 239.088, 453.540 238.860, 454.200 238.200 C 456.335 236.065, 457.371 236.930, 455.405 239.206 C 453.715 241.163, 453.850 241.135, 456.597 238.956 C 458.301 237.605, 459.251 236.210, 458.708 235.855 C 458.165 235.500, 459.022 234.506, 460.611 233.645 C 462.200 232.784, 463.005 232.062, 462.400 232.040 C 461.795 232.018, 459.433 233.353, 457.150 235.006 M 505.438 238.900 C 505.812 239.505, 505.529 240.018, 504.809 240.040 C 504.089 240.062, 504.850 240.831, 506.500 241.749 C 508.150 242.668, 509.950 243.287, 510.500 243.126 C 511.050 242.965, 511.206 243.128, 510.846 243.487 C 510.486 243.847, 510.799 245.311, 511.540 246.740 C 512.522 248.632, 512.605 249.870, 511.845 251.290 C 511.137 252.612, 511.133 253.036, 511.832 252.604 C 512.418 252.242, 513.052 253.162, 513.300 254.733 C 513.540 256.255, 513.700 254.653, 513.655 251.173 C 513.585 245.816, 513.189 244.461, 511.069 242.341 C 508.216 239.488, 504.337 237.117, 505.438 238.900 M 487.250 249.735 C 489.863 249.941, 494.137 249.941, 496.750 249.735 C 499.363 249.529, 497.225 249.360, 492 249.360 C 486.775 249.360, 484.637 249.529, 487.250 249.735 M 229.985 253.035 C 229.213 254.899, 228.424 255.686, 228.006 255.009 C 227.268 253.816, 224.080 261.798, 221.619 271 C 220.810 274.025, 219.437 278.750, 218.569 281.500 C 215.779 290.330, 213 313.624, 213 328.182 C 213 342.631, 214.590 357, 216.189 357 C 216.709 357, 216.854 357.884, 216.512 358.964 C 215.869 360.990, 218.599 373.687, 220.079 375.550 C 220.537 376.127, 221.216 378.499, 221.587 380.822 C 221.959 383.144, 222.589 385.246, 222.987 385.492 C 223.385 385.738, 223.524 384.716, 223.295 383.220 C 222.817 380.102, 224.248 381.835, 225.486 385.875 C 226.035 387.667, 225.901 388.057, 224.937 387.461 C 223.989 386.875, 223.862 387.165, 224.444 388.586 C 226.204 392.887, 225.948 393.920, 221.474 400.569 C 218.908 404.381, 215.763 409.552, 214.484 412.061 C 212.479 415.992, 207.733 430.328, 206.393 436.500 L 205.959 438.500 206.909 436.500 L 207.859 434.500 208.021 436.500 C 208.109 437.600, 208.836 436.025, 209.635 433 C 210.434 429.975, 212.193 425.125, 213.544 422.223 C 214.895 419.320, 216 416.223, 216 415.341 C 216 413.662, 217.600 410.792, 224.555 400 C 229.215 392.768, 236.415 385.363, 243.093 380.933 C 245.517 379.324, 247.131 378.007, 246.680 378.004 C 246.229 378.002, 243.851 379.382, 241.396 381.072 C 238.940 382.761, 236.421 383.974, 235.798 383.766 C 233.889 383.130, 246.929 375.076, 252.485 373.461 C 258.327 371.763, 261.571 372.448, 266 376.317 L 268.500 378.500 266.060 375.733 C 259.133 367.879, 247.201 371.137, 232.848 384.803 L 228.196 389.232 226.085 384.458 C 223.600 378.842, 221.897 372.515, 218.827 357.500 C 216.928 348.215, 216.581 343.381, 216.603 326.500 C 216.626 308.664, 216.927 305.039, 219.385 293 C 222.183 279.300, 228.069 258.838, 230.702 253.657 C 231.497 252.093, 231.950 250.617, 231.708 250.375 C 231.467 250.133, 230.691 251.331, 229.985 253.035 M 479.001 274.509 C 479.522 277.942, 480.517 280.048, 482.370 281.642 C 485.680 284.489, 485.663 284.967, 482.250 285.136 C 479.726 285.261, 479.694 285.309, 481.865 285.721 C 485.009 286.317, 487.063 284.315, 485 282.666 C 484.175 282.007, 482.600 280.386, 481.500 279.064 C 479.885 277.123, 479.816 276.776, 481.140 277.257 C 482.391 277.711, 482.746 277.278, 482.640 275.427 C 482.563 274.093, 482.100 273.001, 481.610 273.001 C 481.121 273, 480.167 272.244, 479.491 271.319 C 478.488 269.947, 478.398 270.533, 479.001 274.509 M 445.160 280.750 C 441.072 287.120, 436.616 291.289, 430 294.934 C 426.975 296.600, 424.976 297.972, 425.559 297.982 C 426.141 297.992, 429.233 296.425, 432.430 294.500 C 438.830 290.646, 439.451 290.412, 438.409 292.250 C 438.019 292.938, 439.381 291.925, 441.437 290 C 445.382 286.305, 450.230 280.122, 448.197 281.378 C 446.726 282.288, 446.643 280.535, 448.035 277.934 C 450.010 274.245, 448.193 276.024, 445.160 280.750 M 328 280.599 C 320.575 281.889, 317.200 282.729, 320.500 282.466 C 328.511 281.828, 349.447 278.212, 345 278.235 C 343.075 278.245, 335.425 279.308, 328 280.599 M 509.027 281.368 C 506.354 282.966, 503.863 283.444, 498.210 283.444 C 491.444 283.444, 491.126 283.534, 494.182 284.582 C 496.964 285.536, 497.177 285.804, 495.500 286.244 C 494.234 286.576, 494.809 286.811, 497.068 286.884 C 501.932 287.042, 510.293 284.438, 512.401 282.109 C 514.896 279.352, 513.069 278.950, 509.027 281.368 M 299.500 284.497 C 295.100 285.212, 286.325 286.571, 280 287.517 C 273.675 288.463, 267.712 289.650, 266.750 290.154 C 264.605 291.277, 264.474 294.319, 266.500 296 C 267.427 296.769, 268.012 299.013, 268.033 301.872 C 268.135 316.353, 280.179 331, 291.984 331 C 296.739 331, 301.924 328.866, 304.659 325.784 C 306.470 323.743, 306.464 323.728, 304.306 324.860 C 303.099 325.493, 301.835 326.458, 301.497 327.005 C 301.159 327.552, 299.965 328, 298.844 328 C 297.201 328, 297.745 327.109, 301.653 323.401 L 306.500 318.802 301.609 322.901 C 298.919 325.155, 295.769 327.050, 294.609 327.111 C 285.208 327.604, 279.077 323.365, 274.198 313 C 271.659 307.607, 270.544 298.129, 272.247 296.422 C 272.658 296.010, 274.908 295.634, 277.247 295.587 C 281.460 295.501, 281.506 295.538, 282.108 299.500 L 282.716 303.500 282.858 299.269 C 282.984 295.508, 282.715 294.967, 280.433 294.394 C 276.644 293.443, 271.705 295.213, 270.277 298.034 L 269.029 300.500 269.015 297.750 C 269.005 295.979, 268.466 295, 267.500 295 C 265.054 295, 265.706 291.105, 268.250 290.524 C 271.831 289.705, 296.735 285.936, 305.444 284.894 C 309.814 284.372, 313.601 283.732, 313.861 283.472 C 314.677 282.657, 307.819 283.146, 299.500 284.497 M 367.389 295.500 C 367.390 302.650, 367.550 305.444, 367.742 301.708 C 367.935 297.973, 367.934 292.123, 367.739 288.708 C 367.545 285.294, 367.387 288.350, 367.389 295.500 M 465.750 283.998 C 466.438 284.769, 467 285.948, 467 286.617 C 467 288.367, 452.708 303.310, 447.090 307.434 C 444.474 309.354, 442.333 311.617, 442.333 312.463 C 442.333 313.308, 442.596 313.738, 442.917 313.417 C 443.238 313.096, 443.500 312.346, 443.500 311.750 C 443.500 311.154, 444.125 310.458, 444.889 310.204 C 445.812 309.896, 446.039 310.204, 445.565 311.120 C 445.173 311.879, 445.492 311.719, 446.275 310.766 C 447.057 309.812, 447.927 309.260, 448.207 309.540 C 448.850 310.183, 462.397 296.812, 467.022 290.970 C 468.935 288.553, 469.938 286.923, 469.250 287.347 C 468.472 287.827, 468 287.575, 468 286.681 C 468 285.891, 467.212 284.649, 466.250 283.921 C 464.761 282.794, 464.687 282.806, 465.750 283.998 M 318.500 288.876 C 320.963 289.401, 321.611 290.141, 322.118 293.008 L 322.737 296.500 322.868 292.857 C 323.007 289.011, 321.782 287.894, 317.668 288.118 C 316.097 288.204, 316.326 288.413, 318.500 288.876 M 369.915 299.315 C 370.480 299.880, 370.551 300.993, 370.079 301.903 C 368.762 304.443, 367.823 314.446, 368.608 317.573 C 369.140 319.693, 369.475 320.007, 369.912 318.792 C 370.423 317.370, 370.866 317.473, 373.306 319.579 C 375.138 321.160, 375.589 322, 374.605 322 C 373.777 322, 372.641 322.788, 372.080 323.750 C 371.187 325.283, 371.047 325.190, 370.951 323 C 370.891 321.625, 370.616 321.060, 370.339 321.746 C 369.497 323.831, 372.892 332.523, 377.078 339 C 382.298 347.076, 389.094 354.246, 396.627 359.625 C 403.399 364.461, 403.922 364.676, 403.602 362.497 C 403.481 361.670, 401.383 359.701, 398.941 358.121 C 396.498 356.541, 392.513 353.187, 390.084 350.668 C 387.656 348.148, 385.368 346.272, 385.001 346.499 C 384.634 346.726, 384.333 346.343, 384.333 345.647 C 384.333 344.951, 382.525 341.708, 380.315 338.441 C 375.559 331.410, 373.283 325.317, 374.834 323.766 C 375.787 322.813, 382.644 323.625, 390.500 325.623 C 392.128 326.037, 392.221 325.936, 391 325.081 C 389.774 324.222, 389.956 324.010, 392 323.916 C 393.375 323.854, 390.900 323.242, 386.500 322.557 C 376.117 320.941, 372.138 318.892, 371.259 314.707 L 370.585 311.500 369.839 314.500 C 369.426 316.162, 369.335 314.378, 369.634 310.500 C 369.932 306.650, 370.542 303.116, 370.990 302.647 C 371.930 301.664, 379.655 302.284, 385.500 303.812 C 391.292 305.327, 400.600 305.833, 407.500 305.010 L 413.500 304.294 407.897 304.147 C 398.038 303.888, 389.772 302.760, 391.183 301.866 C 391.983 301.359, 390.340 301.016, 387 300.994 C 383.975 300.975, 378.670 300.365, 375.212 299.641 C 371.609 298.886, 369.347 298.747, 369.915 299.315 M 420.500 298.935 L 418.500 299.730 420.500 300.222 C 421.877 300.560, 421.175 300.953, 418.250 301.484 C 415.913 301.909, 414 302.678, 414 303.195 C 414 304.188, 416.537 303.600, 421.500 301.458 C 423.150 300.746, 423.825 300.120, 423 300.066 C 421.667 299.980, 421.667 299.862, 423 299 C 424.780 297.850, 423.326 297.812, 420.500 298.935 M 312.006 304.112 C 312.010 304.875, 312.685 306.789, 313.506 308.364 C 315.343 311.886, 315.497 313.897, 313.800 312.200 C 311.711 310.111, 309.993 310.834, 310.116 313.750 C 310.187 315.442, 310.408 315.827, 310.689 314.750 C 311.352 312.215, 312.145 312.533, 316.420 317.044 C 321.471 322.374, 326.847 325.035, 332.210 324.859 L 336.500 324.718 331.394 324.095 C 328.212 323.706, 324.759 322.412, 322.230 320.659 C 317.316 317.254, 314.450 314.216, 315.325 313.341 C 315.681 312.986, 316.831 313.776, 317.881 315.097 C 318.932 316.419, 321.300 318.307, 323.145 319.294 C 326.371 321.018, 326.406 321.018, 324.037 319.294 C 320.349 316.608, 317.803 313.460, 314.750 307.812 C 313.238 305.013, 312.003 303.348, 312.006 304.112 M 325.786 305.500 C 327.893 309.545, 332.640 313.070, 336.594 313.525 L 340.500 313.975 336.119 312.719 C 333.215 311.886, 330.561 310.121, 328.242 307.481 C 326.318 305.292, 325.213 304.400, 325.786 305.500 M 436 314.500 C 434.625 315.286, 434.089 315.945, 434.809 315.965 C 435.529 315.984, 435.817 316.487, 435.449 317.083 C 435.081 317.678, 436.179 317.441, 437.890 316.557 C 441.183 314.854, 442.141 313.625, 439.336 314.701 C 438.217 315.131, 437.909 314.957, 438.395 314.170 C 439.300 312.706, 439.088 312.735, 436 314.500 M 412 323.122 C 414.286 323.620, 412.378 323.784, 406.500 323.594 C 401.550 323.434, 398.850 323.473, 400.500 323.682 C 402.150 323.891, 404.453 324.541, 405.617 325.128 C 407.192 325.922, 409.689 325.761, 415.367 324.497 C 419.565 323.563, 423 322.682, 423 322.539 C 423 322.396, 419.738 322.297, 415.750 322.318 C 409.961 322.350, 409.205 322.512, 412 323.122 M 341.377 344.689 C 340.368 347.335, 337.612 351.433, 335.252 353.795 C 332.893 356.158, 331.758 357.659, 332.731 357.131 C 335.956 355.382, 339.864 350.564, 342.030 345.667 C 343.205 343.009, 343.952 340.619, 343.689 340.356 C 343.427 340.093, 342.386 342.043, 341.377 344.689 M 296.457 344.834 C 296.747 346.668, 297.888 349.439, 298.994 350.991 C 301.087 353.931, 309.546 360.033, 311.421 359.956 C 312.015 359.931, 310.925 359.072, 309 358.046 C 304.237 355.506, 299.883 350.737, 297.726 345.695 C 296.007 341.679, 295.953 341.642, 296.457 344.834 M 314.728 344.722 C 316.503 344.943, 319.653 344.946, 321.728 344.730 C 323.802 344.513, 322.350 344.333, 318.500 344.328 C 314.650 344.324, 312.952 344.501, 314.728 344.722 M 323.713 349.241 C 320.571 351.062, 319.595 351.228, 317.977 350.218 C 315.467 348.650, 310.122 348.659, 306.782 350.235 L 304.166 351.470 307.267 354.239 C 315.082 361.216, 324.693 360.291, 333.323 351.730 C 336.170 348.906, 337.699 347.202, 336.720 347.944 C 335.329 349, 334.391 349.044, 332.423 348.147 C 329.002 346.588, 328.093 346.702, 323.713 349.241 M 618.594 357.849 C 618.305 358.315, 618.927 359.617, 619.974 360.742 C 621.022 361.867, 621.691 362.975, 621.461 363.206 C 621.231 363.436, 621.788 366.244, 622.699 369.446 C 624.285 375.022, 624.276 375.325, 622.486 376.634 C 620.802 377.865, 620.787 378, 622.334 378 C 623.467 378, 624.269 376.905, 624.695 374.776 L 625.339 371.553 626.660 375.026 L 627.981 378.500 627.363 374.013 C 627.022 371.545, 626.127 367.776, 625.372 365.637 C 623.615 360.657, 623.642 360.228, 625.750 359.704 C 626.712 359.465, 626.267 359.422, 624.761 359.608 C 623.254 359.794, 621.229 359.620, 620.261 359.223 C 619.061 358.730, 620.093 358.311, 623.500 357.907 L 628.500 357.314 623.809 357.157 C 621.229 357.071, 618.882 357.382, 618.594 357.849 M 404.413 363.610 C 404.931 367.138, 432.303 379.853, 451.500 385.484 C 456.450 386.936, 463.425 389.016, 467 390.107 C 489.656 397.021, 514.042 397.547, 544.788 391.788 C 550.439 390.730, 550.957 390.477, 548.066 390.188 C 545.425 389.925, 544.963 389.612, 546.066 388.836 C 547.130 388.087, 546.854 387.982, 545 388.430 C 530.110 392.024, 493.894 393.243, 482.416 390.535 C 479.069 389.746, 475.364 389.354, 474.182 389.663 C 472.999 389.972, 470.787 389.898, 469.266 389.498 C 466.790 388.847, 466.706 388.695, 468.464 388.047 C 469.984 387.487, 469.463 387.170, 466.153 386.640 C 463.802 386.265, 461.386 386.261, 460.785 386.633 C 460.169 387.014, 459.974 386.852, 460.339 386.261 C 461.058 385.097, 456.456 383.600, 454.975 384.516 C 454.461 384.833, 452.177 384.534, 449.900 383.852 C 446.510 382.836, 446.098 382.469, 447.629 381.829 C 448.731 381.369, 447.993 381.282, 445.832 381.619 C 443.815 381.934, 441.340 381.712, 440.332 381.126 C 438.593 380.115, 438.602 380.056, 440.500 379.975 C 441.600 379.928, 439.350 378.747, 435.500 377.352 C 426.875 374.225, 425.225 373.467, 416.715 368.714 C 412.983 366.630, 409.426 365.237, 408.810 365.617 C 408.078 366.070, 407.974 365.851, 408.510 364.985 C 409.103 364.025, 408.873 363.835, 407.676 364.294 C 406.722 364.660, 406.125 364.468, 406.262 363.839 C 406.393 363.240, 405.974 362.556, 405.330 362.318 C 404.674 362.076, 404.271 362.643, 404.413 363.610 M 639.989 364.682 C 642.950 366.157, 647.957 369.990, 651.116 373.199 C 654.613 376.750, 657.127 378.604, 657.540 377.936 C 658.374 376.587, 652.618 369.393, 651.010 369.775 C 650.373 369.926, 650.115 369.623, 650.437 369.101 C 650.760 368.580, 649.556 367.133, 647.762 365.887 L 644.500 363.622 646.500 365.944 C 648.292 368.024, 647.919 367.940, 642.919 365.133 C 639.850 363.410, 636.724 362, 635.973 362 C 635.222 362, 637.029 363.207, 639.989 364.682 M 657.410 379.539 C 657.119 380.653, 654.770 382.901, 652.190 384.533 C 645.532 388.745, 640.897 393.024, 641.658 394.255 C 642.023 394.846, 641.835 395.016, 641.231 394.643 C 639.545 393.601, 636.427 398.830, 634.130 406.555 C 632.976 410.435, 630.693 415.631, 629.056 418.102 C 625.501 423.469, 612.614 435.882, 600.917 445.207 C 596.336 448.859, 596.059 449.378, 595.694 455 C 595.587 456.650, 595.050 458.029, 594.500 458.063 C 593.950 458.098, 594.471 458.518, 595.657 458.997 C 598.186 460.017, 621.024 462.613, 635.818 463.563 L 646.137 464.226 644.271 466.363 C 643.245 467.538, 641.812 469.400, 641.087 470.500 C 640.363 471.600, 641.388 470.700, 643.366 468.500 C 646.511 465.003, 646.767 464.353, 645.400 463.330 C 644.042 462.314, 644.142 462.102, 646.169 461.716 C 647.451 461.472, 644.222 461.211, 638.994 461.136 C 624.806 460.933, 598.164 457.498, 596.297 455.631 C 595.061 454.394, 597.310 451.780, 604.697 445.867 C 616.163 436.690, 632.296 420.214, 631.598 418.395 C 631.282 417.570, 631.421 417.142, 631.907 417.442 C 632.393 417.743, 633.057 417.293, 633.384 416.442 C 633.724 415.557, 633.555 415.157, 632.989 415.507 C 631.705 416.300, 631.653 416.539, 634.410 409 C 636.374 403.630, 636.869 402.935, 637.257 405 C 637.635 407.008, 637.754 406.820, 637.864 404.043 C 637.976 401.196, 639.120 399.493, 644.351 394.389 C 647.844 390.981, 652.486 387.282, 654.668 386.170 C 660.427 383.231, 661.773 381.344, 659.634 379.206 C 658.042 377.614, 657.908 377.634, 657.410 379.539 M 580.500 381 C 577.710 381.710, 577.675 381.773, 580 381.897 C 581.998 382.004, 582.199 382.225, 581 383 C 579.667 383.862, 579.667 383.963, 581 383.914 C 583.248 383.832, 586.844 382.160, 585 382.055 C 583.667 381.979, 583.667 381.862, 585 381 C 586.333 380.138, 586.333 380.042, 585 380.134 C 584.175 380.190, 582.150 380.580, 580.500 381 M 259 390.226 C 255.425 393.026, 248.830 399.030, 244.344 403.567 C 232.826 415.217, 228.683 423.805, 226.054 441.478 C 224.992 448.616, 224.320 454.654, 224.562 454.895 C 224.803 455.136, 225.059 454.471, 225.132 453.417 C 225.204 452.362, 225.630 453.075, 226.078 455 C 226.684 457.601, 226.786 456.830, 226.476 452 C 226.230 448.163, 226.390 446.302, 226.866 447.458 C 227.488 448.968, 227.825 448.282, 228.342 444.458 C 228.711 441.731, 229.241 438.150, 229.520 436.500 C 229.942 434.008, 229.859 433.839, 229.031 435.500 C 228.117 437.335, 228.054 437.294, 228.267 435 C 228.395 433.625, 228.903 432.725, 229.395 433 C 229.888 433.275, 230.933 431.297, 231.718 428.603 C 233.414 422.788, 235.720 419, 237.564 419 C 238.298 419, 240.134 420.688, 241.644 422.750 C 245.640 428.207, 246.201 428.757, 245.476 426.500 C 244.910 424.740, 245.083 424.783, 246.916 426.861 C 249.435 429.714, 249.681 431.787, 247.275 429.872 C 245.055 428.106, 250.734 435.956, 256.603 442.765 C 259.099 445.661, 261.572 447.764, 262.098 447.439 C 263.197 446.760, 269.021 452.632, 268.958 454.356 C 268.935 454.985, 267.360 453.738, 265.458 451.583 C 263.556 449.429, 262 448.155, 262 448.752 C 262 449.349, 265.915 453.466, 270.701 457.903 C 276.755 463.515, 279.640 465.593, 280.185 464.734 C 280.888 463.627, 281.392 464.386, 281.143 466.177 C 281.035 466.954, 290.433 475, 291.448 475 C 291.816 475, 291.797 474.480, 291.405 473.845 C 290.959 473.124, 291.131 472.963, 291.862 473.415 C 292.506 473.813, 292.808 474.502, 292.533 474.947 C 292.258 475.392, 293.877 476.976, 296.131 478.468 C 298.385 479.960, 299.926 480.690, 299.556 480.090 C 298.559 478.477, 300.333 478.768, 302.559 480.582 C 304.216 481.932, 304.244 482.083, 302.750 481.613 C 299.749 480.669, 300.818 481.727, 305.524 484.357 C 308.012 485.748, 309.785 486.461, 309.465 485.943 C 308.702 484.709, 309.661 484.748, 312.094 486.050 C 313.173 486.628, 313.821 487.481, 313.534 487.945 C 313.247 488.410, 313.707 489.057, 314.558 489.384 C 315.567 489.771, 315.855 489.575, 315.388 488.819 C 314.903 488.034, 315.235 487.876, 316.418 488.330 C 317.378 488.699, 318.464 489.007, 318.832 489.015 C 319.199 489.024, 318.921 489.398, 318.214 489.846 C 316.630 490.852, 335.208 500.197, 339.152 500.378 C 340.610 500.445, 341.665 500.726, 341.495 501.003 C 341.326 501.280, 343.283 501.555, 345.844 501.616 L 350.500 501.725 345.500 500.078 C 342.750 499.173, 338.137 497.202, 335.250 495.699 C 332.363 494.196, 330 493.203, 330 493.492 C 330 493.780, 325.095 491.557, 319.100 488.550 C 308.858 483.414, 295.061 474.714, 288.665 469.360 C 287.106 468.055, 285.408 467.248, 284.891 467.568 C 284.373 467.887, 284.074 467.742, 284.225 467.244 C 284.376 466.746, 281.820 463.900, 278.545 460.920 C 271.001 454.053, 261.499 444.084, 255.747 437 C 250.255 430.236, 240 415.221, 240 413.944 C 240 413.428, 241.638 411.193, 243.640 408.976 C 245.642 406.760, 247.059 404.726, 246.788 404.455 C 246.222 403.889, 239 412.900, 239 414.173 C 239 414.637, 240.350 416.881, 242 419.159 C 246.158 424.899, 245.766 426.254, 241.416 421.173 C 239.445 418.870, 237.451 417.221, 236.985 417.509 C 232.384 420.353, 240.929 407.007, 247.633 400.879 C 249.210 399.438, 251.850 397.472, 253.500 396.510 L 256.500 394.762 253.500 397.679 C 248.726 402.321, 247.193 404.864, 251.547 400.918 C 253.721 398.949, 257.803 395.692, 260.618 393.680 C 263.432 391.669, 266.349 389.231, 267.100 388.262 C 268.225 386.811, 268.071 386.837, 266.227 388.411 C 263.415 390.810, 262.052 389.705, 264.494 387.006 C 267.214 384.001, 266.156 384.621, 259 390.226 M 492 393.558 C 495.644 394.351, 505.835 394.542, 505.382 393.810 C 505.107 393.364, 501.646 393.052, 497.691 393.116 C 493.736 393.180, 491.175 393.379, 492 393.558 M 589 416.945 C 584.325 418.518, 580.992 419.849, 581.593 419.903 C 582.195 419.956, 585.303 419.100, 588.500 418 C 591.697 416.900, 595.480 416.016, 596.907 416.035 L 599.500 416.071 597 417.500 C 593.993 419.219, 595.859 419.477, 599.453 417.839 C 602.603 416.404, 602.792 413.985, 599.750 414.043 C 598.513 414.066, 593.675 415.373, 589 416.945 M 353.001 416.750 C 353.001 417.955, 356.349 420.272, 363.751 424.189 C 376.699 431.041, 389.833 436.162, 403.051 439.513 C 413.478 442.156, 418.527 442.733, 411 440.422 L 406.500 439.040 414 439.453 L 421.500 439.865 412.500 438.026 C 402.227 435.927, 386.800 431.128, 378.442 427.432 C 375.312 426.048, 372.586 425.081, 372.384 425.283 C 372.181 425.485, 374.289 426.678, 377.067 427.933 C 379.845 429.189, 381.907 430.427, 381.649 430.684 C 381.036 431.298, 368.398 425.730, 360.296 421.277 C 352.806 417.160, 352.462 415.680, 359.867 419.433 C 367.275 423.186, 367.523 422.546, 360.233 418.489 C 352.966 414.444, 353 414.452, 353.001 416.750 M 675.063 428.668 C 674.880 432.041, 676.281 433, 681.384 433 C 684.446 433, 687.462 433.635, 688.777 434.557 C 690.078 435.467, 691 435.665, 691 435.032 C 691 433.429, 686.477 432, 681.403 432 C 677.705 432, 676.780 431.613, 676.031 429.750 C 675.534 428.512, 675.098 428.026, 675.063 428.668 M 700.111 428.250 C 700.050 428.662, 700.728 433.162, 701.619 438.250 C 703.166 447.091, 703.133 463.036, 701.541 475.500 L 701.031 479.500 702.168 475.500 C 703.928 469.307, 703.650 439.688, 701.768 433 C 700.917 429.975, 700.171 427.837, 700.111 428.250 M 540 430.550 C 537.525 431.259, 536.288 431.875, 537.250 431.920 C 541.106 432.097, 538.611 433.900, 531.750 435.895 C 527.763 437.055, 526.075 437.777, 528 437.499 C 529.925 437.222, 535.325 435.910, 540 434.584 C 547.699 432.401, 548.123 432.159, 544.500 432.011 L 540.500 431.848 544 430.500 C 548.391 428.809, 545.973 428.839, 540 430.550 M 522.500 434.621 C 519.750 435.377, 513.450 436.662, 508.500 437.477 L 499.500 438.959 507 438.510 C 513.748 438.106, 519.637 436.902, 528.500 434.115 C 533.215 432.633, 528.200 433.056, 522.500 434.621 M 678.605 435.170 C 679.091 435.957, 678.783 436.131, 677.664 435.701 C 676.459 435.239, 676 435.606, 676 437.031 C 676 438.352, 676.678 439, 678.059 439 C 679.191 439, 679.840 438.550, 679.500 438 C 679.139 437.417, 680.156 437, 681.941 437 C 685.507 437, 686.017 435.506, 682.750 434.630 C 679.251 433.693, 677.808 433.880, 678.605 435.170 M 715.365 444.500 C 715.368 450, 715.536 452.122, 715.738 449.216 C 715.941 446.311, 715.939 441.811, 715.734 439.216 C 715.528 436.622, 715.363 439, 715.365 444.500 M 203.060 448.192 C 201.789 453.064, 199.920 458.104, 198.907 459.391 C 197.894 460.679, 197.306 461.972, 197.599 462.266 C 197.893 462.560, 197.584 463.139, 196.912 463.554 C 196.132 464.037, 195.949 463.892, 196.405 463.155 C 197.501 461.381, 196.516 461.714, 189.238 465.578 C 185.532 467.545, 183.513 468.937, 184.751 468.671 C 185.990 468.404, 186.751 468.595, 186.442 469.093 C 186.134 469.592, 185.435 470, 184.888 470 C 184.341 470, 182.238 471.125, 180.215 472.500 C 178.191 473.875, 176.195 475, 175.780 475 C 174.403 475, 175.471 470.512, 177 469.873 C 177.825 469.528, 176.700 469.215, 174.500 469.176 C 169.811 469.094, 160.723 471.480, 157.378 473.672 C 154.263 475.713, 151 481.127, 151 484.253 C 151 485.834, 150.071 487.379, 148.500 488.408 C 146.405 489.781, 146 490.828, 146 494.871 C 146 499.572, 146.103 499.737, 150 501.268 C 152.634 502.303, 154.001 503.464, 154.004 504.670 C 154.010 507.640, 157.749 512.899, 160.313 513.542 C 161.619 513.870, 164.220 513.698, 166.094 513.159 C 168.194 512.556, 168.733 512.140, 167.500 512.075 C 165.839 511.987, 165.754 511.807, 167 511.013 C 168.030 510.356, 167.327 510.245, 164.758 510.658 C 159.935 511.433, 157.986 509.827, 158.046 505.128 C 158.088 501.822, 158.678 501.078, 164.695 496.750 C 168.327 494.137, 170.808 492, 170.208 492 C 169.609 492, 168.840 492.450, 168.500 493 C 168.160 493.550, 167.121 493.986, 166.191 493.968 C 164.706 493.940, 164.735 493.759, 166.427 492.479 C 167.487 491.677, 168.096 490.763, 167.781 490.448 C 167.466 490.132, 164.842 491.976, 161.951 494.543 C 157.289 498.684, 156.302 499.148, 153.223 498.649 C 149.063 497.974, 149.165 498.062, 148.046 494.162 C 147.418 491.972, 147.488 491.118, 148.282 491.276 C 148.902 491.399, 149.430 490.975, 149.455 490.333 C 149.480 489.692, 149.910 488.792, 150.410 488.333 C 150.939 487.849, 151.019 488.024, 150.601 488.750 C 149.651 490.401, 150.468 490.327, 154.143 488.426 C 155.816 487.561, 156.912 486.578, 156.576 486.243 C 156.241 485.908, 155.434 486.166, 154.783 486.817 C 153.142 488.458, 150.947 488.302, 151.604 486.590 C 151.901 485.815, 153.350 484.863, 154.822 484.476 C 157.091 483.878, 157.223 483.669, 155.687 483.100 C 153.977 482.468, 153.997 482.274, 156.032 479.687 C 158.856 476.096, 164.826 473.115, 170.747 472.340 C 173.361 471.998, 175.190 472.054, 174.812 472.464 C 174.433 472.874, 170.383 475.451, 165.812 478.189 C 161.240 480.928, 158.273 482.926, 159.218 482.628 C 160.163 482.331, 161.191 482.501, 161.504 483.006 C 161.839 483.549, 163.067 483.471, 164.504 482.816 C 165.842 482.206, 166.664 481.265, 166.329 480.724 C 165.995 480.183, 166.340 479.947, 167.096 480.199 C 167.852 480.451, 173.203 477.896, 178.986 474.521 C 184.769 471.146, 190.316 468.076, 191.313 467.699 C 192.362 467.303, 192.824 466.524, 192.409 465.853 C 191.969 465.141, 192.127 464.960, 192.815 465.386 C 193.434 465.768, 196.087 464.938, 198.712 463.540 C 201.337 462.143, 204.066 461, 204.777 461 C 205.488 461, 207.196 460.262, 208.573 459.360 C 210.812 457.893, 211.203 457.882, 212.288 459.250 C 212.954 460.091, 215.215 461.323, 217.312 461.988 C 221.800 463.410, 223 465.817, 223 473.398 C 223 489.334, 216.781 500.667, 203.837 508.318 C 199.960 510.610, 198.421 512.062, 198.955 512.927 C 199.569 513.921, 200.400 513.845, 202.867 512.569 C 204.590 511.678, 206 510.719, 206 510.439 C 206 510.159, 205.130 510.395, 204.066 510.965 C 203.002 511.534, 201.764 511.986, 201.316 511.968 C 200.215 511.925, 203.800 509.212, 207.500 507.287 L 210.500 505.726 208.500 508.052 L 206.500 510.378 209.683 508.169 C 217.554 502.705, 226.252 488.514, 224.440 484.090 C 224.082 483.216, 223.848 479.125, 223.920 475 C 224.002 470.297, 223.536 466.535, 222.670 464.913 C 221.505 462.733, 221.501 462.035, 222.644 460.472 C 223.390 459.452, 223.971 457.916, 223.937 457.059 C 223.897 456.091, 223.530 456.353, 222.969 457.750 C 221.895 460.422, 221.541 460.457, 215.876 458.450 C 213.469 457.598, 210.062 457.022, 208.304 457.171 C 206.546 457.319, 204.795 457.129, 204.414 456.748 C 204.033 456.366, 204.493 453.305, 205.436 449.944 C 206.379 446.583, 206.897 443.173, 206.587 442.365 C 206.270 441.541, 206.457 441.164, 207.011 441.507 C 207.555 441.843, 208 441.491, 208 440.726 C 208 439.960, 207.408 439.333, 206.685 439.333 C 205.872 439.333, 204.489 442.711, 203.060 448.192 M 424 440.995 C 426.469 441.791, 435.724 442.337, 434.917 441.640 C 434.688 441.442, 431.575 441.035, 428 440.735 C 424.100 440.408, 422.500 440.512, 424 440.995 M 436.239 442.572 C 436.949 443.282, 477.107 443.227, 477.818 442.515 C 478.101 442.232, 468.733 442, 457 442 C 445.267 442, 435.924 442.258, 436.239 442.572 M 678 443.117 C 678 443.774, 678.903 443.997, 680.198 443.658 C 681.407 443.342, 682.993 443.579, 683.722 444.184 C 684.452 444.790, 685.362 444.971, 685.745 444.588 C 686.128 444.205, 685.780 443.473, 684.971 442.961 C 682.913 441.659, 678 441.769, 678 443.117 M 439.500 445.027 C 446.843 445.787, 469.635 446.261, 468.917 445.639 C 468.687 445.440, 460.400 445.058, 450.500 444.790 C 440.505 444.519, 435.613 444.625, 439.500 445.027 M 688.250 446.305 C 690.431 448.069, 690.528 451.583, 688.418 452.393 C 687.548 452.727, 685.523 453, 683.918 453 C 681.838 453, 681 453.488, 681 454.700 C 681 456.022, 681.267 456.133, 682.200 455.200 C 682.860 454.540, 684.570 454, 686 454 C 687.430 454, 689.140 453.460, 689.800 452.800 C 691.775 450.825, 691.213 447.174, 688.750 445.980 C 686.719 444.996, 686.671 445.028, 688.250 446.305 M 679.693 446.641 C 678.552 447.782, 681.042 451, 683.067 451 C 684.954 451, 686.826 448.493, 685.746 447.413 C 684.896 446.562, 680.351 445.982, 679.693 446.641 M 593.508 450.986 C 593.173 451.529, 588.642 454.940, 583.440 458.567 C 578.238 462.194, 574.200 465.515, 574.467 465.947 C 574.734 466.379, 574.060 467.541, 572.968 468.529 C 571.111 470.209, 571.090 470.442, 572.647 472.162 C 574.623 474.346, 574.594 474.351, 569.572 472.603 L 565.644 471.235 568.759 469.625 C 570.472 468.739, 572.206 467.475, 572.614 466.816 C 573.021 466.157, 571.587 466.676, 569.427 467.969 C 564.268 471.058, 563.256 471.995, 565.050 472.022 C 565.971 472.036, 565.588 472.758, 564 474 C 560.554 476.695, 557.700 476.610, 561 473.911 L 563.500 471.866 561 473.089 C 559.625 473.761, 555.221 476.296, 551.213 478.721 L 543.925 483.130 537.213 479.387 C 533.521 477.328, 527.458 473.699, 523.740 471.322 C 520.022 468.945, 516.647 467.001, 516.240 467.002 C 515.368 467.004, 525.760 473.869, 535 479.395 C 542.706 484.003, 545.511 484.238, 550.193 480.667 C 554.151 477.647, 557.120 476.946, 554.968 479.538 C 554.266 480.384, 556.927 479.211, 560.881 476.932 C 568.555 472.507, 568.327 472.520, 576.500 476.071 C 580.939 478, 594.097 480.653, 594.665 479.733 C 595.001 479.189, 597.673 479.040, 600.878 479.386 C 616.502 481.077, 615.941 481.066, 609.500 479.545 C 606.200 478.766, 601.700 478.075, 599.500 478.010 C 592.571 477.805, 573.547 472.602, 573.204 470.818 C 573.010 469.811, 575.197 467.691, 579.199 465.006 C 582.665 462.681, 585.391 460.390, 585.259 459.915 C 585.126 459.440, 587.488 457.186, 590.509 454.906 C 593.529 452.625, 596 450.589, 596 450.380 C 596 449.581, 594.090 450.046, 593.508 450.986 M 716.355 469.500 C 716.352 474.450, 716.521 476.601, 716.731 474.280 C 716.940 471.959, 716.943 467.909, 716.736 465.280 C 716.530 462.651, 716.358 464.550, 716.355 469.500 M 499 466 C 497.900 467.100, 497.004 469.012, 497.010 470.250 C 497.029 474.790, 501.683 482.501, 507.841 488.197 C 511.228 491.331, 514 494.127, 514 494.412 C 514 495.301, 509.756 497.311, 503 499.620 C 498.770 501.065, 497.373 501.874, 499 501.936 C 501.058 502.014, 501.235 502.222, 500 503.110 C 498.791 503.979, 498.889 504.055, 500.500 503.500 C 506.149 501.555, 516.743 498.154, 518.500 497.723 C 520.023 497.349, 519.844 497.204, 517.750 497.116 C 515.793 497.033, 515 496.472, 515 495.167 C 515 494.159, 513.217 491.902, 511.039 490.151 C 506.671 486.641, 501.424 480.242, 502.243 479.424 C 502.530 479.137, 505.129 481.287, 508.019 484.201 L 513.274 489.500 508.161 483.695 C 500.231 474.693, 499.098 467.908, 505.323 466.696 L 507.500 466.272 505.321 466.136 C 500.862 465.857, 498.940 470.082, 501.028 475.574 C 502.599 479.706, 501.235 479.807, 499.513 475.686 C 497.449 470.746, 497.611 468.441, 500.189 466.039 C 501.392 464.918, 502.067 464, 501.689 464 C 501.310 464, 500.100 464.900, 499 466 M 660.647 464.674 C 663.211 466.521, 664.410 474.674, 664.373 490 C 664.345 501.758, 664.553 504.414, 665.234 501 C 666.446 494.933, 665.446 473.456, 663.724 468.556 C 662.961 466.387, 661.699 464.440, 660.919 464.230 C 659.950 463.969, 659.864 464.110, 660.647 464.674 M 646.831 468.255 C 644.345 470.346, 640 477.730, 640 479.863 C 640 480.381, 643.113 481.751, 646.918 482.906 C 650.723 484.062, 654.062 485.568, 654.339 486.254 C 654.720 487.197, 654.861 487.205, 654.921 486.285 C 655.020 484.768, 652.263 483.267, 645.921 481.384 C 643.215 480.580, 641 479.697, 641 479.421 C 641 477.617, 645.432 470.815, 648.033 468.626 C 649.749 467.182, 650.781 466.002, 650.327 466.005 C 649.872 466.008, 648.299 467.020, 646.831 468.255 M 627 483.194 C 634.067 485.193, 635.298 485.936, 634.044 487.447 C 632.711 489.053, 634.382 492.549, 636.955 493.536 C 637.779 493.852, 637.367 492.955, 636.040 491.542 C 634.273 489.662, 633.924 488.676, 634.735 487.865 C 635.930 486.670, 635.312 483.956, 633.573 482.765 C 632.983 482.361, 630.475 482.070, 628 482.117 L 623.500 482.204 627 483.194 M 200.967 489.329 C 198.264 490.677, 197.610 493.500, 200 493.500 C 200.825 493.500, 201.376 492.904, 201.225 492.176 C 201.074 491.447, 201.415 491.138, 201.982 491.489 C 202.550 491.840, 203.292 491.404, 203.631 490.520 C 204.507 488.237, 203.796 487.919, 200.967 489.329 M 652.749 490.680 C 651.277 492.152, 650.428 492.211, 645.885 491.163 C 639.514 489.692, 638.344 490.418, 643.596 492.583 C 645.743 493.468, 648.513 495.127, 649.750 496.270 C 650.987 497.413, 652 498.063, 652 497.713 C 652 497.364, 651.015 496.160, 649.811 495.039 C 647.665 493.040, 647.662 493, 649.656 493 C 650.775 493, 652.505 492.100, 653.500 491 C 655.693 488.577, 655.103 488.326, 652.749 490.680 M 563.944 492.320 C 566.129 493.624, 566.190 493.817, 564.512 494.140 C 563.346 494.364, 564.600 495.130, 567.820 496.160 C 570.672 497.072, 572.753 497.409, 572.444 496.909 C 571.577 495.506, 575.205 495.901, 578 497.513 C 580.484 498.946, 580.477 498.952, 577 498.478 C 575.075 498.215, 577.127 499.068, 581.561 500.373 C 587.392 502.090, 590.711 502.554, 593.561 502.052 L 597.500 501.357 591.500 500.144 C 588.200 499.478, 584.745 498.514, 583.823 498.003 C 582.901 497.492, 578.401 495.991, 573.823 494.668 C 569.245 493.344, 564.600 491.947, 563.500 491.562 C 562.163 491.094, 562.311 491.346, 563.944 492.320 M 521.250 495.009 C 522.763 496.196, 524 497.721, 524 498.398 C 524 499.891, 529.995 502.871, 531.767 502.259 C 532.464 502.019, 530.439 500.151, 527.267 498.110 C 519.926 493.384, 517.749 492.262, 521.250 495.009 M 641.553 496.724 C 640.553 499.327, 645.354 502.313, 647.342 500.324 C 648.041 499.626, 644.209 495, 642.933 495 C 642.537 495, 641.916 495.776, 641.553 496.724 M 189.500 499.649 C 185.908 502.859, 185.843 502.993, 188.866 500.961 L 192.231 498.699 190.987 501.099 C 190.303 502.420, 189.033 504.400, 188.166 505.500 C 187.298 506.600, 188.763 505.412, 191.421 502.860 C 194.134 500.255, 195.953 497.733, 195.568 497.110 C 194.547 495.458, 193.878 495.737, 189.500 499.649 M 650.769 500.776 C 650.291 502.604, 649.480 503, 646.212 503 C 642.336 503, 642.209 503.111, 641.104 507.500 C 639.837 512.533, 638.931 512.865, 634.250 510.011 C 632.462 508.921, 631 508.254, 631 508.529 C 631 509.314, 637.361 512.992, 638.724 512.996 C 639.774 512.999, 643.080 508.008, 643.020 506.510 C 643.009 506.230, 643 505.550, 643 505 C 643 504.450, 644.814 504, 647.031 504 C 651.056 504, 652.686 502.558, 651.770 499.809 C 651.539 499.117, 651.089 499.552, 650.769 500.776 M 625.465 511.383 C 625.104 513.793, 625.024 516.606, 625.288 517.633 C 625.593 518.821, 625.810 518.407, 625.884 516.493 C 625.948 514.840, 626.419 512.027, 626.930 510.243 C 627.443 508.454, 627.471 507, 626.991 507 C 626.514 507, 625.827 508.972, 625.465 511.383 M 548 509 C 549.333 509.862, 549.333 509.973, 548 510.003 C 546.134 510.045, 560.630 516.061, 569.509 518.929 C 573.132 520.100, 576.551 520.777, 577.106 520.435 C 577.660 520.092, 579.302 520.110, 580.755 520.475 C 582.889 521.010, 583.118 521.333, 581.948 522.155 C 580.860 522.920, 581.121 523.031, 583 522.600 C 584.375 522.285, 586.175 521.982, 587 521.928 C 588.751 521.811, 586.598 521.039, 575 517.627 C 564.609 514.569, 552.110 510.282, 549.764 508.970 C 547.510 507.711, 546.043 507.736, 548 509 M 450 512 C 452.475 512.385, 453.637 512.767, 452.583 512.850 C 451.529 512.932, 450.903 513.236, 451.192 513.525 C 451.481 513.814, 454.368 513.716, 457.609 513.307 L 463.500 512.564 458.500 511.870 C 455.750 511.488, 451.700 511.203, 449.500 511.238 L 445.500 511.300 450 512 M 403.083 512.406 C 403.313 512.629, 409.575 513.038, 417 513.313 C 426.600 513.670, 428.333 513.590, 423 513.038 C 414.605 512.169, 402.444 511.783, 403.083 512.406 M 792.699 520.942 C 773.488 523.607, 756.428 541.048, 752.408 562.132 C 750.710 571.035, 750.574 574.216, 751.987 572 C 752.650 570.961, 752.767 571.598, 752.369 574.076 C 751.616 578.766, 754.239 588.791, 758.127 596.086 C 762.312 603.938, 772.214 613.269, 780.453 617.125 C 784.070 618.818, 787.722 619.937, 788.567 619.613 C 789.412 619.288, 789.849 619.435, 789.538 619.938 C 788.704 621.288, 799.016 622.319, 807.823 621.767 C 815.903 621.261, 827.709 617.259, 827.262 615.179 C 827.131 614.570, 827.603 614.294, 828.310 614.565 C 829.017 614.837, 830.661 613.925, 831.963 612.539 C 834.001 610.370, 834.171 609.670, 833.186 607.510 C 832.557 606.129, 831.596 605, 831.051 605 C 829.904 605, 820.859 611.011, 819.765 612.500 C 819.361 613.050, 819.024 613.207, 819.015 612.848 C 819.007 612.489, 816.865 612.838, 814.255 613.624 C 804.052 616.695, 789.861 614.949, 780.383 609.457 C 774.320 605.944, 766.081 596.412, 762.700 589 C 757.547 577.702, 757.929 561.773, 763.617 550.774 C 764.400 549.260, 765.144 547.697, 765.270 547.300 C 765.397 546.903, 767.300 544.589, 769.500 542.158 C 771.700 539.726, 773.388 537.346, 773.250 536.868 C 773.113 536.391, 773.338 536.053, 773.750 536.118 C 775.913 536.460, 777.046 535.875, 776.399 534.750 C 776.003 534.063, 776.014 533.800, 776.423 534.167 C 776.833 534.534, 780.392 533.189, 784.334 531.179 C 791.085 527.735, 792.051 527.522, 801 527.512 C 813.075 527.497, 816.323 528.221, 823.453 532.514 C 829.992 536.451, 833.515 536.964, 834.267 534.086 C 834.906 531.642, 828.446 526.854, 819.725 523.309 C 812.796 520.492, 802.462 519.587, 792.699 520.942 M 146.728 521.605 C 145.854 522.479, 145.737 617.151, 146.607 619.418 C 147.133 620.790, 149.962 621, 167.925 621 C 191.554 621, 196.135 620.144, 202.733 614.497 C 207.318 610.572, 211.598 602.702, 212.572 596.405 C 214.198 585.897, 208.671 574.789, 199.298 569.731 L 194.168 566.963 199.645 561.485 C 202.658 558.473, 204.867 555.594, 204.555 555.089 C 204.243 554.584, 204.534 553.989, 205.201 553.766 C 205.944 553.519, 206.568 550.643, 206.811 546.344 C 207.278 538.072, 205.337 533.259, 199.448 528.088 C 194.625 523.853, 191.907 522.910, 183.500 522.552 C 179.650 522.388, 177.519 522.454, 178.765 522.699 C 182.665 523.464, 180.113 525, 174.941 525 C 170.350 525, 168.361 523.766, 171.250 522.710 C 172.643 522.201, 171.758 522.116, 157.478 521.388 C 151.966 521.107, 147.129 521.205, 146.728 521.605 M 949.121 522.354 C 948.214 523.447, 947.989 534.130, 948.208 565.653 C 948.495 606.731, 948.541 607.577, 950.727 611.666 C 953.783 617.381, 958.151 620.265, 964.554 620.796 C 969.240 621.185, 969.864 621.002, 970.479 619.067 C 971.403 616.154, 969.420 614, 965.812 614 C 961.752 614, 959.328 612.503, 957.260 608.720 C 955.684 605.836, 955.448 601.118, 955 563.500 C 954.504 521.859, 954.482 521.497, 952.412 521.202 C 951.264 521.038, 949.783 521.556, 949.121 522.354 M 590.500 522.909 C 592.416 523.820, 592.420 523.862, 590.583 523.930 C 589.529 523.968, 588.868 524.202, 589.115 524.448 C 589.362 524.695, 591.799 524.523, 594.532 524.066 C 598.069 523.474, 598.636 523.197, 596.500 523.104 C 594.850 523.032, 592.375 522.745, 591 522.466 C 588.821 522.024, 588.757 522.081, 590.500 522.909 M 153.227 545.750 L 153.500 563.500 169.508 563.457 C 184.071 563.417, 185.940 563.207, 190.220 561.136 C 192.879 559.848, 195.773 557.476, 196.876 555.679 C 199.019 552.187, 201.447 540.951, 200.251 540.060 C 199.838 539.752, 198.772 538.150, 197.881 536.500 C 196.915 534.709, 194.122 532.392, 190.952 530.750 C 185.794 528.079, 185.173 528, 169.298 528 L 152.954 528 153.227 545.750 M 637.953 534.837 C 642.151 538.690, 652.261 542.849, 650.500 540 C 650.160 539.450, 650.568 539, 651.406 539 C 652.244 539, 653.420 537.987, 654.020 536.750 C 655.035 534.655, 655.008 534.627, 653.629 536.341 C 651.928 538.453, 649.865 538.084, 643.300 534.494 C 640.504 532.965, 638.971 532.582, 638.713 533.349 C 638.446 534.142, 637.871 534.189, 636.865 533.500 C 636.062 532.950, 636.552 533.552, 637.953 534.837 M 639.504 535.007 C 640.419 536.487, 645.648 539.019, 646.347 538.320 C 646.677 537.990, 645.386 536.883, 643.477 535.860 C 639.552 533.756, 638.606 533.553, 639.504 535.007 M 551 549.961 C 550.175 550.414, 546.998 551.504, 543.940 552.383 C 540.774 553.294, 536.634 555.477, 534.322 557.456 C 532.090 559.367, 529.979 560.646, 529.632 560.298 C 529.284 559.951, 529 557.913, 529 555.770 C 529 551.976, 528.914 551.882, 525.750 552.187 L 522.500 552.500 522.500 586.500 L 522.500 620.500 525.500 620.500 L 528.500 620.500 529.071 597 C 529.385 584.075, 530.030 572.600, 530.504 571.500 C 534.949 561.179, 547.891 555.470, 560.245 558.381 C 569.555 560.575, 575.710 566.014, 578.027 574.095 C 578.562 575.961, 579 586.407, 579 597.309 C 579 609.061, 579.421 617.919, 580.035 619.066 C 581.283 621.398, 585.543 621.634, 586.393 619.418 C 587.368 616.878, 587.053 585.139, 585.979 577.715 C 583.772 562.452, 574.846 553.449, 559 550.502 C 557.075 550.144, 554.825 549.690, 554 549.494 C 553.175 549.298, 551.825 549.508, 551 549.961 M 267 550.704 C 251.660 552.388, 240.140 562.286, 236.410 576.985 C 232.136 593.826, 239.810 610.986, 254.819 618.154 C 260.638 620.933, 262.597 621.355, 270 621.422 C 278.431 621.499, 288.690 618.926, 287.517 617.028 C 287.245 616.587, 287.804 616.288, 288.761 616.363 C 289.723 616.439, 290.377 615.908, 290.225 615.176 C 290.074 614.447, 290.385 614.120, 290.915 614.448 C 291.446 614.776, 293.429 613.684, 295.322 612.022 C 297.215 610.360, 299.025 609, 299.343 609 C 299.661 609, 299.827 611.266, 299.711 614.036 C 299.492 619.254, 300.597 620.953, 304.231 620.985 C 306.872 621.008, 307.216 617.820, 306.840 596.812 C 306.509 578.365, 306.375 577.246, 303.836 571.825 C 300.325 564.324, 294.325 557.973, 287.676 554.718 C 282.287 552.079, 274.846 549.927, 272 550.184 C 271.175 550.259, 268.925 550.493, 267 550.704 M 358.500 551.351 C 352.200 552.977, 348.167 555.096, 345.076 558.405 C 343.742 559.832, 342.307 561, 341.887 561 C 341.467 561, 340.819 558.975, 340.448 556.500 C 339.835 552.416, 339.518 552, 337.011 552 C 334.719 552, 334.144 552.530, 333.625 555.125 C 332.544 560.528, 332.906 616.956, 334.035 619.066 C 335.283 621.398, 339.543 621.634, 340.393 619.418 C 340.727 618.548, 341.010 608.086, 341.022 596.168 C 341.041 577.311, 341.282 573.976, 342.880 570.459 C 344.645 566.572, 350.098 561, 352.136 561 C 352.676 561, 352.900 560.646, 352.632 560.214 C 352.365 559.782, 352.901 559.386, 353.823 559.334 C 354.746 559.282, 357.880 558.744, 360.788 558.138 C 371.628 555.882, 383.354 561.209, 388 570.500 C 390.389 575.279, 390.512 576.406, 390.767 596 C 391.090 620.733, 391.170 621.230, 394.785 620.813 L 397.500 620.500 397.500 598 C 397.500 571.690, 396.841 568.264, 390.406 561.106 C 382.762 552.604, 369.435 548.530, 358.500 551.351 M 881.326 551.003 C 869.889 553.378, 860.118 561.132, 855.299 571.658 C 852.283 578.246, 851.658 589.862, 853.936 597 C 855.774 602.760, 861.082 610.945, 864.727 613.640 C 869.407 617.100, 876.098 620.176, 877.649 619.581 C 878.449 619.274, 878.855 619.425, 878.551 619.917 C 877.724 621.255, 887.254 622.285, 893.250 621.505 C 899.930 620.637, 909.418 616.485, 908.418 614.868 C 907.977 614.154, 908.121 613.957, 908.786 614.368 C 910.721 615.563, 916.862 609.026, 920.229 602.185 C 923.254 596.041, 923.495 594.827, 923.429 586.021 C 923.369 577.978, 922.957 575.637, 920.775 570.938 C 914.300 556.997, 896.289 547.896, 881.326 551.003 M 1014.839 551.090 C 1003.366 552.743, 993.509 559.678, 988.462 569.648 C 985.739 575.028, 985.500 576.347, 985.500 586 C 985.500 595.449, 985.777 597.065, 988.270 602.142 C 991.659 609.042, 998.270 615.313, 1005.825 618.794 C 1010.583 620.986, 1012.954 621.414, 1020.500 621.443 C 1028.201 621.473, 1030.325 621.093, 1035.218 618.809 C 1041.830 615.723, 1051.340 607.328, 1050.552 605.274 C 1050.221 604.411, 1050.456 604.164, 1051.181 604.612 C 1051.962 605.095, 1052.125 604.769, 1051.681 603.612 C 1051.319 602.668, 1051.401 602.130, 1051.862 602.415 C 1053.607 603.493, 1055.499 594.320, 1055.455 585 C 1055.417 577.081, 1055.024 574.751, 1053.091 571 C 1049.405 563.849, 1046.139 560.063, 1040.632 556.559 C 1032.327 551.274, 1024.737 549.665, 1014.839 551.090 M 1108.326 551.044 C 1102.835 552.130, 1099.015 554.177, 1094.457 558.475 C 1092.402 560.414, 1090.558 562, 1090.360 562 C 1090.162 562, 1090 559.798, 1090 557.107 C 1090 551.817, 1088.957 550.721, 1085.237 552.104 L 1082.973 552.945 1083.237 586.723 L 1083.500 620.500 1086.500 620.500 L 1089.500 620.500 1090.028 597 C 1090.606 571.272, 1091.043 569.111, 1096.831 563.323 C 1100.747 559.407, 1107.684 557, 1115.056 557 C 1123.567 557, 1125.420 553.128, 1117.936 550.982 C 1114.128 549.890, 1114.168 549.889, 1108.326 551.044 M 1165.217 551.190 C 1156.526 552.511, 1146.631 558.976, 1148.550 562.080 C 1149.016 562.835, 1148.895 563.053, 1148.236 562.646 C 1146.562 561.611, 1145.929 567.144, 1146.844 574.809 C 1146.930 575.529, 1147.445 575.843, 1147.989 575.507 C 1148.536 575.169, 1148.733 575.531, 1148.431 576.320 C 1147.553 578.608, 1155.331 584.485, 1161.742 586.380 C 1164.909 587.315, 1170.447 588.679, 1174.048 589.410 C 1186.031 591.844, 1190.333 595.346, 1190.333 602.669 C 1190.333 606.604, 1189.858 607.738, 1187.220 610.095 C 1183.302 613.595, 1178.344 614.987, 1169.770 614.994 C 1162.312 615.001, 1156.587 613.179, 1150.649 608.909 C 1146.694 606.066, 1144.598 606, 1143.568 608.684 C 1142.704 610.935, 1149.398 616.613, 1155.948 619.185 C 1163.946 622.325, 1177.558 622.324, 1184.463 619.182 C 1190.299 616.527, 1193.202 614.136, 1192.322 612.712 C 1191.969 612.141, 1192.181 611.994, 1192.803 612.378 C 1194.963 613.713, 1197.248 607.100, 1196.794 600.829 C 1196.077 590.917, 1190.086 586.580, 1171.500 582.517 C 1163.012 580.661, 1157.247 578.207, 1154.993 575.492 C 1153.648 573.871, 1151.831 563.967, 1152.937 564.288 C 1153.247 564.377, 1154.721 563.300, 1156.213 561.895 C 1160.907 557.473, 1170.184 555.809, 1178 557.986 C 1179.925 558.523, 1183.710 560.789, 1186.410 563.023 C 1191.645 567.354, 1194.313 567.784, 1194.801 564.378 C 1195.240 561.323, 1190.949 556.784, 1184.831 553.830 C 1178.673 550.857, 1172.697 550.053, 1165.217 551.190 M 447 552.614 C 438.250 555.745, 431.772 561.699, 426.960 571.031 C 423.768 577.220, 423.082 589.674, 425.509 597.390 C 426.523 600.612, 427.692 602.690, 428.285 602.324 C 428.886 601.952, 429.003 602.186, 428.569 602.889 C 427.827 604.089, 431.144 609.130, 435.323 613.154 C 436.520 614.307, 440.406 616.630, 443.959 618.317 C 449.552 620.973, 451.565 621.392, 458.983 621.442 C 467.823 621.502, 476.693 618.930, 475.318 616.706 C 474.957 616.121, 475.188 615.998, 475.865 616.416 C 477.101 617.181, 487 610.512, 487 608.915 C 487 608.412, 487.478 608, 488.061 608 C 488.748 608, 488.891 609.547, 488.465 612.386 C 488.069 615.024, 488.258 617.614, 488.939 618.886 C 490.139 621.128, 493.430 621.731, 494.553 619.915 C 494.922 619.318, 495.171 609.878, 495.106 598.938 C 495.004 581.466, 494.738 578.375, 492.924 573.527 C 490.213 566.279, 482.796 558.237, 475.341 554.460 C 470.344 551.928, 468.200 551.464, 460.500 551.251 C 454.211 551.078, 450.145 551.488, 447 552.614 M 635.268 552.955 C 623.331 557.252, 615.242 566.913, 612.878 579.700 C 611.799 585.538, 612.592 597.370, 614.005 596.497 C 614.450 596.222, 614.606 596.790, 614.353 597.760 C 614.095 598.747, 615.654 602.249, 617.896 605.718 C 629.915 624.313, 655.948 627.150, 672.718 611.693 L 677 607.745 677 613.373 C 677 616.667, 677.439 619, 678.059 619 C 678.641 619, 678.819 619.485, 678.453 620.077 C 678.022 620.774, 678.795 621.038, 680.644 620.827 L 683.500 620.500 683.500 599.500 C 683.500 573.760, 682.732 570.837, 673.500 561.434 C 668.637 556.481, 666.278 554.913, 661.056 553.161 C 652.884 550.421, 642.540 550.338, 635.268 552.955 M 264 557.873 C 259.111 559.487, 253.458 562.861, 250.597 565.873 C 249 567.554, 247.243 568.650, 246.692 568.310 C 246.138 567.967, 246 568.190, 246.383 568.811 C 246.764 569.427, 246.083 571.859, 244.870 574.216 C 241.504 580.753, 241.724 591.872, 245.367 599.317 C 250.215 609.227, 259.618 615.028, 270.717 614.956 C 282.773 614.878, 290.401 610.352, 295.915 600.008 C 299.034 594.157, 299.145 593.548, 298.848 584.046 C 298.678 578.613, 298.192 574.381, 297.769 574.643 C 297.346 574.904, 297 574.682, 297 574.149 C 297 571.643, 288.570 562.816, 283.933 560.466 C 278.533 557.729, 268.420 556.414, 264 557.873 M 452.500 557.970 C 450.850 558.392, 448.836 558.908, 448.024 559.118 C 447.212 559.328, 445.938 560.067, 445.193 560.759 C 444.448 561.452, 443.313 561.717, 442.669 561.349 C 442.026 560.981, 441.813 561.027, 442.195 561.451 C 442.577 561.875, 441.654 563.262, 440.145 564.531 C 438.636 565.801, 436.533 568.451, 435.473 570.420 C 434.413 572.389, 433.296 574, 432.991 574 C 432.113 574, 431.575 578.876, 431.555 587 C 431.542 592.807, 432.050 595.539, 433.809 599.101 C 438.925 609.465, 447.868 614.989, 459.500 614.968 C 467.669 614.954, 472.792 612.989, 478.791 607.570 C 486.576 600.536, 490.191 587.030, 486.814 577.592 C 484.208 570.311, 480.467 565.252, 475.235 561.934 C 467.841 557.245, 460.415 555.950, 452.500 557.970 M 639.566 558.489 C 637.402 559.260, 635.195 559.621, 634.662 559.291 C 634.128 558.961, 633.992 559.178, 634.360 559.773 C 634.728 560.369, 634.203 561.118, 633.194 561.439 C 629.942 562.470, 624.755 568.353, 622.199 573.905 C 615.872 587.651, 621.607 605.366, 634.500 611.900 C 641.885 615.643, 653.108 616.068, 659.673 612.853 C 666.605 609.459, 672.408 603.298, 674.441 597.177 C 676.386 591.320, 676.714 580.868, 675.085 576.666 C 674.480 575.107, 674.286 573.307, 674.653 572.666 C 675.020 572.025, 674.945 571.841, 674.486 572.258 C 673.408 573.236, 669.921 567.965, 670.717 566.562 C 671.049 565.978, 670.941 565.845, 670.476 566.268 C 670.012 566.690, 668.227 565.674, 666.511 564.010 C 660.358 558.047, 647.947 555.503, 639.566 558.489 M 878.615 558.577 C 872.053 560.676, 863.962 568.729, 861.676 575.437 C 859.181 582.760, 859.491 592.366, 862.427 598.671 C 867.713 610.023, 877.452 615.619, 890.468 614.784 C 901.819 614.055, 909.541 608.620, 914.301 598.008 C 916.910 592.190, 917.069 580.222, 914.611 574.683 C 912.201 569.251, 905.224 562.012, 900.276 559.810 C 894.388 557.189, 884.682 556.636, 878.615 558.577 M 1013 558.116 C 1011.075 558.682, 1008.734 559.209, 1007.798 559.287 C 1006.861 559.365, 1006.271 559.605, 1006.487 559.820 C 1006.702 560.035, 1005.039 561.626, 1002.791 563.356 C 1000.544 565.085, 997.309 568.975, 995.602 572 C 992.803 576.963, 992.501 578.330, 992.512 586 C 992.522 592.811, 992.959 595.318, 994.714 598.616 C 1000.458 609.412, 1007.520 614.129, 1018.927 614.790 C 1028.797 615.361, 1035.147 612.855, 1041.371 605.932 C 1054.116 591.757, 1050.111 568.583, 1033.514 560.463 C 1027.453 557.498, 1018.564 556.481, 1013 558.116 M 153 592.484 L 153 614.124 171.283 613.812 C 188.621 613.516, 189.822 613.368, 194.533 610.941 C 199.867 608.194, 203.153 603.685, 205.058 596.500 C 205.642 594.300, 206.365 591.656, 206.667 590.625 C 206.986 589.531, 206.804 589.003, 206.229 589.359 C 205.687 589.693, 204.954 588.520, 204.600 586.750 C 203.604 581.772, 199.428 576.269, 194.749 573.770 C 190.845 571.685, 188.976 571.474, 171.750 571.172 L 153 570.844 153 592.484" stroke="none" fill="#363445" fill-rule="evenodd"/></svg>