<svg width="117" height="130" xmlns="http://www.w3.org/2000/svg" xmlns:xlink="http://www.w3.org/1999/xlink" overflow="hidden"><g transform="translate(-467 -66)"><path d="M500 111.5C500 93.5507 511.193 79 525 79 538.807 79 550 93.5507 550 111.5 550 129.449 538.807 144 525 144 511.193 144 500 129.449 500 111.5Z" stroke="#000000" stroke-width="2" stroke-miterlimit="8" fill="none" fill-rule="evenodd"/><path d="M490 108C490 85.9086 505.67 68 525 68 544.33 68 560 85.9086 560 108 560 108.294 559.997 108.588 559.991 108.882L557.537 108.82C557.93 88.0897 543.681 70.9169 525.711 70.4639 507.741 70.0109 492.855 86.4491 492.463 107.18 492.458 107.453 492.455 107.727 492.455 108Z" stroke="#000000" stroke-width="2" stroke-miterlimit="8" fill="none" fill-rule="evenodd"/><path d="M556 108 560 108C562.209 108 564 110.686 564 114 564 117.314 562.209 120 560 120L556 120Z" stroke="#000000" stroke-width="2" stroke-miterlimit="8" fill="none" fill-rule="evenodd"/><path d="M494 120 490.5 120C488.567 120 487 117.314 487 114 487 110.686 488.567 108 490.5 108L494 108Z" stroke="#000000" stroke-width="2" stroke-miterlimit="8" fill="none" fill-rule="evenodd"/><path d="M560 120 560 124.8" stroke="#000000" stroke-width="2" stroke-miterlimit="8" fill="none" fill-rule="evenodd"/><path d="M0 0 31.0742 9.62835" stroke="#000000" stroke-width="2" stroke-miterlimit="8" fill="none" fill-rule="evenodd" transform="matrix(-1 0 0 1 560.074 124)"/><path d="M521 132.5C521 132.224 521.224 132 521.5 132L528.5 132C528.776 132 529 132.224 529 132.5L529 134.5C529 134.776 528.776 135 528.5 135L521.5 135C521.224 135 521 134.776 521 134.5Z" stroke="#000000" stroke-width="2" stroke-miterlimit="8" fill="none" fill-rule="evenodd"/><path d="M489.5 152 560.5 152C572.374 152 582 161.626 582 173.5L582 195 468 195 468 173.5C468 161.626 477.626 152 489.5 152Z" stroke="#000000" stroke-width="2" stroke-miterlimit="8" fill="none" fill-rule="evenodd"/></g></svg>