<svg viewBox="0 0 96 96" xmlns="http://www.w3.org/2000/svg" xmlns:xlink="http://www.w3.org/1999/xlink" id="Icons_Professor" overflow="hidden"><path d="M20.81 72.92C19.8475 69.5696 16.4798 67.5142 13.06 68.19L4 40.85C3.82603 40.3253 3.25967 40.041 2.735 40.215 2.21033 40.389 1.92603 40.9553 2.1 41.48L11.16 68.66C8.28 69.47 6.87 70.56 8.24 76.08 9.82 82.38 11.89 81.86 15.64 80.93 19.2698 80.1317 21.5775 76.5565 20.81 72.92Z"/><circle cx="48" cy="30" r="16"/><path d="M18.29 82 44 82 44 59 76 59C71.5386 55.7772 66.5215 53.4042 61.2 52 56.9217 50.6903 52.4742 50.0165 48 50 43.5307 50.0771 39.0916 50.7497 34.8 52 29.2073 53.632 23.9323 56.2019 19.2 59.6 17.227 61.1451 16.0522 63.4946 16 66L16 66.26C19.2639 66.8249 21.9001 69.2385 22.75 72.44 23.6219 76.2714 21.7861 80.2064 18.29 82Z"/><path d="M47 62 47 89.39 61 89.39C60.9997 90.2638 61.6965 90.9783 62.57 91L67.94 91C68.8308 91 69.5545 90.2808 69.56 89.39L83.56 89.39 83.56 62ZM50.22 86.17 50.22 65.17 64.22 65.17 64.22 86.17ZM80.3 86.17 66.3 86.17 66.3 65.17 80.3 65.17Z"/><rect x="69.56" y="70.59" width="7.52" height="1.61"/><rect x="69.56" y="73.81" width="7.52" height="1.61"/><rect x="69.56" y="77.04" width="5.21" height="1.61"/></svg>